<svg xmlns="http://www.w3.org/2000/svg" viewBox="0 0 500 500"><g id="freepik--background-simple--inject-202"><path d="M479.78,249.9c-5.1,43.2-24.83,93.43-64.22,116.5C356,401.27,361,454.9,244.84,478.22a239.4,239.4,0,0,1-51.51,4.86A198,198,0,0,1,168.05,481C94.21,470.23,44.52,418.91,26.29,357,2.3,275.47,50.2,222.13,82,190S137,57.7,251,33.89a230.81,230.81,0,0,1,52.94-5c40.57,1,84.83,14.31,115.45,42.12q3.45,3.13,6.71,6.49C468.65,121.15,486.74,191,479.78,249.9Z" style="fill:#FF0000"></path><path d="M479.78,249.9c-5.1,43.2-24.83,93.43-64.22,116.5C356,401.27,361,454.9,244.84,478.22a239.4,239.4,0,0,1-51.51,4.86A198,198,0,0,1,168.05,481C94.21,470.23,44.52,418.91,26.29,357,2.3,275.47,50.2,222.13,82,190S137,57.7,251,33.89a230.81,230.81,0,0,1,52.94-5c40.57,1,84.83,14.31,115.45,42.12q3.45,3.13,6.71,6.49C468.65,121.15,486.74,191,479.78,249.9Z" style="fill:#fff;opacity:0.7000000000000001"></path></g><g id="freepik--Clouds--inject-202"><path d="M232.81,42.56s-6.27-13.06-15.15-20.9-23-5.74-27.16-.52-7.31,19.33-10.44,18.28-14.11-11-23-4.18S155.51,50.39,149.24,53,137.75,46.21,131,50.39s-6.79,12.54-6.79,12.54l-22.9,5.71h177s-6.79-20.86-14.62-27.13-15.15,6.79-20.9,7.32S232.81,42.56,232.81,42.56Z" style="fill:none;stroke:#263238;stroke-linecap:round;stroke-linejoin:round"></path><path d="M424.2,233.11s-4.4-7.41-10.64-11.85-16.14-3.26-19.08-.3-5.14,11-7.34,10.37S377.23,225.11,371,229s-1.1,8.59-5.51,10.07-8.07-3.85-12.84-1.48a8.41,8.41,0,0,0-4.77,7.11L331.8,247.9H456.13s-4.77-11.83-10.28-15.39-10.64,3.85-14.68,4.15S424.2,233.11,424.2,233.11Z" style="fill:none;stroke:#263238;stroke-linecap:round;stroke-linejoin:round"></path><path d="M124.78,290.64s-4.4-7.41-10.64-11.85S98,275.53,95.06,278.5s-5.14,10.95-7.34,10.36-9.91-6.22-16.14-2.37-1.1,8.59-5.51,10.07-8.07-3.85-12.84-1.48a8.41,8.41,0,0,0-4.77,7.11l-16.08,3.24H156.71s-4.77-11.83-10.28-15.38-10.64,3.85-14.68,4.14S124.78,290.64,124.78,290.64Z" style="fill:none;stroke:#263238;stroke-linecap:round;stroke-linejoin:round"></path></g><g id="freepik--List--inject-202"><rect x="93.93" y="154.95" width="235.65" height="306.2" rx="11.79" style="fill:#263238"></rect><rect x="105.2" y="173.05" width="213.1" height="273.57" style="fill:#fff;stroke:#263238;stroke-linecap:round;stroke-linejoin:round"></rect><path d="M239.82,148.77a5.76,5.76,0,0,1-4.71-9,20.19,20.19,0,1,0-34,.31,5.7,5.7,0,0,1-4.91,8.69h-35.1L170.55,176h94.88l9.49-27.25ZM218,137.16a7.07,7.07,0,1,1,7.06-7.07A7.08,7.08,0,0,1,218,137.16Z" style="fill:#FF0000;stroke:#263238;stroke-linecap:round;stroke-linejoin:round"></path><path d="M138.25,233.63l4.36-23.07h5.81l4.3,23.07H148l-.77-4.87h-3.39l-.8,4.87Zm6.06-7.92h2.45l-1.22-9Z"></path><path d="M154.82,233.63V210.56h5.84a11.84,11.84,0,0,1,4.7.75,4.42,4.42,0,0,1,2.36,2.37,10.67,10.67,0,0,1,.69,4.17v8.37a11,11,0,0,1-.69,4.23,4.47,4.47,0,0,1-2.35,2.41,11.39,11.39,0,0,1-4.65.77Zm5.1-3.54h.8a3.1,3.1,0,0,0,1.68-.34,1.53,1.53,0,0,0,.64-1,10.09,10.09,0,0,0,.13-1.71V217a6.78,6.78,0,0,0-.16-1.66,1.38,1.38,0,0,0-.67-.91,3.57,3.57,0,0,0-1.65-.28h-.77Z"></path><path d="M174.36,233.63l-4.16-23.07h4.36L177,226.22l2.3-15.66H184l-4.22,23.07Z"></path><path d="M184.27,233.63l4.36-23.07h5.81l4.3,23.07H194l-.77-4.87h-3.39l-.8,4.87Zm6.07-7.92h2.45l-1.23-9Z"></path><path d="M200.84,233.63V210.56h3.59l4.73,11.1v-11.1h4.22v23.07h-3.45l-4.73-12v12Z"></path><path d="M218.9,233.63V214.35h-3.47v-3.79h12v3.79H224v19.28Z"></path><path d="M227.36,233.63l4.35-23.07h5.81l4.3,23.07h-4.69l-.77-4.87H233l-.8,4.87Zm6.06-7.92h2.45l-1.22-9Z"></path><path d="M249.8,234a6.34,6.34,0,0,1-3.77-1,5.39,5.39,0,0,1-2-2.8,13.62,13.62,0,0,1-.58-4.18v-7.74a13.14,13.14,0,0,1,.62-4.25,5.29,5.29,0,0,1,2.15-2.77,7.56,7.56,0,0,1,4.15-1,8,8,0,0,1,4,.86,4.88,4.88,0,0,1,2.09,2.36,9.15,9.15,0,0,1,.63,3.53v1.48h-5v-1.88a8.27,8.27,0,0,0-.1-1.36,1.78,1.78,0,0,0-.45-1,1.5,1.5,0,0,0-1.16-.39,1.47,1.47,0,0,0-1.19.44,2.12,2.12,0,0,0-.47,1.1,8.66,8.66,0,0,0-.1,1.37v10.68a5.91,5.91,0,0,0,.16,1.43,2.23,2.23,0,0,0,.56,1.09,1.94,1.94,0,0,0,2.41,0,2.22,2.22,0,0,0,.6-1.11,6.13,6.13,0,0,0,.17-1.45v-2.71h-2.08v-3h6.67v12h-3.37l-.28-1.91a4.16,4.16,0,0,1-1.34,1.61A4,4,0,0,1,249.8,234Z"></path><path d="M260.36,233.63V210.56h10.37V214h-5.27v5.73h4v3.53h-4v6.89h5.33v3.45Z"></path><path d="M279.22,234a7.7,7.7,0,0,1-3.62-.77,4.9,4.9,0,0,1-2.19-2.38,10.84,10.84,0,0,1-.83-4.17l4.36-.66a10.61,10.61,0,0,0,.27,2.4,2.73,2.73,0,0,0,.68,1.31,1.57,1.57,0,0,0,1.07.39,1,1,0,0,0,1-.54,2.78,2.78,0,0,0,.24-1.14,4.12,4.12,0,0,0-.68-2.4,10.47,10.47,0,0,0-1.85-2l-2-1.74a11.2,11.2,0,0,1-2.2-2.52,6.35,6.35,0,0,1-.9-3.49,5.69,5.69,0,0,1,1.74-4.48,6.8,6.8,0,0,1,4.72-1.56,6.08,6.08,0,0,1,3,.63,4.36,4.36,0,0,1,1.71,1.64,6.87,6.87,0,0,1,.8,2.13,14,14,0,0,1,.24,2.15l-4.39.55a16.58,16.58,0,0,0-.13-1.78,2.33,2.33,0,0,0-.41-1.17,1.12,1.12,0,0,0-1-.41,1.1,1.1,0,0,0-1,.59,2.57,2.57,0,0,0-.32,1.2,3.37,3.37,0,0,0,.61,2.09,11.81,11.81,0,0,0,1.61,1.7l1.91,1.68a13,13,0,0,1,2.54,2.9,7.24,7.24,0,0,1,1,4,5.84,5.84,0,0,1-.74,2.94,5.34,5.34,0,0,1-2.09,2.1A6.4,6.4,0,0,1,279.22,234Z"></path><circle cx="145.81" cy="277.72" r="20.04" style="fill:#fff;stroke:#263238;stroke-miterlimit:10;stroke-width:4px"></circle><path d="M147.24,286.28a4.68,4.68,0,0,1-3.49-1.62L135,274.39a4.65,4.65,0,0,1,7.06-6.05l5.35,6.24,18-20a4.65,4.65,0,0,1,3.46-1.54,4.65,4.65,0,0,1,3.46,7.75l-21.52,24a4.65,4.65,0,0,1-3.45,1.54Z" style="fill:#FF0000"></path><path d="M168.79,254.53a3.12,3.12,0,0,1,2.1.8,3.16,3.16,0,0,1,.24,4.45l-21.51,24a3.17,3.17,0,0,1-2.34,1h0a3.13,3.13,0,0,1-2.35-1.1l-8.8-10.27a3.15,3.15,0,0,1,4.78-4.09l6.46,7.54,19.11-21.29a3.17,3.17,0,0,1,2.35-1m0-3h0a6.17,6.17,0,0,0-4.58,2l-16.83,18.74-4.24-4.95a6.15,6.15,0,1,0-9.33,8l8.8,10.26a6.13,6.13,0,0,0,4.59,2.15h.08a6.13,6.13,0,0,0,4.57-2l21.51-24a6.07,6.07,0,0,0,1.57-4.43,6.14,6.14,0,0,0-6.14-5.82Z" style="fill:#263238"></path><circle cx="145.81" cy="333.73" r="20.04" style="fill:#fff;stroke:#263238;stroke-miterlimit:10;stroke-width:4px"></circle><path d="M147.24,342.29a4.64,4.64,0,0,1-3.49-1.62L135,330.4a4.65,4.65,0,0,1,7.06-6l5.35,6.25,18-20a4.65,4.65,0,0,1,3.46-1.54,4.65,4.65,0,0,1,3.46,7.75l-21.52,24a4.65,4.65,0,0,1-3.45,1.54Z" style="fill:#FF0000"></path><path d="M168.79,310.54a3.15,3.15,0,0,1,2.34,5.25l-21.51,24a3.17,3.17,0,0,1-2.34,1h0a3.13,3.13,0,0,1-2.35-1.1l-8.8-10.26a3.15,3.15,0,1,1,4.78-4.1l6.46,7.54,19.11-21.29a3.17,3.17,0,0,1,2.35-1m0-3h0a6.17,6.17,0,0,0-4.58,2l-16.83,18.74-4.24-4.94a6.15,6.15,0,1,0-9.33,8l8.8,10.27a6.15,6.15,0,0,0,4.59,2.14h.08a6.13,6.13,0,0,0,4.57-2l21.51-23.95a6.15,6.15,0,0,0-.46-8.69,6.18,6.18,0,0,0-4.11-1.57Z" style="fill:#263238"></path><circle cx="145.81" cy="389.74" r="20.04" transform="matrix(0.53, -0.85, 0.85, 0.53, -261.93, 306.64)" style="fill:#fff;stroke:#263238;stroke-miterlimit:10;stroke-width:4px"></circle><path d="M147.24,398.3a4.61,4.61,0,0,1-3.49-1.62L135,386.42a4.65,4.65,0,0,1,7.06-6.06l5.35,6.25,18-20a4.65,4.65,0,0,1,3.46-1.54,4.65,4.65,0,0,1,3.46,7.76l-21.52,23.95a4.65,4.65,0,0,1-3.45,1.54Z" style="fill:#FF0000"></path><path d="M168.79,366.55a3.15,3.15,0,0,1,2.34,5.25l-21.51,24a3.17,3.17,0,0,1-2.34,1h0a3.13,3.13,0,0,1-2.35-1.1l-8.8-10.26a3.15,3.15,0,1,1,4.78-4.1l6.46,7.54,19.11-21.28a3.15,3.15,0,0,1,2.35-1.05m0-3h0a6.21,6.21,0,0,0-4.58,2l-16.83,18.74-4.24-4.94a6.13,6.13,0,0,0-4.67-2.15,6.14,6.14,0,0,0-4.66,10.15l8.8,10.27a6.15,6.15,0,0,0,4.59,2.14h.08a6.13,6.13,0,0,0,4.57-2l21.51-23.95a6.15,6.15,0,0,0-4.57-10.26Z" style="fill:#263238"></path><line x1="184.55" y1="277.56" x2="281.02" y2="277.56" style="fill:none;stroke:#263238;stroke-linecap:round;stroke-linejoin:round"></line><line x1="176.46" y1="277.56" x2="181.44" y2="277.56" style="fill:none;stroke:#263238;stroke-linecap:round;stroke-linejoin:round"></line><line x1="212.56" y1="337.3" x2="281.02" y2="337.3" style="fill:none;stroke:#263238;stroke-linecap:round;stroke-linejoin:round"></line><line x1="176.46" y1="337.3" x2="204.47" y2="337.3" style="fill:none;stroke:#263238;stroke-linecap:round;stroke-linejoin:round"></line><line x1="269.19" y1="391.45" x2="281.02" y2="391.45" style="fill:none;stroke:#263238;stroke-linecap:round;stroke-linejoin:round"></line><line x1="176.46" y1="391.45" x2="256.74" y2="391.45" style="fill:none;stroke:#263238;stroke-linecap:round;stroke-linejoin:round"></line></g><g id="freepik--hot-air-balloon--inject-202"><path d="M349.87,303.13h57.49a0,0,0,0,1,0,0v42.71a7,7,0,0,1-7,7H356.85a7,7,0,0,1-7-7V303.13A0,0,0,0,1,349.87,303.13Z" style="fill:#FF0000;stroke:#263238;stroke-linecap:round;stroke-linejoin:round"></path><line x1="357.32" y1="312.13" x2="357.32" y2="317.92" style="fill:none;stroke:#263238;stroke-linecap:round;stroke-linejoin:round"></line><line x1="360.16" y1="312.13" x2="360.16" y2="317.92" style="fill:none;stroke:#263238;stroke-linecap:round;stroke-linejoin:round"></line><line x1="363" y1="312.13" x2="363" y2="317.92" style="fill:none;stroke:#263238;stroke-linecap:round;stroke-linejoin:round"></line><line x1="364.93" y1="319.84" x2="364.93" y2="325.63" style="fill:none;stroke:#263238;stroke-linecap:round;stroke-linejoin:round"></line><line x1="367.77" y1="319.84" x2="367.77" y2="325.63" style="fill:none;stroke:#263238;stroke-linecap:round;stroke-linejoin:round"></line><line x1="370.61" y1="319.84" x2="370.61" y2="325.63" style="fill:none;stroke:#263238;stroke-linecap:round;stroke-linejoin:round"></line><line x1="357.32" y1="328.26" x2="357.32" y2="334.05" style="fill:none;stroke:#263238;stroke-linecap:round;stroke-linejoin:round"></line><line x1="360.16" y1="328.26" x2="360.16" y2="334.05" style="fill:none;stroke:#263238;stroke-linecap:round;stroke-linejoin:round"></line><line x1="363" y1="328.26" x2="363" y2="334.05" style="fill:none;stroke:#263238;stroke-linecap:round;stroke-linejoin:round"></line><line x1="363.06" y1="320.1" x2="357.26" y2="320.1" style="fill:none;stroke:#263238;stroke-linecap:round;stroke-linejoin:round"></line><line x1="363.06" y1="322.94" x2="357.26" y2="322.94" style="fill:none;stroke:#263238;stroke-linecap:round;stroke-linejoin:round"></line><line x1="363.06" y1="325.78" x2="357.26" y2="325.78" style="fill:none;stroke:#263238;stroke-linecap:round;stroke-linejoin:round"></line><line x1="370.77" y1="312.28" x2="364.97" y2="312.28" style="fill:none;stroke:#263238;stroke-linecap:round;stroke-linejoin:round"></line><line x1="370.77" y1="315.13" x2="364.97" y2="315.13" style="fill:none;stroke:#263238;stroke-linecap:round;stroke-linejoin:round"></line><line x1="370.77" y1="317.97" x2="364.97" y2="317.97" style="fill:none;stroke:#263238;stroke-linecap:round;stroke-linejoin:round"></line><line x1="390.04" y1="327.47" x2="390.04" y2="333.26" style="fill:none;stroke:#263238;stroke-linecap:round;stroke-linejoin:round"></line><line x1="392.88" y1="327.47" x2="392.88" y2="333.26" style="fill:none;stroke:#263238;stroke-linecap:round;stroke-linejoin:round"></line><line x1="395.72" y1="327.47" x2="395.72" y2="333.26" style="fill:none;stroke:#263238;stroke-linecap:round;stroke-linejoin:round"></line><line x1="397.65" y1="335.18" x2="397.65" y2="340.97" style="fill:none;stroke:#263238;stroke-linecap:round;stroke-linejoin:round"></line><line x1="400.49" y1="335.18" x2="400.49" y2="340.97" style="fill:none;stroke:#263238;stroke-linecap:round;stroke-linejoin:round"></line><line x1="403.33" y1="335.18" x2="403.33" y2="340.97" style="fill:none;stroke:#263238;stroke-linecap:round;stroke-linejoin:round"></line><line x1="390.04" y1="343.6" x2="390.04" y2="349.4" style="fill:none;stroke:#263238;stroke-linecap:round;stroke-linejoin:round"></line><line x1="392.88" y1="343.6" x2="392.88" y2="349.4" style="fill:none;stroke:#263238;stroke-linecap:round;stroke-linejoin:round"></line><line x1="395.72" y1="343.6" x2="395.72" y2="349.4" style="fill:none;stroke:#263238;stroke-linecap:round;stroke-linejoin:round"></line><line x1="395.78" y1="335.44" x2="389.98" y2="335.44" style="fill:none;stroke:#263238;stroke-linecap:round;stroke-linejoin:round"></line><line x1="395.78" y1="338.28" x2="389.98" y2="338.28" style="fill:none;stroke:#263238;stroke-linecap:round;stroke-linejoin:round"></line><line x1="395.78" y1="341.12" x2="389.98" y2="341.12" style="fill:none;stroke:#263238;stroke-linecap:round;stroke-linejoin:round"></line><line x1="403.49" y1="327.63" x2="397.69" y2="327.63" style="fill:none;stroke:#263238;stroke-linecap:round;stroke-linejoin:round"></line><line x1="403.49" y1="330.47" x2="397.69" y2="330.47" style="fill:none;stroke:#263238;stroke-linecap:round;stroke-linejoin:round"></line><line x1="403.49" y1="333.31" x2="397.69" y2="333.31" style="fill:none;stroke:#263238;stroke-linecap:round;stroke-linejoin:round"></line><path d="M407.27,306H350a2.72,2.72,0,0,1-2.72-2.72h0a2.72,2.72,0,0,1,2.72-2.72h57.31a2.72,2.72,0,0,1,2.72,2.72h0A2.72,2.72,0,0,1,407.27,306Z" style="fill:#FF0000;stroke:#263238;stroke-linecap:round;stroke-linejoin:round"></path><line x1="356.18" y1="256.89" x2="349.96" y2="300.59" style="fill:#fff;stroke:#263238;stroke-linecap:round;stroke-linejoin:round"></line><line x1="400.91" y1="256.89" x2="407.27" y2="300.59" style="fill:#fff;stroke:#263238;stroke-linecap:round;stroke-linejoin:round"></line><path d="M468.31,119.55A89.7,89.7,0,1,0,320.2,187.61l-.4,0s14.42,14.66,18,18.41,12.45,13.64,14.41,18.42a109.56,109.56,0,0,1,3.94,13.64h44.56a109.56,109.56,0,0,1,3.94-13.64c2-4.78,10.81-14.67,14.41-18.42s18-18.41,18-18.41H437A89.51,89.51,0,0,0,468.31,119.55Z" style="fill:#FF0000;stroke:#263238;stroke-linecap:round;stroke-linejoin:round"></path><path d="M330.84,198.88c3,3,5.68,5.81,7,7.17.72.76,1.67,1.78,2.73,2.94h75.8c1.06-1.16,2-2.18,2.73-2.94,1.31-1.36,4-4.16,7-7.17Z" style="fill:#fff;stroke:#263238;stroke-linecap:round;stroke-linejoin:round"></path><path d="M378.61,29.85a89.26,89.26,0,0,0-41.89,10.38h83.79A89.27,89.27,0,0,0,378.61,29.85Z" style="fill:#fff;stroke:#263238;stroke-linecap:round;stroke-linejoin:round"></path><path d="M288.92,119.55a89.35,89.35,0,0,0,23.65,60.67H444.66a89.67,89.67,0,0,0-8.05-129.09h-116A89.51,89.51,0,0,0,288.92,119.55Z" style="fill:#fff;stroke:#263238;stroke-linecap:round;stroke-linejoin:round"></path><rect x="356.18" y="238.11" width="44.74" height="18.78" style="fill:#fff;stroke:#263238;stroke-linecap:round;stroke-linejoin:round"></rect><path d="M324,76.43a89.53,89.53,0,0,0-9.9,33.05c-6.24,60.47,41.77,94.14,41.77,94.14" style="fill:none;stroke:#263238;stroke-linecap:round;stroke-linejoin:round"></path><path d="M378.61,29.85s-31.12,10.23-50.3,39.36" style="fill:none;stroke:#263238;stroke-linecap:round;stroke-linejoin:round"></path><path d="M370.07,167.24a382.35,382.35,0,0,0,8.27,44.48" style="fill:none;stroke:#263238;stroke-linecap:round;stroke-linejoin:round"></path><path d="M380.21,42.77s-18.76,44.77-10.79,118.81" style="fill:none;stroke:#263238;stroke-linecap:round;stroke-linejoin:round"></path><path d="M437.36,150.69c-7.2,39.37-30.34,54.8-30.34,54.8" style="fill:none;stroke:#263238;stroke-linecap:round;stroke-linejoin:round"></path><path d="M413.37,49.68c10.72,12.33,25.29,35.91,26.07,73.51a140.9,140.9,0,0,1-1,20.7" style="fill:none;stroke:#263238;stroke-linecap:round;stroke-linejoin:round"></path><path d="M402,39a58.15,58.15,0,0,1,8.35,7.38" style="fill:none;stroke:#263238;stroke-linecap:round;stroke-linejoin:round"></path><path d="M360.89,207.36l.14.17a30.9,30.9,0,0,1,6.71,19.27v4.87" style="fill:none;stroke:#263238;stroke-linecap:round;stroke-linejoin:round"></path><line x1="378.88" y1="219.48" x2="378.88" y2="231.21" style="fill:none;stroke:#263238;stroke-linecap:round;stroke-linejoin:round"></line><path d="M404.43,209.43s-4.19,2.09-6.7,8.38a52.38,52.38,0,0,0-2.93,14.24" style="fill:none;stroke:#263238;stroke-linecap:round;stroke-linejoin:round"></path><polygon points="396.54 281.1 405.61 287.31 399.21 301.43 380.39 301.43 380 281.51 390.96 279.3 396.54 281.1" style="fill:#fff;stroke:#263238;stroke-linecap:round;stroke-linejoin:round"></polygon><polygon points="380 281.51 379.74 282.1 371.76 300.81 380.31 300.63 380 281.51" style="fill:#fff;stroke:#263238;stroke-linecap:round;stroke-linejoin:round"></polygon><path d="M391.36,267.08a9.89,9.89,0,0,0-2,2.2c-.42.88-.48,2.05-.91,2.73s-1.32.64-1.36,1.19.62,1,.62,1-.34,1.82-.46,2.91a1.74,1.74,0,0,0,1.2,1.8,7.88,7.88,0,0,0,1.6.29l-.42,1.78,1.8,3.65,5.08-4.1.56-2.58-.19-2s2.29-2.15,2-4.46-1.84-3.69-3.77-4.79A3.52,3.52,0,0,0,391.36,267.08Z" style="fill:#fff;stroke:#263238;stroke-linecap:round;stroke-linejoin:round"></path><path d="M395.9,276a.88.88,0,0,1-.79.39,1.67,1.67,0,0,1-.9-.57,3.9,3.9,0,0,1-1.42,2.46" style="fill:none;stroke:#263238;stroke-linecap:round;stroke-linejoin:round"></path><path d="M390.63,274.85s-.84,1.08-1.89.63" style="fill:none;stroke:#263238;stroke-linecap:round;stroke-linejoin:round"></path><path d="M391.4,270.06s-.34-.67-1.34-.33" style="fill:none;stroke:#263238;stroke-linecap:round;stroke-linejoin:round"></path><path d="M389.27,271.93c-.11.28-.1.56,0,.61s.34-.12.46-.4.11-.55,0-.61S389.39,271.65,389.27,271.93Z" style="fill:#263238"></path><path d="M390,279.23a2.51,2.51,0,0,0,.83,0c.33-.1.79-.19.79-.19l-2,2Z" style="fill:#263238;stroke:#263238;stroke-linecap:round;stroke-linejoin:round"></path><path d="M391.36,267.08s1.64-.6,2.48.13.92,1.34.06,2.13-1.09,1.79-.76,2.26,1.65,1.31,1.69,1.67a2.82,2.82,0,0,0,.25.77s.83-.94,1.3-.36a1.89,1.89,0,0,1-.48,2.28l1.15,2a10.25,10.25,0,0,1,2-3.26c1.3-1.26,3.06-4.54,2.27-6.07s-2.42-2-2.7-2.56.16-1.51-1.21-2.23-2.42.08-3.13.06-.6-1-1.91-.7-2.52.9-2.62,2S391.36,267.08,391.36,267.08Z" style="fill:#263238;stroke:#263238;stroke-linecap:round;stroke-linejoin:round"></path><path d="M380.71,298.58l-2.53-1.72a10.22,10.22,0,0,0-1.93,1.33,6.37,6.37,0,0,0-.53,2.52,22.67,22.67,0,0,0,3.58.27S379.66,298.51,380.71,298.58Z" style="fill:#fff;stroke:#263238;stroke-linecap:round;stroke-linejoin:round"></path><path d="M398.74,290.29l-2.11,11.85s-15.26-3.56-15.92-3.56a1.76,1.76,0,0,0-1.41,2.4c.42,1,19.31,9.18,19.31,9.18s8-20.69,7.9-22-5.4-3.38-5.93-3.51" style="fill:#fff;stroke:#263238;stroke-linecap:round;stroke-linejoin:round"></path></g><g id="freepik--Floor--inject-202"><line x1="457.68" y1="461.15" x2="470.12" y2="461.15" style="fill:none;stroke:#263238;stroke-linecap:round;stroke-linejoin:round"></line><line x1="28.52" y1="461.15" x2="447.57" y2="461.15" style="fill:none;stroke:#263238;stroke-linecap:round;stroke-linejoin:round"></line></g></svg>
