<svg xmlns="http://www.w3.org/2000/svg" viewBox="0 0 750 500"><g id="freepik--background-simple--inject-2"><path d="M692.76,346.24c17.27-32,19.82-68.47,15.77-103.72-3.59-31.26-9-67.11-24.17-95.33C646,75.71,548.89,42.17,470.07,63.66c-32.88,9-55.94,29.75-82.33,49.52-19.52,14.62-40.93,28.9-66.15,31.82-60.39,7-129.12-50-186.39-45s-102,56-104.13,100,41.65,89,37.49,119-31.24,110,76,113,163.48-57,205.14-44S483,439,560,429c50.27-6.52,99.42-31.21,127-73.14Q690.13,351.12,692.76,346.24Z" style="fill:#A60000"></path><path d="M692.76,346.24c17.27-32,19.82-68.47,15.77-103.72-3.59-31.26-9-67.11-24.17-95.33C646,75.71,548.89,42.17,470.07,63.66c-32.88,9-55.94,29.75-82.33,49.52-19.52,14.62-40.93,28.9-66.15,31.82-60.39,7-129.12-50-186.39-45s-102,56-104.13,100,41.65,89,37.49,119-31.24,110,76,113,163.48-57,205.14-44S483,439,560,429c50.27-6.52,99.42-31.21,127-73.14Q690.13,351.12,692.76,346.24Z" style="fill:#fff;opacity:0.8"></path></g><g id="freepik--character-2--inject-2"><path d="M419.31,156.24s4.93.89,0,4.7-14.77,6-17.68,6.49-5.6.9-5.6.9l-.9-10.3S413.27,153.77,419.31,156.24Z" style="fill:#fff"></path><path d="M396,168.83a.51.51,0,0,1-.31-.11.48.48,0,0,1-.19-.35l-.89-10.3a.49.49,0,0,1,.38-.53c.74-.18,18.27-4.24,24.44-1.79.38.08,2.17.51,2.5,1.86.26,1.09-.5,2.3-2.34,3.72-5.14,4-15.44,6.21-17.92,6.59-2.9.45-5.59.9-5.59.9Zm-.36-10.41.81,9.32c.93-.15,2.94-.48,5.07-.8,2.42-.38,12.48-2.55,17.46-6.4,1.92-1.49,2.06-2.32,2-2.69-.16-.68-1.35-1-1.76-1.12l-.09,0C413.8,154.53,398.42,157.8,395.67,158.42Z" style="fill:#263238"></path><path d="M312.59,368.35c.17,1,1,58,1.12,67.32H452.9c.18-.49.35-1,.51-1.57,0,0-4.2-47.64-4.39-48.6s-.57-56.59-.57-56.59l33.16-8.58s-.57-7.24-5.72-21.15-23.06-24.58-23.06-24.58-12.57-19.25-27.25-31.25a157,157,0,0,0-28.2-18.48l-70.31-4.58s-25.35,17.53-35.45,33.54S280,295,285.91,310.23,312.39,367.21,312.59,368.35Z" style="fill:#A60000"></path><path d="M452.9,436.17H313.71a.5.5,0,0,1-.5-.49c-.43-30.22-1-65.87-1.12-67.23-.17-.59-2.78-6.05-5.79-12.37-6.75-14.16-16.94-35.56-20.86-45.66-5.63-14.54-5-39.78,5.76-56.86,10-15.91,35.33-33.5,35.58-33.68a.59.59,0,0,1,.32-.09l70.31,4.58a.41.41,0,0,1,.19,0A158.9,158.9,0,0,1,425.9,243c14,11.49,26.3,29.78,27.29,31.27,1.45.89,18.22,11.4,23.17,24.78,5.11,13.82,5.72,21,5.75,21.28a.5.5,0,0,1-.38.53L449,329.3c.14,19.14.42,55,.57,56.12.18.94,4,43.75,4.38,48.63a.55.55,0,0,1,0,.18c-.15.55-.32,1.08-.52,1.61A.5.5,0,0,1,452.9,436.17Zm-138.7-1H452.55c.13-.37.24-.74.35-1.12-1.45-16.42-4.21-47.55-4.37-48.45s-.54-51-.58-56.69a.5.5,0,0,1,.38-.49L481.06,320c-.2-1.72-1.26-8.77-5.64-20.6-5-13.59-22.66-24.22-22.84-24.33a.41.41,0,0,1-.16-.16c-.13-.19-12.71-19.32-27.15-31.13a157.73,157.73,0,0,0-28-18.38l-70-4.56c-2.06,1.45-25.62,18.18-35.16,33.3-10.47,16.59-11.1,42-5.68,56,3.91,10.08,14.09,31.45,20.83,45.6,4.39,9.19,5.81,12.2,5.88,12.62h0C313.25,369.31,314,419.08,314.2,435.17Z" style="fill:#263238"></path><path d="M448.15,301.63a.45.45,0,0,1-.16,0,.49.49,0,0,1-.33-.4c-2.53-17.25-14.07-37.32-18.92-45.15a.5.5,0,0,1,.17-.69.49.49,0,0,1,.68.16c6,9.62,16.21,28,18.92,44.63,1.94-1.63,7.66-6,14.62-7a.5.5,0,0,1,.56.42.49.49,0,0,1-.42.57c-8.1,1.22-14.71,7.33-14.77,7.4A.56.56,0,0,1,448.15,301.63Z" style="fill:#263238"></path><path d="M428,254.41a.51.51,0,0,1-.43-.23c-1.1-1.73-1.77-2.71-1.77-2.71a.5.5,0,1,1,.82-.57s.68,1,1.8,2.75a.49.49,0,0,1-.16.69A.48.48,0,0,1,428,254.41Z" style="fill:#263238"></path><path d="M448.57,298.08l-.16,0a.5.5,0,0,1-.31-.63,15.86,15.86,0,0,1,6.54-8,.5.5,0,0,1,.56.83,14.78,14.78,0,0,0-6.15,7.5A.5.5,0,0,1,448.57,298.08Z" style="fill:#263238"></path><path d="M457.29,288.92a.5.5,0,0,1-.23-.94,22.78,22.78,0,0,1,3.06-1.33.5.5,0,0,1,.31,1,19.76,19.76,0,0,0-2.91,1.26A.59.59,0,0,1,457.29,288.92Z" style="fill:#263238"></path><path d="M334.23,206.84l-10,15,46.11,32.58,9.15-12.76,10.74,4.16,2.6-7.6,13-3s-12.2-16-13.91-17.73-5.53-1.9-5.53-1.9Z" style="fill:#A60000"></path><path d="M370.32,254.9a.52.52,0,0,1-.29-.09l-46.11-32.58a.51.51,0,0,1-.13-.69l10-15a.5.5,0,0,1,.49-.22l52.1,8.7c.11,0,4,.21,5.8,2s13.46,17.12,14,17.77a.52.52,0,0,1,.08.48.51.51,0,0,1-.36.31l-12.69,3L390.68,246a.5.5,0,0,1-.26.29.48.48,0,0,1-.39,0l-10.38-4-8.92,12.45A.49.49,0,0,1,370.32,254.9ZM324.9,221.69l45.31,32,8.85-12.37a.5.5,0,0,1,.59-.17l10.25,4,2.44-7.1a.49.49,0,0,1,.35-.32l12.21-2.87c-2.25-2.95-11.92-15.58-13.4-17.06s-5.16-1.76-5.19-1.76l-51.84-8.65Z" style="fill:#263238"></path><path d="M395.13,158s8.29,33.58,7.17,41-11.87,22.61-11.87,22.61l-.22,24.19L373,234.38s-26.65-17.69-30.9-20.83a77.35,77.35,0,0,1-7.84-6.71l4.93-15.23L338,173s3.8-16.35,27.31-17.47S395.13,158,395.13,158Z" style="fill:#fff"></path><path d="M390.21,246.3a.47.47,0,0,1-.28-.09l-17.24-11.42c-.27-.17-26.7-17.73-30.92-20.83a78,78,0,0,1-7.89-6.77.5.5,0,0,1-.12-.51l4.89-15.13-1.11-18.49a.76.76,0,0,1,0-.15c0-.16,4.17-16.72,27.78-17.85,23.39-1.11,29.79,2.38,30.05,2.53a.49.49,0,0,1,.24.32c.34,1.37,8.29,33.76,7.17,41.17-1.08,7.14-10.75,21.1-11.86,22.69l-.22,24a.52.52,0,0,1-.27.44A.46.46,0,0,1,390.21,246.3ZM334.8,206.7a80.11,80.11,0,0,0,7.56,6.45c4.2,3.09,30.62,20.63,30.88,20.81l16.48,10.91.21-23.26a.47.47,0,0,1,.09-.28c.11-.15,10.69-15.22,11.78-22.4,1.05-6.9-6.37-37.6-7.1-40.56-1.19-.54-8.44-3.31-29.32-2.31-22.08,1.05-26.54,15.9-26.84,17l1.12,18.5a.63.63,0,0,1,0,.19Z" style="fill:#263238"></path><path d="M381.25,194.13a.5.5,0,0,1,0-1c1.94-.06,7.34-.49,8.88-1.69,1.1-.85-.17-11.1-2-20.11a.5.5,0,0,1,1-.19c.91,4.53,3.7,19.46,1.61,21.09s-9.17,1.89-9.47,1.9Z" style="fill:#263238"></path><path d="M376,171.09s-5.35-2.59-9.33-1-6.22,4.14-5.18,4.66,2.76-1.73,6.22-1.9,5.36.52,7.6-.17S376,171.09,376,171.09Z" style="fill:#263238"></path><path d="M361.8,175.3a1.24,1.24,0,0,1-.56-.13.92.92,0,0,1-.53-.91c.06-1.36,2.64-3.45,5.75-4.67,4.13-1.61,9.51.94,9.73,1l0,0c.08,0,.85.49.77,1.2s-1.19,1.15-1.56,1.27a11.42,11.42,0,0,1-4.21.26,27.85,27.85,0,0,0-3.52-.07,9.3,9.3,0,0,0-4.12,1.32A4.22,4.22,0,0,1,361.8,175.3Zm7.72-5.24a7.43,7.43,0,0,0-2.69.46c-3.53,1.38-5.19,3.36-5.12,3.8.2.07.79-.24,1.4-.56a10.23,10.23,0,0,1,4.54-1.44,29.48,29.48,0,0,1,3.63.07,10.43,10.43,0,0,0,3.86-.22c.76-.23.86-.43.86-.44s-.16-.13-.26-.19A16.41,16.41,0,0,0,369.52,170.06Z" style="fill:#263238"></path><path d="M388.93,169.19s4-4.66,6.57-4,2.77,4.49,2.25,4.49-.69-2.76-3.29-1.38S391,171.78,388.93,169.19Z" style="fill:#263238"></path><path d="M390.78,170.92a3,3,0,0,1-2.24-1.42.5.5,0,0,1,0-.63c.43-.5,4.27-4.89,7.08-4.14,2.32.62,3,3.37,2.83,4.63-.1.77-.53.85-.71.85-.45,0-.66-.39-.86-.77-.4-.73-.77-1.43-2.19-.67a13.82,13.82,0,0,0-1.67,1.09A4.13,4.13,0,0,1,390.78,170.92Zm-1.19-1.72c1.05,1.17,1.55.8,2.86-.15a13.09,13.09,0,0,1,1.78-1.16c1.78-.95,2.71-.19,3.21.52a4.69,4.69,0,0,0-.36-1.17,2.71,2.71,0,0,0-1.71-1.54C393.64,165.24,390.84,167.83,389.59,169.2Z" style="fill:#263238"></path><path d="M371.14,179.91c0,1.62-.78,2.93-1.73,2.93s-1.73-1.31-1.73-2.93.77-2.94,1.73-2.94S371.14,178.28,371.14,179.91Z" style="fill:#263238"></path><path d="M394.12,176.45c0,1.62-.77,2.94-1.73,2.94s-1.73-1.32-1.73-2.94.78-2.94,1.73-2.94S394.12,174.83,394.12,176.45Z" style="fill:#263238"></path><path d="M367.68,186.11a.51.51,0,0,1-.17,0l-6.39-2.25a.5.5,0,0,1-.31-.63.51.51,0,0,1,.64-.31l6.4,2.25a.5.5,0,0,1-.17,1Z" style="fill:#263238"></path><path d="M395,181.79a.49.49,0,0,1-.48-.38.5.5,0,0,1,.36-.61l3.46-.86a.48.48,0,0,1,.6.36.5.5,0,0,1-.36.61l-3.46.86Z" style="fill:#263238"></path><path d="M365.61,199.24a.52.52,0,0,1-.45-.26.51.51,0,0,1,.21-.68l5.88-3.11a.49.49,0,0,1,.67.21.49.49,0,0,1-.2.67l-5.88,3.11A.46.46,0,0,1,365.61,199.24Z" style="fill:#263238"></path><path d="M379.27,202.7c-6,0-11.18-4.43-11.4-4.62a.49.49,0,0,1-.05-.7.51.51,0,0,1,.71,0c.05,0,5.28,4.55,11.06,4.37a.49.49,0,0,1,.51.48.5.5,0,0,1-.48.52Z" style="fill:#263238"></path><path d="M377.78,223.31c-3.86,0-5.79-1.44-5.91-1.54a.5.5,0,0,1,.61-.79c.07.06,4.62,3.37,14-.75a.5.5,0,0,1,.66.26.51.51,0,0,1-.26.66A22.87,22.87,0,0,1,377.78,223.31Z" style="fill:#263238"></path><path d="M341.17,171.46s7.62-9,30.23-12.31,28.66-1.57,28.66-1.57-2.91-16.79-6.27-22.62-28.66-9-42.32-2.91-17,20.83-16.57,25.08S338,173,338,173Z" style="fill:#263238"></path><path d="M338,173.53a.5.5,0,0,1-.21-.05.51.51,0,0,1-.28-.34c-.11-.48-2.7-11.72-3.14-16-.54-5.09,3.55-19.69,16.86-25.58,13.51-6,39.36-3.11,43,3.11,3.37,5.84,6.21,22.09,6.33,22.78a.49.49,0,0,1-.16.46.54.54,0,0,1-.47.11c-.06,0-6.31-1.71-28.45,1.58s-29.84,12.06-29.92,12.14a.37.37,0,0,1-.15.13l-3.14,1.57A.59.59,0,0,1,338,173.53Zm32-44.23c-6.54,0-13.24.94-18.39,3.21C338,138.58,335,153.42,335.4,157.08s2.42,12.75,3,15.22l2.48-1.24c.86-1,8.79-9.19,30.47-12.41,18.43-2.74,25.89-2.08,28.11-1.71-.61-3.27-3.2-16.73-6.08-21.73C391.45,131.91,381,129.3,370.06,129.3Zm-28.89,42.16h0Z" style="fill:#263238"></path><path d="M354.16,163.62s8.51,4.71,17,3.36,23.06-6.49,31.79-8.73a65.42,65.42,0,0,1,16.34-2s-12.31-3.81-30.45-1.8S356.17,160.71,354.16,163.62Z" style="fill:#fff"></path><path d="M368,167.73a32.37,32.37,0,0,1-14.05-3.67.47.47,0,0,1-.25-.32.52.52,0,0,1,.08-.4c2.27-3.28,18-7.5,35.06-9.39,18-2,30.53,1.77,30.65,1.81a.5.5,0,0,1,.35.56.52.52,0,0,1-.51.41,66.17,66.17,0,0,0-16.21,2c-3.19.82-7.15,2-11.35,3.31-7.41,2.25-15.06,4.58-20.49,5.44A21.5,21.5,0,0,1,368,167.73Zm-13-4.26c2,1,9.14,4.12,16.14,3,5.35-.85,13.32-3.27,20.35-5.41,4.21-1.28,8.18-2.49,11.4-3.31a67.54,67.54,0,0,1,12.59-1.93,89,89,0,0,0-26.52-.9C371.64,156.86,357.94,160.78,355,163.47Z" style="fill:#263238"></path><path d="M330.87,170.4s-3.11-15.72-.86-23.85,16.59-15.37,16.59-15.37l.86,2.76s-11.4,8.81-13,12.27,2.08,21.43,2.08,21.43Z" style="fill:#b2b2b2"></path><path d="M330.87,170.9a.59.59,0,0,1-.22-.05.5.5,0,0,1-.27-.35c-.13-.65-3.11-15.94-.85-24.08s16.25-15.39,16.84-15.69a.51.51,0,0,1,.42,0,.5.5,0,0,1,.28.32l.87,2.76a.52.52,0,0,1-.17.55c-.12.08-11.33,8.77-12.81,12.07-1.22,2.72,1.11,16.17,2.11,21.13a.51.51,0,0,1-.28.55l-5.7,2.76A.54.54,0,0,1,330.87,170.9Zm15.43-39c-2.58,1.39-13.89,7.84-15.81,14.79s.21,20,.75,23l4.77-2.31c-.53-2.7-3.46-18-2-21.36s11-10.84,12.83-12.24Z" style="fill:#263238"></path><path d="M341.93,197s10.37,8,18.66,10.2,22.64,2.94,26.44,2.25,8-2.42,8-6.05-1.55-3.11-5.53-2.25-12.27,1.38-15.55,2.59a22.48,22.48,0,0,1-10.71,1.56c-3.63-.52-11.58-4.32-13.83-5.53a48.88,48.88,0,0,1-6.05-4.49Z" style="fill:#263238"></path><path d="M382.54,210.21c-6,0-15.66-.78-22.08-2.52-8.29-2.25-18.41-9.95-18.83-10.28a.46.46,0,0,1-.19-.34.5.5,0,0,1,.1-.37l1.38-1.73a.52.52,0,0,1,.35-.18.46.46,0,0,1,.37.12,48.74,48.74,0,0,0,6,4.43c2.62,1.41,10.27,5,13.66,5.47a21.77,21.77,0,0,0,10.47-1.53c2-.74,5.75-1.21,9.37-1.67,2.4-.31,4.67-.59,6.25-.94l.53-.12c2.35-.51,3.77-.82,4.71-.07.62.5.89,1.4.89,2.93,0,4.36-5.23,6-8.36,6.54A29.32,29.32,0,0,1,382.54,210.21Zm-39.89-13.29c2,1.48,10.89,7.86,18.08,9.81,8.31,2.25,22.68,2.88,26.21,2.23,2.82-.51,7.54-1.91,7.54-5.55,0-1.17-.17-1.87-.52-2.15-.56-.45-1.95-.15-3.86.27l-.54.12c-1.62.35-3.91.64-6.33.95-3.56.45-7.25.92-9.16,1.62a22.61,22.61,0,0,1-10.95,1.58c-3.72-.53-11.67-4.33-14-5.58a43.7,43.7,0,0,1-5.75-4.22Z" style="fill:#263238"></path><ellipse cx="339.47" cy="182.37" rx="11.32" ry="16.58" transform="translate(-28.91 69.27) rotate(-11.18)" style="fill:#263238"></ellipse><path d="M341.14,199.29a11,11,0,0,1-7.6-3.51,22.88,22.88,0,0,1-4.66-23.56c1.56-3.64,4.14-6,7.27-6.61s6.42.57,9.25,3.35a21.45,21.45,0,0,1,5.66,11.12c1.83,9.24-1.89,17.78-8.28,19A8.21,8.21,0,0,1,341.14,199.29Zm-3.35-32.84a7.64,7.64,0,0,0-1.44.14c-2.8.55-5.13,2.69-6.55,6a21.89,21.89,0,0,0,4.44,22.46c2.58,2.54,5.55,3.63,8.34,3.08,5.86-1.16,9.22-9.18,7.5-17.88a20.47,20.47,0,0,0-5.38-10.6A10,10,0,0,0,337.79,166.45Z" style="fill:#263238"></path><path d="M342.83,179c1.33,6.74-.89,12.86-5,13.66s-8.45-4-9.78-10.75.89-12.86,5-13.66S341.49,172.23,342.83,179Z" style="fill:#b2b2b2"></path><path d="M337,193.22c-4,0-8.11-4.77-9.39-11.24a17.77,17.77,0,0,1,.47-9.33c1-2.75,2.74-4.5,4.88-4.92,4.34-.85,9,4.14,10.38,11.14a17.77,17.77,0,0,1-.48,9.33c-1,2.75-2.73,4.5-4.88,4.92A5.34,5.34,0,0,1,337,193.22Zm-3-24.59a4.45,4.45,0,0,0-.81.08c-1.79.35-3.26,1.87-4.14,4.28a16.79,16.79,0,0,0-.43,8.79c1.27,6.47,5.4,11.11,9.2,10.36,1.79-.35,3.26-1.88,4.13-4.29a16.77,16.77,0,0,0,.44-8.79C341.15,173.06,337.51,168.63,334,168.63Z" style="fill:#263238"></path><path d="M340.38,133.94s2.59,4.67,3.28,4.49,9.16-5.87,15.21-7.08,14.69-1.9,14.69-1.9l4.66-.18s-2.07-2.93-4.66-3.62-10-2.77-21.43.69C344.33,128.7,339.86,131.35,340.38,133.94Z" style="fill:#263238"></path><path d="M343.61,138.94c-.4,0-1.29-.48-3.67-4.76a.34.34,0,0,1-.05-.14c-.57-2.83,3.5-5.58,12.09-8.18,11.39-3.45,18.81-1.47,21.6-.73l.1,0c2.74.73,4.86,3.7,4.95,3.83a.52.52,0,0,1,0,.51.49.49,0,0,1-.43.27l-4.67.18c-.06,0-8.66.7-14.61,1.89-4.51.9-10.48,4.4-13.35,6.08a11.89,11.89,0,0,1-1.83,1Zm-2.76-5.17a21.67,21.67,0,0,0,2.78,4.13c.25-.12.85-.47,1.47-.84,2.92-1.71,9-5.27,13.67-6.2,6-1.2,14.66-1.9,14.75-1.91l3.69-.14a8.63,8.63,0,0,0-3.78-2.68l-.11,0c-2.72-.73-9.93-2.65-21.05.71C344.68,129.11,340.53,131.65,340.85,133.77Z" style="fill:#263238"></path><path d="M402.15,276.62a.48.48,0,0,1-.26-.07.48.48,0,0,1-.23-.32c-2.25-10.49-11.8-30-11.9-30.21a.5.5,0,1,1,.9-.44c.09.19,9.39,19.2,11.86,29.91l2.25-.66c-.71-2.46-4.1-13.88-7.43-19.21a.5.5,0,0,1,.85-.53c3.8,6.09,7.52,19.39,7.68,20a.5.5,0,0,1-.34.61l-3.24,1A.36.36,0,0,1,402.15,276.62Z" style="fill:#263238"></path><path d="M361.42,319.31s7.32-6.89,12.13-7.52,56.84-3.76,59.14-4.18,8.78-4,21.73-7.52,24.45,3.76,26.54,10.65,1.26,15.26-.83,22.37-10,8.15-23.41,9.4-37.2-2.09-45.14-4-27.59-9-33.86-9.82-14-.42-15.46-3.76A9.25,9.25,0,0,1,361.42,319.31Z" style="fill:#fff"></path><path d="M450,343.28A209.71,209.71,0,0,1,411.47,339c-3.41-.81-8.88-2.55-14.67-4.39-7.66-2.43-15.59-4.95-19.14-5.43-1.51-.2-3.13-.33-4.7-.45-5.11-.41-9.93-.8-11.16-3.6a9.67,9.67,0,0,1-.86-6,.49.49,0,0,1,.14-.23c.3-.29,7.49-7,12.4-7.66C376,311,391.05,310,405.61,309c12.74-.84,25.91-1.71,27-1.9a28.51,28.51,0,0,0,4-1.47,148.46,148.46,0,0,1,17.65-6c13.43-3.68,25,4.06,27.15,11,2.58,8.49.58,17.83-.83,22.65-2.17,7.38-10.07,8.47-23.84,9.76C454.74,343.2,452.45,343.28,450,343.28Zm-88.14-23.71a9.24,9.24,0,0,0,.84,5.19c1,2.25,5.73,2.63,10.32,3,1.58.13,3.21.26,4.75.46,3.64.49,11.61,3,19.32,5.47,5.76,1.83,11.21,3.56,14.59,4.36,8.39,2,31.87,5.2,45,4,13.35-1.25,21-2.28,23-9.05,2.36-8,2.66-16,.84-22.07-2-6.56-13.08-13.85-25.94-10.32a147.42,147.42,0,0,0-17.54,6,28.06,28.06,0,0,1-4.23,1.52c-1.14.21-13.17,1-27.1,1.92-14.55,1-29.59,1.94-32.07,2.27C369.34,312.84,362.82,318.71,361.88,319.57Z" style="fill:#263238"></path><path d="M323.07,362.83s11.81,15,16,15,45.56-7.11,60.61-19.23,37.2-47,39.29-50.57,7.73-4.6,7.73-6.9-6.27-7.1-9.61-7.52-11.92.42-13.8,1.67-11.28,9.2-11.91,9.82-27.58,12.75-29.67,13.59-15.38,3.36-15.38,3.36S331.1,327.76,323.07,362.83Z" style="fill:#fff"></path><path d="M339.06,378.33c-4.3,0-15.16-13.64-16.39-15.19a.49.49,0,0,1-.09-.42c8-35,43.31-41.11,43.66-41.16.12,0,13.25-2.53,15.27-3.34,2.48-1,28.5-12.73,29.54-13.5.53-.54,10-8.57,12-9.86s10.84-2.16,14.13-1.75c3.46.43,10.05,5.3,10.05,8,0,1.43-1.54,2.35-3.32,3.4s-3.5,2.08-4.48,3.75C436.61,313,414.8,347.06,400,359,384.53,371.44,342.56,378.33,339.06,378.33Zm-15.45-15.62c3.36,4.24,12.27,14.62,15.45,14.62,3.47,0,45-6.81,60.3-19.12,14.7-11.84,36.4-45.73,39.17-50.44,1.11-1.89,3.09-3.06,4.83-4.1,1.52-.9,2.83-1.68,2.83-2.54,0-1.82-5.85-6.61-9.18-7s-11.74.46-13.45,1.6c-1.91,1.27-11.28,9.2-11.83,9.76-.82.81-29.58,13.58-29.85,13.69-2.11.85-14.92,3.29-15.46,3.39C366.05,322.6,331.58,328.59,323.61,362.71Z" style="fill:#263238"></path><path d="M317.92,251.35s-20,5-26.68,21.15-6.86,34.3,3.43,47.26,27.25,41.73,28.4,43.07a26.64,26.64,0,0,1,2.09,2.86s13.15-26.11,22.87-33.16a94.85,94.85,0,0,1,18.29-10.48L356,305.85s-.19-18.29-4.38-28.77a27.27,27.27,0,0,0-12.77-14.29" style="fill:#A60000"></path><path d="M325.16,366.19a.49.49,0,0,1-.42-.24,28.3,28.3,0,0,0-2.05-2.8c-.33-.37-1.54-2.33-4-6.37-5.91-9.54-16.9-27.3-24.37-36.71-9.55-12-10.86-29.88-3.5-47.76,6.69-16.24,26.82-21.39,27-21.44a.5.5,0,0,1,.61.36.51.51,0,0,1-.37.61c-.2,0-19.84,5.09-26.33,20.86-7.23,17.53-6,35,3.35,46.75,7.51,9.46,18.52,27.24,24.44,36.8,2,3.31,3.66,5.92,3.95,6.25.66.78,1.26,1.62,1.66,2.19,2.29-4.44,13.74-26.12,22.62-32.57a98.74,98.74,0,0,1,17.85-10.3l-10-15.7a.5.5,0,0,1-.08-.26c0-.19-.24-18.32-4.35-28.6a27.09,27.09,0,0,0-12.5-14,.49.49,0,0,1-.25-.66.5.5,0,0,1,.66-.25,27.56,27.56,0,0,1,13,14.56c4,10,4.39,27.07,4.42,28.81l10.21,16.08a.52.52,0,0,1,.06.42.5.5,0,0,1-.29.31,95.89,95.89,0,0,0-18.19,10.42c-9.51,6.9-22.58,32.72-22.71,33a.51.51,0,0,1-.43.28Z" style="fill:#263238"></path><path d="M349.73,302.48a.52.52,0,0,1-.29-.09c-3.77-2.62-9.61-5.72-16.09-5.58a.5.5,0,1,1,0-1c6.73-.13,12.79,3.06,16.68,5.76a.5.5,0,0,1-.28.91Z" style="fill:#263238"></path><path d="M354.07,306a.47.47,0,0,1-.35-.15s-.59-.59-1.62-1.44a.49.49,0,0,1-.06-.7.5.5,0,0,1,.7-.07c1.07.89,1.66,1.48,1.68,1.5a.5.5,0,0,1,0,.71A.47.47,0,0,1,354.07,306Z" style="fill:#263238"></path><path d="M360,294.35h0a.51.51,0,0,1-.5-.51c.19-18.44-12.3-31.15-12.43-31.27a.5.5,0,0,1,.71-.71c.13.13,12.91,13.14,12.72,32A.5.5,0,0,1,360,294.35Z" style="fill:#263238"></path><path d="M361.37,302.35a.41.41,0,0,1-.16,0,.49.49,0,0,1-.32-.63,28.1,28.1,0,0,0,1-3.81.5.5,0,0,1,1,.18,28.35,28.35,0,0,1-1,3.95A.49.49,0,0,1,361.37,302.35Z" style="fill:#263238"></path><path d="M363,293.67h0a.52.52,0,0,1-.46-.54,80.73,80.73,0,0,0-.09-12.95.51.51,0,0,1,.45-.55.5.5,0,0,1,.55.45,83,83,0,0,1,.09,13.13A.5.5,0,0,1,363,293.67Z" style="fill:#263238"></path><path d="M343.66,376.87a.49.49,0,0,1-.49-.42.5.5,0,0,1,.4-.58c.09,0,8.35-1.47,12.62-3.51s11-6,11-6a.49.49,0,0,1,.68.18.48.48,0,0,1-.17.68c-.07,0-6.76,4-11.12,6.08s-12.53,3.54-12.87,3.6Z" style="fill:#263238"></path></g></svg>