<svg xmlns="http://www.w3.org/2000/svg" viewBox="0 0 500 500"><g id="freepik--Lines--inject-102"><g id="freepik--Shine--inject-102"><path d="M169.75,271.29a21.32,21.32,0,0,1-3.75,4.62l-4.15,4.22c-2.76,2.82-5.57,5.6-8.36,8.39l-16.87,16.62L119.68,321.7q-8.49,8.26-17,16.45l-.08-.08q8.19-8.55,16.45-17l16.56-16.94,16.62-16.87c2.79-2.79,5.57-5.6,8.39-8.36l4.22-4.15a21.32,21.32,0,0,1,4.62-3.75Z" style="fill:#e0e0e0"></path><path d="M208,293.25a21.77,21.77,0,0,1-.94,5.88l-1.49,5.73c-1,3.82-2,7.63-3,11.45l-6.3,22.83L189.87,362q-3.21,11.39-6.53,22.77l-.11,0q2.84-11.51,5.73-23l5.87-22.95,6-22.92c1-3.81,2-7.63,3.09-11.43l1.58-5.71a21.26,21.26,0,0,1,2.12-5.56Z" style="fill:#e0e0e0"></path><path d="M309,289.61a11.2,11.2,0,0,1,3.46,2.58l3.05,3c2.05,2,4.05,4,6.06,6l12,12.21,11.9,12.27q5.93,6.17,11.79,12.38l-.08.08q-6.22-5.86-12.38-11.79l-12.28-11.89-12.21-12c-2-2-4-4-6-6.06l-3-3.06a11.18,11.18,0,0,1-2.59-3.45Z" style="fill:#e0e0e0"></path><path d="M331.49,238.84a13.41,13.41,0,0,1,4.67.55l4.53,1.11c3,.72,6,1.5,9.05,2.27l18,4.76,18,4.85q9,2.44,18,5l0,.11q-9.11-2.06-18.18-4.19L367.41,249l-18.12-4.42c-3-.76-6-1.51-9-2.32l-4.5-1.19a13.43,13.43,0,0,1-4.37-1.74Z" style="fill:#e0e0e0"></path><path d="M203.83,114.53a15.45,15.45,0,0,1-1.89-4.68L200.6,105c-.91-3.21-1.76-6.45-2.63-9.68l-5-19.42L188,56.46q-2.44-9.72-4.8-19.48l.11,0q2.85,9.61,5.6,19.27l5.45,19.3,5.36,19.34c.87,3.22,1.75,6.45,2.57,9.69l1.26,4.86a15.13,15.13,0,0,1,.7,5Z" style="fill:#e0e0e0"></path><path d="M169.42,150.71A21.62,21.62,0,0,1,164.8,147l-4.22-4.16c-2.82-2.76-5.6-5.56-8.39-8.35l-16.62-16.88L119,100.63q-8.26-8.47-16.45-17l.08-.08q8.55,8.2,17,16.46l16.94,16.55,16.87,16.62c2.79,2.79,5.6,5.57,8.36,8.4l4.15,4.21a21.14,21.14,0,0,1,3.75,4.63Z" style="fill:#e0e0e0"></path><path d="M116.86,180.79a9.51,9.51,0,0,1-4-.42l-3.82-1c-2.55-.64-5.08-1.33-7.62-2l-15.19-4.26-15.15-4.34Q63.54,166.59,56,164.3l0-.11q7.68,1.8,15.34,3.68l15.3,3.82,15.27,3.91c2.54.68,5.08,1.34,7.61,2.06l3.8,1.07a9.58,9.58,0,0,1,3.65,1.61Z" style="fill:#e0e0e0"></path><path d="M147.58,233.13a21.39,21.39,0,0,1-5.56,2.12l-5.71,1.58c-3.8,1.06-7.62,2.07-11.43,3.09l-22.92,6L79,251.75q-11.49,2.91-23,5.73l0-.11q11.38-3.31,22.77-6.53l22.81-6.4,22.83-6.3c3.82-1,7.62-2.06,11.45-3l5.73-1.49a21.77,21.77,0,0,1,5.88-.94Z" style="fill:#e0e0e0"></path></g></g><g id="freepik--Candles--inject-102"><g id="freepik--Candle--inject-102"><path d="M61.67,339.54a4.75,4.75,0,0,1,3.77,3c0,1.21-1.09,3.39-6.53,3.37v-6.41Z" style="fill:#e6e6e6"></path><path d="M61.67,339.54a4.75,4.75,0,0,1,3.77,3c0,1.21-1.09,3.39-6.53,3.37v-6.41Z" style="fill:#fff;opacity:0.2"></path><path d="M58.91,346v-5H63a3.79,3.79,0,0,1-1.85,1.84,1.17,1.17,0,0,0-.38,2.09c.47.29,4-.36,4.65-2.26C65.44,343.79,64.35,346,58.91,346Z" style="fill:#e6e6e6"></path><path d="M58.91,338.5c2.87,0,4.14,1.51,4.11,2.41a4.58,4.58,0,0,1-4.11,1.67Z" style="fill:#e6e6e6"></path><path d="M58.91,338.5c2.87,0,4.14,1.51,4.11,2.41a4.58,4.58,0,0,1-4.11,1.67Z" style="fill:#fff;opacity:0.2"></path><path d="M62.83,340.24c-.66-.77-1.95-1.27-3.92-1.19l0-.55C61.15,338.51,62.39,339.41,62.83,340.24Z" style="fill:#e6e6e6"></path><path d="M16.4,336.31a7.13,7.13,0,0,0-5.66,4.58c0,1.82,1.63,5.08,9.82,5.06v-9.64Z" style="fill:#e6e6e6"></path><path d="M16.4,336.31a7.13,7.13,0,0,0-5.66,4.58c0,1.82,1.63,5.08,9.82,5.06v-9.64Z" style="fill:#fff;opacity:0.2"></path><path d="M20.56,346v-7.57H14.37a5.72,5.72,0,0,0,2.78,2.75c2,.93,1.28,2.7.58,3.14s-6-.53-7-3.38C10.74,342.71,12.37,346,20.56,346Z" style="fill:#e6e6e6"></path><path d="M20.56,334.75c-4.33,0-6.23,2.28-6.19,3.63a7,7,0,0,0,6.19,2.51Z" style="fill:#e6e6e6"></path><path d="M20.56,334.75c-4.33,0-6.23,2.28-6.19,3.63a7,7,0,0,0,6.19,2.51Z" style="fill:#fff;opacity:0.2"></path><path d="M14.66,337.36c1-1.15,2.93-1.9,5.9-1.77l-.07-.84C17.18,334.76,15.32,336.12,14.66,337.36Z" style="fill:#e6e6e6"></path><path d="M58.42,288l-.53.49-.11.11a.11.11,0,0,0,0,0,1.31,1.31,0,0,0-.12.11,8.7,8.7,0,0,0-.72.85l-.23.31c-.1.15-.19.29-.28.45a.16.16,0,0,0,0,.07c-.08.13-.15.27-.22.4a2,2,0,0,0-.11.26,1.72,1.72,0,0,0-.1.26c-.81,2.24-1.79,3.92-3.08,4.41a24.67,24.67,0,0,0-5.86,3,8.7,8.7,0,0,0-1.47,1.69c-.27.36-.55.74-.87,1.09A6.19,6.19,0,0,1,39.58,304a6.29,6.29,0,0,1-4.16-1.49c-.3-.27-.61-.61-1-1s-.65-.72-1-1.09a11.37,11.37,0,0,0-1.44-1.38c-2.33-1.72-3.61-1.78-5.73-2.22-1.88-.39-4-.71-5.3-2.66,0,0,0,0,0,0a6.82,6.82,0,0,1-.91-3.36v55A7.14,7.14,0,0,0,21.52,350a13.17,13.17,0,0,0,4.29,3.69c7.61,4.34,19.94,4.34,27.55,0,3.81-2.18,5.71-5,5.71-7.87V287.48S58.81,287.67,58.42,288Z" style="fill:#e6e6e6"></path><path d="M39,350.76c-.2.53-1.51,1.66-1.79,2.26a2.37,2.37,0,0,1-1.62,1.4,9.92,9.92,0,0,0-2.87.92c-.92.51-8.32-2-11-5a13.29,13.29,0,0,0,4.06,3.41,27.9,27.9,0,0,0,12.94,3.23Z" style="opacity:0.15"></path><path d="M39.58,357a33.06,33.06,0,0,0,6.71-.69c-.22-1.28-3.16-1.37-3.63-2.19s-1.57-2-1.57-3.32v-44.1c0-1.83.07-2.79,1.31-3.24h0a6.22,6.22,0,0,1-2.79.61Z" style="opacity:0.15"></path><path d="M29.41,297.79c-.58.1-1,1.2-1,3.08v7.64c0,.7,1.15,2.3-.27,3l-.54-.52v-13.2Z" style="opacity:0.15"></path><path d="M56.68,279.71c-1.27-.72-1.22-4.7-3-5.32S49.4,276.5,47.66,277s-3.12,2.57-8,2.71A28.38,28.38,0,0,0,25.81,283c-5.33,3-6.92,7.4-4.8,11.23,0,0,0,0,0,0,1.28,1.95,3.42,2.27,5.3,2.66h0c1.06.21.95,2.06.95,3.6v8a16.48,16.48,0,0,1-.47,2.21.89.89,0,1,0,1.76,0,15,15,0,0,1-.47-2.21v-7c0-1.54-.12-3.4.95-3.6a2.08,2.08,0,0,1,1.05.09,12.07,12.07,0,0,1,2,1.19,11.37,11.37,0,0,1,1.44,1.38c.33.37.66.75,1,1.09s.65.7,1,1a6,6,0,0,0,2.84,1.35h0c.88.12.87,1.85.87,4.57V350c0,1.53-1.24,2.5-1.65,3.67s-1.33,1.18-2.47,1.36a3.47,3.47,0,0,0-2.19,1.21c-.81,1-.55,3.22,6.89,3.34,7.18.09,7.48-2.94,6.61-3.29a14.79,14.79,0,0,0-1.9-.93c-1.07-.44-2.06-.52-2.47-1.69s-1.66-2.14-1.66-3.67V308.47c0-2.72,0-4.49.89-4.6h0a6.31,6.31,0,0,0,3.5-2.29c.32-.35.6-.73.87-1.09A8.7,8.7,0,0,1,47,298.79a24.67,24.67,0,0,1,5.86-3c1.29-.49,2.27-2.17,3.08-4.41A6.59,6.59,0,0,1,57,289.5l.21-.27.53-.59.15-.15.53-.49c.39-.33.65-.52.65-.52V285C59.07,281.66,58,280.44,56.68,279.71Z" style="fill:#e6e6e6"></path><path d="M56.68,279.71c-1.27-.72-1.22-4.7-3-5.32S49.4,276.5,47.66,277s-3.12,2.57-8,2.71A28.38,28.38,0,0,0,25.81,283c-5.33,3-6.92,7.4-4.8,11.23,0,0,0,0,0,0,1.28,1.95,3.42,2.27,5.3,2.66h0c1.06.21.95,2.06.95,3.6v8a16.48,16.48,0,0,1-.47,2.21.89.89,0,1,0,1.76,0,15,15,0,0,1-.47-2.21v-7c0-1.54-.12-3.4.95-3.6a2.08,2.08,0,0,1,1.05.09,12.07,12.07,0,0,1,2,1.19,11.37,11.37,0,0,1,1.44,1.38c.33.37.66.75,1,1.09s.65.7,1,1a6,6,0,0,0,2.84,1.35h0c.88.12.87,1.85.87,4.57V350c0,1.53-1.24,2.5-1.65,3.67s-1.33,1.18-2.47,1.36a3.47,3.47,0,0,0-2.19,1.21c-.81,1-.55,3.22,6.89,3.34,7.18.09,7.48-2.94,6.61-3.29a14.79,14.79,0,0,0-1.9-.93c-1.07-.44-2.06-.52-2.47-1.69s-1.66-2.14-1.66-3.67V308.47c0-2.72,0-4.49.89-4.6h0a6.31,6.31,0,0,0,3.5-2.29c.32-.35.6-.73.87-1.09A8.7,8.7,0,0,1,47,298.79a24.67,24.67,0,0,1,5.86-3c1.29-.49,2.27-2.17,3.08-4.41A6.59,6.59,0,0,1,57,289.5l.21-.27.53-.59.15-.15.53-.49c.39-.33.65-.52.65-.52V285C59.07,281.66,58,280.44,56.68,279.71Z" style="fill:#fff;opacity:0.45"></path><path d="M36.34,292.69a7.26,7.26,0,0,0,6.49,0c1.79-1,1.79-2.68,0-3.71a7.26,7.26,0,0,0-6.49,0C34.54,290,34.54,291.67,36.34,292.69Z" style="fill:#e0e0e0"></path><path d="M39.69,279.71A28.38,28.38,0,0,0,25.81,283c-5.33,3-6.92,7.4-4.8,11.23,0,0,0,0,0,0,1.28,1.95,3.42,2.27,5.3,2.66h0c1.06.21.95,2.06.95,3.6v8a16.48,16.48,0,0,1-.47,2.21,1,1,0,0,0,.88,1,.9.9,0,0,0,.82-.64h0a.57.57,0,0,1-.92,0c-.47-.55.05-.95.05-1.77V302.2a28.85,28.85,0,0,0-.15-5.09c-.36-1.08-2.09-.79-3.92-1.72-2-1.05-3.19-4.11-1.7-7.49s7-5.46,10-6.47,9.79-.84,11.83-1.28,2.66-1.74,4.13-2.34,1.34-1.57,2.22-2.13h0a10.46,10.46,0,0,1-2.4,1.32C45.92,277.5,44.54,279.57,39.69,279.71Z" style="fill:#fff;opacity:0.5"></path><path d="M44.65,301.57c.32-.35.6-.73.87-1.09A8.7,8.7,0,0,1,47,298.79a24.67,24.67,0,0,1,5.86-3c1.29-.49,2.27-2.17,3.08-4.41A6.59,6.59,0,0,1,57,289.5l.21-.27.53-.59.15-.15.53-.49c.39-.33.65-.52.65-.52V285c0-3.29-1.12-4.51-2.39-5.24-.89-.51-1.13-2.6-1.8-4,.21,1.15-.17,3.31.39,4.25s2.27,1,2.68,2.34.58,3.89-.32,4.89a11.22,11.22,0,0,0-2.75,4.39c-.39,1.72-1.4,3-4,3.95a12.32,12.32,0,0,0-6.3,4.39,8.34,8.34,0,0,1-3.76,2.89c-.57.39-1.07,1-1.07,3.62v45.23c0,.94,1.31,2.09,1.35,2.94s1.51,1.5,2.81,1.75,2.62,1.31,1.7,2.12c1.29-.87,1.18-1.92.68-2.12a14.79,14.79,0,0,0-1.9-.93c-1.07-.44-2.06-.52-2.47-1.69s-1.66-2.14-1.66-3.67V308.47c0-2.72,0-4.49.89-4.6h0A6.31,6.31,0,0,0,44.65,301.57Z" style="fill:#fff;opacity:0.5"></path><path d="M33.49,300.48c.33.37.66.75,1,1.09s.65.7,1,1a6,6,0,0,0,2.84,1.35h0a.69.69,0,0,1,.53.44h0c-.21-.76-.61-1.07-1.71-1.46s-1.63-1.39-2.65-2.37a31.13,31.13,0,0,0-3-2.66,2,2,0,0,0-2.76.2h0a.82.82,0,0,1,.43-.23,2.08,2.08,0,0,1,1.05.09,12.07,12.07,0,0,1,2,1.19A11.37,11.37,0,0,1,33.49,300.48Z" style="fill:#fff;opacity:0.5"></path><path d="M46.58,357.31c-.62.88-2.41,1.64-5.18,1.63s-5.53-.24-6.41-1-.54-1.89.94-2.12,1.45.52,3.83.42,2.53-1.07,2.53-1.07c-1.41.88-4.48.39-4.58-.16a6.64,6.64,0,0,1,.72-3h0a8.83,8.83,0,0,0-1,1.69c-.42,1.17-1.33,1.18-2.47,1.36a3.47,3.47,0,0,0-2.19,1.21c-.81,1-.55,3.22,6.89,3.34C44.55,359.67,46.25,358.31,46.58,357.31Z" style="opacity:0.15"></path><path d="M40.85,282.1c-5.39-.5-14.73,1.55-17.21,6.11s1.14,6.64,1.14,6.64-2-4,2.46-7.37A27.43,27.43,0,0,1,40.85,282.1Z" style="opacity:0.05"></path><path d="M46.82,282.33c6.44.88,8.66,4.13,8.46,6.36,0,0,1.74-1.53,1.74-2.81s-1.68-2.35-2.48-3.28-.69-3.86-2.21-3.86S50.65,281.85,46.82,282.33Z" style="opacity:0.05"></path><g id="freepik--Flame--inject-102"><path d="M39.45,284.55c-2.94-.21-5.08-3.47-3-8s3.34-7,2.58-11.63a27.6,27.6,0,0,1,3.42,6.84A24.24,24.24,0,0,1,44,278.3C44.32,282.5,42.24,284.55,39.45,284.55Z" style="fill:#FFAE0E"></path><path d="M39.45,284.55c-2.94-.21-5.08-3.47-3-8s3.34-7,2.58-11.63a27.6,27.6,0,0,1,3.42,6.84A24.24,24.24,0,0,1,44,278.3C44.32,282.5,42.24,284.55,39.45,284.55Z" style="fill:#fff;opacity:0.6000000000000001"></path><path d="M39.5,284.27c-.94-.08-1.92-1.21-2.38-2.11a6.16,6.16,0,0,1,.34-5.2l.32-.72a25.77,25.77,0,0,0,2.42-7c.38.82.78,1.76,1.16,2.82a23.67,23.67,0,0,1,1.51,6.29,5.67,5.67,0,0,1-.9,4.22A4.31,4.31,0,0,1,39.5,284.27Z" style="fill:#fff;opacity:0.8"></path><path d="M39.35,284.12A2.93,2.93,0,0,1,38.22,281c.28-1.48,1.7-3.44,1.7-4.1a12.08,12.08,0,0,1,1.34,3.87A3,3,0,0,1,39.35,284.12Z" style="fill:#FFAE0E"></path><path d="M39.35,284.12A2.93,2.93,0,0,1,38.22,281c.28-1.48,1.7-3.44,1.7-4.1a12.08,12.08,0,0,1,1.34,3.87A3,3,0,0,1,39.35,284.12Z" style="opacity:0.15"></path><path d="M39.45,291a.8.8,0,0,1-.66-.53,5.73,5.73,0,0,1-.23-.7,6,6,0,0,1-.14-1.46,9.49,9.49,0,0,1,.15-1.43c.08-.46.17-.91.27-1.36.2-.89.44-1.75.58-2.63a14.15,14.15,0,0,0,.13-2.69h.07a11.4,11.4,0,0,1,.31,2.74,27.11,27.11,0,0,1-.23,2.74c0,.44-.09.89-.12,1.33a7.81,7.81,0,0,0,0,1.28c0,.42.09.83.16,1.24,0,.2.07.41.12.6a.88.88,0,0,1-.14.73Z" style="fill:#e0e0e0"></path><path d="M39.45,291a.8.8,0,0,1-.66-.53,5.73,5.73,0,0,1-.23-.7,6,6,0,0,1-.14-1.46,9.49,9.49,0,0,1,.15-1.43c.08-.46.17-.91.27-1.36.2-.89.44-1.75.58-2.63a14.15,14.15,0,0,0,.13-2.69h.07a11.4,11.4,0,0,1,.31,2.74,27.11,27.11,0,0,1-.23,2.74c0,.44-.09.89-.12,1.33a7.81,7.81,0,0,0,0,1.28c0,.42.09.83.16,1.24,0,.2.07.41.12.6a.88.88,0,0,1-.14.73Z" style="opacity:0.15"></path></g></g><g id="freepik--candle--inject-102"><path d="M98.51,344.17a4.74,4.74,0,0,1,3.77,3c0,1.21-1.09,3.38-6.54,3.37v-6.41Z" style="fill:#e6e6e6"></path><path d="M98.51,344.17a4.74,4.74,0,0,1,3.77,3c0,1.21-1.09,3.38-6.54,3.37v-6.41Z" style="fill:#fff;opacity:0.2"></path><path d="M95.74,350.58v-5h4.12A3.75,3.75,0,0,1,98,347.37a1.17,1.17,0,0,0-.38,2.09c.47.3,4-.35,4.65-2.25C102.28,348.42,101.19,350.59,95.74,350.58Z" style="fill:#e6e6e6"></path><path d="M95.74,343.12c2.88,0,4.15,1.52,4.12,2.42a4.62,4.62,0,0,1-4.12,1.67Z" style="fill:#e6e6e6"></path><path d="M95.74,343.12c2.88,0,4.15,1.52,4.12,2.42a4.62,4.62,0,0,1-4.12,1.67Z" style="fill:#e6e6e6"></path><path d="M95.74,343.12c2.88,0,4.15,1.52,4.12,2.42a4.62,4.62,0,0,1-4.12,1.67Z" style="fill:#fff;opacity:0.2"></path><path d="M99.67,344.86c-.66-.76-2-1.26-3.93-1.18l.05-.55C98,343.14,99.23,344,99.67,344.86Z" style="fill:#e6e6e6"></path><path d="M95.26,325.94c-.15.14-.34.31-.53.5a.57.57,0,0,0-.11.11l0,0-.12.11a7.5,7.5,0,0,0-.72.85c-.08.1-.15.21-.23.32s-.19.29-.28.44l0,.07-.21.4a1.19,1.19,0,0,0-.11.26,1.48,1.48,0,0,0-.1.27c-.81,2.24-1.79,3.91-3.08,4.41a25,25,0,0,0-5.86,3,9,9,0,0,0-1.47,1.69c-.27.36-.55.74-.87,1.1a6.48,6.48,0,0,1-9.23,1c-.3-.27-.61-.6-1-1l-1-1.1a11.24,11.24,0,0,0-1.44-1.37c-2.33-1.72-3.61-1.78-5.74-2.23-1.87-.39-4-.7-5.29-2.66a0,0,0,0,1,0,0,6.88,6.88,0,0,1-.91-3.37v21.68a7.14,7.14,0,0,0,1.42,4.18,13.29,13.29,0,0,0,4.29,3.69c7.6,4.34,19.94,4.34,27.55,0,3.81-2.18,5.71-5,5.71-7.87v-25S95.65,325.62,95.26,325.94Z" style="fill:#e6e6e6"></path><path d="M75.86,355.38c-.2.53-1.51,1.67-1.79,2.26a2.41,2.41,0,0,1-1.62,1.41,9.87,9.87,0,0,0-2.87.91c-.92.52-8.32-2-11-5a13.43,13.43,0,0,0,4.06,3.41,27.9,27.9,0,0,0,12.94,3.23Z" style="opacity:0.15"></path><path d="M76.42,361.58a33.06,33.06,0,0,0,6.71-.68c-.22-1.28-3.16-1.37-3.63-2.19s-1.57-2-1.57-3.32V344.61c0-1.83.07-2.8,1.31-3.24h0a6.22,6.22,0,0,1-2.79.61Z" style="opacity:0.15"></path><path d="M66.25,335.73c-.58.11-1,1.21-1,3.08v7.64c0,.7,1.14,2.31-.27,3l-.54-.53v-13.2Z" style="opacity:0.15"></path><path d="M93.52,317.66c-1.28-.73-1.22-4.71-3-5.32s-4.31,2.11-6,2.6-3.13,2.57-8,2.71a28.49,28.49,0,0,0-13.88,3.26c-5.33,3-6.92,7.4-4.8,11.24a0,0,0,0,0,0,0c1.28,2,3.42,2.27,5.29,2.66h0c1.06.22,1,2.07,1,3.6v8a15.93,15.93,0,0,1-.47,2.2.89.89,0,1,0,1.76,0,14.56,14.56,0,0,1-.47-2.2v-7c0-1.54-.12-3.39.95-3.6a2.05,2.05,0,0,1,1.05.1,10.8,10.8,0,0,1,2,1.19,11.24,11.24,0,0,1,1.44,1.37l1,1.1c.34.36.65.69,1,1a6.16,6.16,0,0,0,2.84,1.36h0c.88.11.87,1.85.87,4.56v8.25c0,1.53-1.24,2.5-1.66,3.67s-1.32,1.18-2.46,1.36a3.45,3.45,0,0,0-2.19,1.2c-.81,1-.55,3.23,6.89,3.35,7.17.09,7.48-2.94,6.61-3.29a14.79,14.79,0,0,0-1.9-.93c-1.07-.44-2.06-.52-2.47-1.69s-1.66-2.14-1.66-3.67v-8.25c0-2.71,0-4.48.89-4.6h0a6.35,6.35,0,0,0,3.5-2.28c.32-.36.6-.74.87-1.1a9,9,0,0,1,1.47-1.69,25,25,0,0,1,5.86-3c1.29-.5,2.27-2.17,3.08-4.41a6.64,6.64,0,0,1,1.07-1.87l.21-.26c.18-.21.36-.42.53-.59l.15-.15c.19-.19.38-.36.53-.5.39-.32.65-.51.65-.51v-2.54C95.91,319.6,94.79,318.38,93.52,317.66Z" style="fill:#e6e6e6"></path><path d="M93.52,317.66c-1.28-.73-1.22-4.71-3-5.32s-4.31,2.11-6,2.6-3.13,2.57-8,2.71a28.49,28.49,0,0,0-13.88,3.26c-5.33,3-6.92,7.4-4.8,11.24a0,0,0,0,0,0,0c1.28,2,3.42,2.27,5.29,2.66h0c1.06.22,1,2.07,1,3.6v8a15.93,15.93,0,0,1-.47,2.2.89.89,0,1,0,1.76,0,14.56,14.56,0,0,1-.47-2.2v-7c0-1.54-.12-3.39.95-3.6a2.05,2.05,0,0,1,1.05.1,10.8,10.8,0,0,1,2,1.19,11.24,11.24,0,0,1,1.44,1.37l1,1.1c.34.36.65.69,1,1a6.16,6.16,0,0,0,2.84,1.36h0c.88.11.87,1.85.87,4.56v8.25c0,1.53-1.24,2.5-1.66,3.67s-1.32,1.18-2.46,1.36a3.45,3.45,0,0,0-2.19,1.2c-.81,1-.55,3.23,6.89,3.35,7.17.09,7.48-2.94,6.61-3.29a14.79,14.79,0,0,0-1.9-.93c-1.07-.44-2.06-.52-2.47-1.69s-1.66-2.14-1.66-3.67v-8.25c0-2.71,0-4.48.89-4.6h0a6.35,6.35,0,0,0,3.5-2.28c.32-.36.6-.74.87-1.1a9,9,0,0,1,1.47-1.69,25,25,0,0,1,5.86-3c1.29-.5,2.27-2.17,3.08-4.41a6.64,6.64,0,0,1,1.07-1.87l.21-.26c.18-.21.36-.42.53-.59l.15-.15c.19-.19.38-.36.53-.5.39-.32.65-.51.65-.51v-2.54C95.91,319.6,94.79,318.38,93.52,317.66Z" style="fill:#fff;opacity:0.45"></path><path d="M73.17,330.63a7.22,7.22,0,0,0,6.5,0c1.79-1,1.79-2.68,0-3.7a7.22,7.22,0,0,0-6.5,0C71.38,328,71.38,329.61,73.17,330.63Z" style="fill:#e0e0e0"></path><path d="M76.53,317.65a28.49,28.49,0,0,0-13.88,3.26c-5.33,3-6.92,7.4-4.8,11.24a0,0,0,0,0,0,0c1.28,2,3.42,2.27,5.29,2.66h0c1.06.22,1,2.07,1,3.6v8a15.93,15.93,0,0,1-.47,2.2,1,1,0,0,0,.88,1.05.9.9,0,0,0,.82-.65h0a.57.57,0,0,1-.93,0c-.46-.55.06-.95.06-1.76v-7.08a28.8,28.8,0,0,0-.15-5.09c-.36-1.09-2.09-.79-3.92-1.73-2.06-1-3.19-4.1-1.7-7.49s7-5.45,10-6.46,9.79-.84,11.83-1.29,2.66-1.73,4.13-2.33,1.34-1.57,2.22-2.14h0a10.67,10.67,0,0,1-2.4,1.32C82.76,315.44,81.37,317.51,76.53,317.65Z" style="fill:#fff;opacity:0.5"></path><path d="M81.49,339.52c.32-.36.6-.74.87-1.1a9,9,0,0,1,1.47-1.69,25,25,0,0,1,5.86-3c1.29-.5,2.27-2.17,3.08-4.41a6.64,6.64,0,0,1,1.07-1.87l.21-.26c.18-.21.36-.42.53-.59l.15-.15c.19-.19.38-.36.53-.5.39-.32.65-.51.65-.51v-2.54c0-3.29-1.12-4.51-2.39-5.23-.89-.51-1.13-2.61-1.8-4,.21,1.15-.17,3.31.39,4.26s2.27,1,2.68,2.33.58,3.89-.32,4.89a11.19,11.19,0,0,0-2.75,4.4c-.4,1.72-1.4,3-4,3.94a12.28,12.28,0,0,0-6.3,4.4,8.3,8.3,0,0,1-3.77,2.89c-.56.39-1.06.94-1.06,3.61v11.92c0,.94,1.31,2.09,1.35,2.94s1.51,1.5,2.81,1.75,2.62,1.31,1.7,2.11c1.29-.86,1.17-1.91.68-2.11a14.79,14.79,0,0,0-1.9-.93c-1.07-.44-2.06-.52-2.47-1.69s-1.66-2.14-1.66-3.67v-8.25c0-2.71,0-4.48.89-4.6h0A6.35,6.35,0,0,0,81.49,339.52Z" style="fill:#fff;opacity:0.5"></path><path d="M70.33,338.42l1,1.1c.34.36.65.69,1,1a6.16,6.16,0,0,0,2.84,1.36h0a.67.67,0,0,1,.53.44h0c-.22-.77-.62-1.08-1.71-1.46s-1.63-1.4-2.65-2.38a30.72,30.72,0,0,0-3-2.65,2,2,0,0,0-2.76.2h0a.91.91,0,0,1,.43-.24,2.05,2.05,0,0,1,1.05.1,10.8,10.8,0,0,1,2,1.19A11.24,11.24,0,0,1,70.33,338.42Z" style="fill:#fff;opacity:0.5"></path><path d="M83.42,361.94c-.63.88-2.41,1.63-5.18,1.63s-5.53-.24-6.41-1-.54-1.89.94-2.12,1.45.52,3.83.42,2.53-1.07,2.53-1.07c-1.41.88-4.48.39-4.58-.16a6.68,6.68,0,0,1,.72-3h0a9.53,9.53,0,0,0-1,1.7c-.41,1.17-1.32,1.18-2.46,1.36a3.45,3.45,0,0,0-2.19,1.2c-.81,1-.55,3.23,6.89,3.35C81.39,364.3,83.09,362.93,83.42,361.94Z" style="opacity:0.15"></path><path d="M77.69,320.05c-5.39-.51-14.73,1.55-17.21,6.11s1.13,6.64,1.13,6.64-2-4,2.47-7.37A27.24,27.24,0,0,1,77.69,320.05Z" style="opacity:0.05"></path><path d="M83.66,320.27c6.44.89,8.66,4.14,8.45,6.37,0,0,1.75-1.53,1.75-2.82s-1.68-2.34-2.48-3.27-.69-3.87-2.21-3.86S87.49,319.8,83.66,320.27Z" style="opacity:0.05"></path><g id="freepik--flame--inject-102"><path d="M76.29,322.49c-2.94-.21-5.09-3.46-3-8s3.34-7,2.57-11.63a27.62,27.62,0,0,1,3.43,6.84,24.32,24.32,0,0,1,1.58,6.58C81.16,320.44,79.08,322.49,76.29,322.49Z" style="fill:#FFAE0E"></path><path d="M76.29,322.49c-2.94-.21-5.09-3.46-3-8s3.34-7,2.57-11.63a27.62,27.62,0,0,1,3.43,6.84,24.32,24.32,0,0,1,1.58,6.58C81.16,320.44,79.08,322.49,76.29,322.49Z" style="fill:#fff;opacity:0.6000000000000001"></path><path d="M76.34,322.21c-.94-.08-1.92-1.21-2.38-2.1a6.19,6.19,0,0,1,.33-5.2l.33-.72a25.77,25.77,0,0,0,2.42-7c.38.82.78,1.76,1.16,2.81a23.75,23.75,0,0,1,1.51,6.29,5.71,5.71,0,0,1-.9,4.23A4.24,4.24,0,0,1,76.34,322.21Z" style="fill:#fff;opacity:0.8"></path><path d="M76.19,322.07A3,3,0,0,1,75.06,319c.28-1.48,1.7-3.43,1.7-4.09a12.09,12.09,0,0,1,1.34,3.86A3.05,3.05,0,0,1,76.19,322.07Z" style="fill:#FFAE0E"></path><path d="M76.19,322.07A3,3,0,0,1,75.06,319c.28-1.48,1.7-3.43,1.7-4.09a12.09,12.09,0,0,1,1.34,3.86A3.05,3.05,0,0,1,76.19,322.07Z" style="opacity:0.15"></path><path d="M76.29,329a.8.8,0,0,1-.66-.53,4.52,4.52,0,0,1-.23-.71,5.53,5.53,0,0,1-.14-1.46,9.62,9.62,0,0,1,.15-1.43q.12-.68.27-1.35c.2-.9.43-1.76.58-2.64a14,14,0,0,0,.13-2.68h.07a11.93,11.93,0,0,1,.31,2.74,27.15,27.15,0,0,1-.23,2.73c-.05.45-.09.89-.12,1.34a6.84,6.84,0,0,0,0,1.28,12.15,12.15,0,0,0,.16,1.23c0,.2.07.41.12.61a.86.86,0,0,1-.14.72Z" style="fill:#e0e0e0"></path><path d="M76.29,329a.8.8,0,0,1-.66-.53,4.52,4.52,0,0,1-.23-.71,5.53,5.53,0,0,1-.14-1.46,9.62,9.62,0,0,1,.15-1.43q.12-.68.27-1.35c.2-.9.43-1.76.58-2.64a14,14,0,0,0,.13-2.68h.07a11.93,11.93,0,0,1,.31,2.74,27.15,27.15,0,0,1-.23,2.73c-.05.45-.09.89-.12,1.34a6.84,6.84,0,0,0,0,1.28,12.15,12.15,0,0,0,.16,1.23c0,.2.07.41.12.61a.86.86,0,0,1-.14.72Z" style="opacity:0.15"></path></g></g><g id="freepik--candle--inject-102"><path d="M436.38,335.5a4.75,4.75,0,0,0-3.77,3c0,1.21,1.09,3.39,6.54,3.37V335.5Z" style="fill:#e6e6e6"></path><path d="M436.38,335.5a4.75,4.75,0,0,0-3.77,3c0,1.21,1.09,3.39,6.54,3.37V335.5Z" style="fill:#fff;opacity:0.2"></path><path d="M439.15,341.91v-5H435a3.79,3.79,0,0,0,1.85,1.84,1.16,1.16,0,0,1,.38,2.08c-.46.3-4-.35-4.65-2.25C432.61,339.75,433.7,341.93,439.15,341.91Z" style="fill:#e6e6e6"></path><path d="M439.15,334.45c-2.88,0-4.14,1.52-4.12,2.42a4.63,4.63,0,0,0,4.12,1.67Z" style="fill:#e6e6e6"></path><path d="M439.15,334.45c-2.88,0-4.14,1.52-4.12,2.42a4.63,4.63,0,0,0,4.12,1.67Z" style="fill:#fff;opacity:0.2"></path><path d="M435.22,336.2c.66-.77,1.95-1.27,3.93-1.19l0-.55C436.9,334.47,435.66,335.37,435.22,336.2Z" style="fill:#e6e6e6"></path><path d="M481.65,332.27a7.13,7.13,0,0,1,5.67,4.58c0,1.82-1.64,5.08-9.82,5.06v-9.64Z" style="fill:#e6e6e6"></path><path d="M481.65,332.27a7.13,7.13,0,0,1,5.67,4.58c0,1.82-1.64,5.08-9.82,5.06v-9.64Z" style="fill:#fff;opacity:0.2"></path><path d="M477.5,341.91v-7.57h6.19a5.71,5.71,0,0,1-2.79,2.75c-2,.93-1.27,2.7-.57,3.14s6-.54,7-3.38C487.32,338.67,485.68,341.93,477.5,341.91Z" style="fill:#e6e6e6"></path><path d="M477.5,330.7c4.32,0,6.22,2.29,6.19,3.64a7,7,0,0,1-6.19,2.51Z" style="fill:#e6e6e6"></path><path d="M477.5,330.7c4.32,0,6.22,2.29,6.19,3.64a7,7,0,0,1-6.19,2.51Z" style="fill:#fff;opacity:0.2"></path><path d="M483.4,333.32c-1-1.16-2.93-1.9-5.9-1.78l.06-.83C480.87,330.72,482.74,332.08,483.4,333.32Z" style="fill:#e6e6e6"></path><path d="M439.63,295.92c.16.13.34.3.53.49a.57.57,0,0,1,.11.11.08.08,0,0,1,0,0l.11.12a6.08,6.08,0,0,1,.72.85l.23.31a4.92,4.92,0,0,1,.28.45.13.13,0,0,1,.05.06,4,4,0,0,1,.21.41,1.45,1.45,0,0,1,.12.25c0,.09.06.18.1.27.8,2.24,1.78,3.92,3.07,4.41a24.67,24.67,0,0,1,5.86,3,8.61,8.61,0,0,1,1.47,1.68c.27.36.55.74.87,1.1a6.21,6.21,0,0,0,5.08,2.46,6.28,6.28,0,0,0,4.16-1.5c.29-.27.61-.6.95-1l1-1.1A12,12,0,0,1,466,307c2.33-1.72,3.6-1.78,5.73-2.23,1.88-.39,4-.7,5.29-2.66h0a6.83,6.83,0,0,0,.92-3.36v43a7.15,7.15,0,0,1-1.43,4.18,13.12,13.12,0,0,1-4.28,3.69c-7.61,4.34-19.95,4.34-27.56,0-3.81-2.18-5.7-5-5.7-7.87V295.4S439.25,295.59,439.63,295.92Z" style="fill:#e6e6e6"></path><path d="M459,346.71c.19.54,1.5,1.67,1.78,2.27a2.39,2.39,0,0,0,1.62,1.4,9.92,9.92,0,0,1,2.87.92c.92.51,8.33-2,11-5.05a13.53,13.53,0,0,1-4.06,3.41,27.94,27.94,0,0,1-12.94,3.23Z" style="opacity:0.15"></path><path d="M458.47,352.92a33,33,0,0,1-6.7-.69c.21-1.28,3.16-1.37,3.62-2.19s1.58-2,1.58-3.32V314.58c0-1.83-.08-2.8-1.32-3.24h0a6.25,6.25,0,0,0,2.79.61Z" style="opacity:0.15"></path><path d="M468.64,305.71c.58.1,1,1.2,1,3.07v7.65c0,.7-1.14,2.3.28,3l.53-.53V305.71Z" style="opacity:0.15"></path><path d="M441.37,287.63c1.28-.73,1.22-4.71,3-5.32s4.31,2.11,6.05,2.6,3.13,2.57,8,2.71a28.5,28.5,0,0,1,13.89,3.26c5.32,3.05,6.92,7.41,4.79,11.24h0c-1.28,2-3.41,2.27-5.29,2.66h0c-1.06.21-1,2.06-1,3.59v8a14.35,14.35,0,0,0,.48,2.2,1,1,0,0,1-.88,1.05,1,1,0,0,1-.89-1.05,14.35,14.35,0,0,0,.48-2.2v-7c0-1.53.11-3.39-1-3.6a2.23,2.23,0,0,0-1.06.1A11.11,11.11,0,0,0,466,307a12,12,0,0,0-1.45,1.37l-1,1.1c-.34.36-.66.69-.95,1a6.1,6.1,0,0,1-2.84,1.36h0c-.88.12-.87,1.85-.87,4.56V346c0,1.53,1.25,2.5,1.66,3.67s1.32,1.18,2.46,1.36a3.45,3.45,0,0,1,2.19,1.2c.82,1,.56,3.23-6.89,3.35-7.17.09-7.48-2.94-6.61-3.29a15.38,15.38,0,0,1,1.91-.93c1.07-.44,2-.52,2.46-1.69s1.66-2.14,1.66-3.67V316.38c0-2.71,0-4.48-.89-4.6h0a6.37,6.37,0,0,1-3.51-2.28c-.32-.36-.6-.74-.87-1.1a8.61,8.61,0,0,0-1.47-1.68,24.67,24.67,0,0,0-5.86-3c-1.29-.49-2.27-2.17-3.07-4.41a7.17,7.17,0,0,0-1.07-1.87l-.22-.26a7.63,7.63,0,0,0-.53-.59l-.15-.15c-.19-.18-.37-.36-.53-.49-.38-.33-.64-.52-.64-.52v-2.54C439,289.58,440.1,288.36,441.37,287.63Z" style="fill:#e6e6e6"></path><path d="M441.37,287.63c1.28-.73,1.22-4.71,3-5.32s4.31,2.11,6.05,2.6,3.13,2.57,8,2.71a28.5,28.5,0,0,1,13.89,3.26c5.32,3.05,6.92,7.41,4.79,11.24h0c-1.28,2-3.41,2.27-5.29,2.66h0c-1.06.21-1,2.06-1,3.59v8a14.35,14.35,0,0,0,.48,2.2,1,1,0,0,1-.88,1.05,1,1,0,0,1-.89-1.05,14.35,14.35,0,0,0,.48-2.2v-7c0-1.53.11-3.39-1-3.6a2.23,2.23,0,0,0-1.06.1A11.11,11.11,0,0,0,466,307a12,12,0,0,0-1.45,1.37l-1,1.1c-.34.36-.66.69-.95,1a6.1,6.1,0,0,1-2.84,1.36h0c-.88.12-.87,1.85-.87,4.56V346c0,1.53,1.25,2.5,1.66,3.67s1.32,1.18,2.46,1.36a3.45,3.45,0,0,1,2.19,1.2c.82,1,.56,3.23-6.89,3.35-7.17.09-7.48-2.94-6.61-3.29a15.38,15.38,0,0,1,1.91-.93c1.07-.44,2-.52,2.46-1.69s1.66-2.14,1.66-3.67V316.38c0-2.71,0-4.48-.89-4.6h0a6.37,6.37,0,0,1-3.51-2.28c-.32-.36-.6-.74-.87-1.1a8.61,8.61,0,0,0-1.47-1.68,24.67,24.67,0,0,0-5.86-3c-1.29-.49-2.27-2.17-3.07-4.41a7.17,7.17,0,0,0-1.07-1.87l-.22-.26a7.63,7.63,0,0,0-.53-.59l-.15-.15c-.19-.18-.37-.36-.53-.49-.38-.33-.64-.52-.64-.52v-2.54C439,289.58,440.1,288.36,441.37,287.63Z" style="fill:#fff;opacity:0.45"></path><path d="M461.72,300.61a7.29,7.29,0,0,1-6.5,0c-1.79-1-1.79-2.69,0-3.71a7.22,7.22,0,0,1,6.5,0C463.51,297.92,463.51,299.58,461.72,300.61Z" style="fill:#e0e0e0"></path><path d="M458.36,287.62a28.5,28.5,0,0,1,13.89,3.26c5.32,3.05,6.92,7.41,4.79,11.24h0c-1.28,2-3.41,2.27-5.29,2.66h0c-1.06.21-1,2.06-1,3.59v8a14.35,14.35,0,0,0,.48,2.2,1,1,0,0,1-.88,1.05.9.9,0,0,1-.82-.64h0a.57.57,0,0,0,.92,0c.46-.55-.06-1-.06-1.77v-7.08a29.86,29.86,0,0,1,.15-5.09c.37-1.08,2.09-.79,3.92-1.72,2.06-1.05,3.2-4.11,1.71-7.5s-7-5.45-10-6.46-9.8-.84-11.83-1.29-2.66-1.73-4.14-2.33-1.34-1.57-2.21-2.13h0a10,10,0,0,0,2.39,1.31C452.13,285.41,453.52,287.48,458.36,287.62Z" style="fill:#fff;opacity:0.5"></path><path d="M453.4,309.49c-.32-.36-.6-.74-.87-1.1a8.61,8.61,0,0,0-1.47-1.68,24.67,24.67,0,0,0-5.86-3c-1.29-.49-2.27-2.17-3.07-4.41a7.17,7.17,0,0,0-1.07-1.87l-.22-.26a7.63,7.63,0,0,0-.53-.59l-.15-.15c-.19-.18-.37-.36-.53-.49-.38-.33-.64-.52-.64-.52v-2.54c0-3.28,1.11-4.5,2.38-5.23.89-.51,1.14-2.61,1.8-4-.2,1.14.17,3.3-.39,4.25s-2.27,1-2.68,2.33-.58,3.9.32,4.9a11.15,11.15,0,0,1,2.75,4.39c.4,1.72,1.41,3,4,3.95a12.19,12.19,0,0,1,6.29,4.39,8.4,8.4,0,0,0,3.77,2.89c.56.39,1.07.94,1.07,3.61v33.28c0,.94-1.31,2.09-1.35,2.94s-1.52,1.5-2.81,1.75-2.63,1.31-1.71,2.11c-1.28-.86-1.17-1.91-.68-2.11a15.38,15.38,0,0,1,1.91-.93c1.07-.44,2-.52,2.46-1.69s1.66-2.14,1.66-3.67V316.38c0-2.71,0-4.48-.89-4.6h0A6.37,6.37,0,0,1,453.4,309.49Z" style="fill:#fff;opacity:0.5"></path><path d="M464.56,308.39l-1,1.1c-.34.36-.66.69-.95,1a6.1,6.1,0,0,1-2.84,1.36h0a.72.72,0,0,0-.53.44h0c.22-.77.62-1.08,1.71-1.46s1.63-1.4,2.65-2.38a32.1,32.1,0,0,1,3-2.65,2,2,0,0,1,2.77.2h0a.88.88,0,0,0-.42-.24,2.23,2.23,0,0,0-1.06.1A11.11,11.11,0,0,0,466,307,12,12,0,0,0,464.56,308.39Z" style="fill:#fff;opacity:0.5"></path><path d="M451.47,353.27c.63.88,2.41,1.63,5.18,1.63s5.54-.24,6.41-1,.55-1.89-.94-2.12-1.45.52-3.82.42-2.54-1.07-2.54-1.07c1.42.88,4.48.39,4.58-.16a6.48,6.48,0,0,0-.72-3h0a9.46,9.46,0,0,1,1,1.69c.41,1.17,1.32,1.18,2.46,1.36a3.45,3.45,0,0,1,2.19,1.2c.82,1,.56,3.23-6.89,3.35C453.51,355.63,451.8,354.27,451.47,353.27Z" style="opacity:0.15"></path><path d="M457.21,290c5.39-.51,14.72,1.55,17.2,6.11s-1.13,6.64-1.13,6.64,2-4-2.46-7.37A27.41,27.41,0,0,0,457.21,290Z" style="opacity:0.05"></path><path d="M451.24,290.25c-6.44.88-8.66,4.13-8.46,6.36,0,0-1.75-1.53-1.75-2.82s1.68-2.34,2.49-3.27.68-3.87,2.21-3.86C447.11,286.67,447.4,289.77,451.24,290.25Z" style="opacity:0.05"></path><g id="freepik--flame--inject-102"><path d="M458.6,292.46c2.94-.21,5.09-3.46,3-8s-3.33-7-2.57-11.64a28,28,0,0,0-3.43,6.84,25.1,25.1,0,0,0-1.58,6.58C453.74,290.41,455.82,292.46,458.6,292.46Z" style="fill:#FFAE0E"></path><path d="M458.6,292.46c2.94-.21,5.09-3.46,3-8s-3.33-7-2.57-11.64a28,28,0,0,0-3.43,6.84,25.1,25.1,0,0,0-1.58,6.58C453.74,290.41,455.82,292.46,458.6,292.46Z" style="fill:#fff;opacity:0.6000000000000001"></path><path d="M458.54,292.29c.94-.07,1.92-1.2,2.38-2.1a6.24,6.24,0,0,0-.34-5.2l-.33-.72a26.47,26.47,0,0,1-2.42-7c-.38.82-.77,1.76-1.15,2.82a24.08,24.08,0,0,0-1.52,6.28,5.7,5.7,0,0,0,.9,4.23A4.23,4.23,0,0,0,458.54,292.29Z" style="fill:#fff;opacity:0.8"></path><path d="M458.7,292a2.9,2.9,0,0,0,1.13-3.08c-.27-1.49-1.7-3.44-1.7-4.1a12.09,12.09,0,0,0-1.34,3.86A3.06,3.06,0,0,0,458.7,292Z" style="fill:#FFAE0E"></path><path d="M458.7,292a2.9,2.9,0,0,0,1.13-3.08c-.27-1.49-1.7-3.44-1.7-4.1a12.09,12.09,0,0,0-1.34,3.86A3.06,3.06,0,0,0,458.7,292Z" style="opacity:0.15"></path><path d="M458.61,298.92a.83.83,0,0,0,.66-.53,4.48,4.48,0,0,0,.22-.71,5.14,5.14,0,0,0,.14-1.46,9.62,9.62,0,0,0-.15-1.43q-.12-.68-.27-1.35c-.19-.89-.43-1.76-.57-2.63a12.68,12.68,0,0,1-.13-2.69h-.08a12.51,12.51,0,0,0-.31,2.74,26.91,26.91,0,0,0,.23,2.73c0,.45.1.89.13,1.34a9.11,9.11,0,0,1,0,1.28c0,.42-.1.83-.17,1.24,0,.2-.07.4-.12.6a.9.9,0,0,0,.15.73Z" style="fill:#e0e0e0"></path><path d="M458.61,298.92a.83.83,0,0,0,.66-.53,4.48,4.48,0,0,0,.22-.71,5.14,5.14,0,0,0,.14-1.46,9.62,9.62,0,0,0-.15-1.43q-.12-.68-.27-1.35c-.19-.89-.43-1.76-.57-2.63a12.68,12.68,0,0,1-.13-2.69h-.08a12.51,12.51,0,0,0-.31,2.74,26.91,26.91,0,0,0,.23,2.73c0,.45.1.89.13,1.34a9.11,9.11,0,0,1,0,1.28c0,.42-.1.83-.17,1.24,0,.2-.07.4-.12.6a.9.9,0,0,0,.15.73Z" style="opacity:0.15"></path></g></g><g id="freepik--candle--inject-102"><path d="M399.54,340.13a4.72,4.72,0,0,0-3.76,3c0,1.21,1.08,3.38,6.53,3.37v-6.41Z" style="fill:#e6e6e6"></path><path d="M399.54,340.13a4.72,4.72,0,0,0-3.76,3c0,1.21,1.08,3.38,6.53,3.37v-6.41Z" style="fill:#fff;opacity:0.2"></path><path d="M402.31,346.54v-5h-4.12a3.85,3.85,0,0,0,1.85,1.83,1.17,1.17,0,0,1,.39,2.09c-.47.3-4-.36-4.65-2.25C395.78,344.38,396.86,346.55,402.31,346.54Z" style="fill:#e6e6e6"></path><path d="M402.31,339.08c-2.88,0-4.14,1.52-4.12,2.42a4.63,4.63,0,0,0,4.12,1.67Z" style="fill:#e6e6e6"></path><path d="M402.31,339.08c-2.88,0-4.14,1.52-4.12,2.42a4.63,4.63,0,0,0,4.12,1.67Z" style="fill:#e6e6e6"></path><path d="M402.31,339.08c-2.88,0-4.14,1.52-4.12,2.42a4.63,4.63,0,0,0,4.12,1.67Z" style="fill:#fff;opacity:0.2"></path><path d="M398.38,340.82c.66-.77,2-1.26,3.93-1.18l0-.55C400.06,339.09,398.82,340,398.38,340.82Z" style="fill:#e6e6e6"></path><path d="M402.79,321.9c.16.14.34.3.53.49l.12.12,0,0,.11.11a8.77,8.77,0,0,1,.73.85l.22.32c.1.14.19.29.28.44a.23.23,0,0,1,.05.07,3.84,3.84,0,0,1,.21.4,2.06,2.06,0,0,1,.12.26c0,.09.07.18.1.27.8,2.23,1.79,3.91,3.07,4.4a25,25,0,0,1,5.86,3,9,9,0,0,1,1.47,1.69c.27.36.55.74.87,1.1a6.49,6.49,0,0,0,9.24,1c.29-.27.61-.6.95-1l1-1.1a11.27,11.27,0,0,1,1.45-1.37c2.33-1.73,3.6-1.78,5.73-2.23,1.88-.39,4-.7,5.29-2.66h0a6.9,6.9,0,0,0,.92-3.37v21.68a7.15,7.15,0,0,1-1.43,4.18,13.24,13.24,0,0,1-4.28,3.69c-7.61,4.34-20,4.34-27.55,0-3.81-2.18-5.71-5-5.71-7.87v-25S402.41,321.58,402.79,321.9Z" style="fill:#e6e6e6"></path><path d="M422.2,351.34c.19.53,1.5,1.66,1.78,2.26a2.39,2.39,0,0,0,1.62,1.4,9.92,9.92,0,0,1,2.87.92c.92.52,8.33-2,11-5a13.68,13.68,0,0,1-4.06,3.41,27.94,27.94,0,0,1-12.94,3.23Z" style="opacity:0.15"></path><path d="M421.63,357.54a32.34,32.34,0,0,1-6.7-.69c.21-1.27,3.16-1.36,3.62-2.19s1.58-2,1.58-3.31V340.56c0-1.83-.08-2.79-1.32-3.23h0a6.25,6.25,0,0,0,2.79.61Z" style="opacity:0.15"></path><path d="M431.81,331.69c.57.11.95,1.21.95,3.08v7.64c0,.7-1.14,2.31.28,3l.53-.53v-13.2Z" style="opacity:0.15"></path><path d="M404.53,313.62c1.28-.73,1.22-4.71,3-5.33s4.3,2.12,6,2.61,3.13,2.57,8,2.71a28.49,28.49,0,0,1,13.88,3.26c5.32,3,6.92,7.4,4.79,11.24h0c-1.28,2-3.41,2.27-5.29,2.66h0c-1.07.21-.95,2.06-.95,3.6v8a14.85,14.85,0,0,0,.47,2.2.89.89,0,1,1-1.76,0,16.27,16.27,0,0,0,.47-2.2v-7c0-1.54.11-3.4-.95-3.6a2.08,2.08,0,0,0-1.05.09,11.53,11.53,0,0,0-2,1.2,11.27,11.27,0,0,0-1.45,1.37l-1,1.1c-.34.36-.66.69-.95,1A6.2,6.2,0,0,1,423,337.8h0c-.87.11-.87,1.84-.87,4.56v8.25c0,1.53,1.25,2.49,1.66,3.67s1.32,1.18,2.47,1.36a3.44,3.44,0,0,1,2.18,1.2c.82,1,.56,3.23-6.89,3.35-7.17.09-7.48-2.94-6.61-3.29a16.25,16.25,0,0,1,1.91-.94c1.07-.43,2.05-.51,2.46-1.68s1.66-2.14,1.66-3.67v-8.25c0-2.72,0-4.48-.89-4.6h0a6.37,6.37,0,0,1-3.51-2.28c-.32-.36-.6-.74-.87-1.1a9,9,0,0,0-1.47-1.69,25,25,0,0,0-5.86-3c-1.28-.49-2.27-2.17-3.07-4.4a7.17,7.17,0,0,0-1.07-1.87,2.75,2.75,0,0,0-.22-.26,5.14,5.14,0,0,0-.53-.59l-.15-.15c-.19-.19-.37-.36-.53-.5-.38-.32-.64-.51-.64-.51v-2.54C402.15,315.56,403.27,314.34,404.53,313.62Z" style="fill:#e6e6e6"></path><path d="M404.53,313.62c1.28-.73,1.22-4.71,3-5.33s4.3,2.12,6,2.61,3.13,2.57,8,2.71a28.49,28.49,0,0,1,13.88,3.26c5.32,3,6.92,7.4,4.79,11.24h0c-1.28,2-3.41,2.27-5.29,2.66h0c-1.07.21-.95,2.06-.95,3.6v8a14.85,14.85,0,0,0,.47,2.2.89.89,0,1,1-1.76,0,16.27,16.27,0,0,0,.47-2.2v-7c0-1.54.11-3.4-.95-3.6a2.08,2.08,0,0,0-1.05.09,11.53,11.53,0,0,0-2,1.2,11.27,11.27,0,0,0-1.45,1.37l-1,1.1c-.34.36-.66.69-.95,1A6.2,6.2,0,0,1,423,337.8h0c-.87.11-.87,1.84-.87,4.56v8.25c0,1.53,1.25,2.49,1.66,3.67s1.32,1.18,2.47,1.36a3.44,3.44,0,0,1,2.18,1.2c.82,1,.56,3.23-6.89,3.35-7.17.09-7.48-2.94-6.61-3.29a16.25,16.25,0,0,1,1.91-.94c1.07-.43,2.05-.51,2.46-1.68s1.66-2.14,1.66-3.67v-8.25c0-2.72,0-4.48-.89-4.6h0a6.37,6.37,0,0,1-3.51-2.28c-.32-.36-.6-.74-.87-1.1a9,9,0,0,0-1.47-1.69,25,25,0,0,0-5.86-3c-1.28-.49-2.27-2.17-3.07-4.4a7.17,7.17,0,0,0-1.07-1.87,2.75,2.75,0,0,0-.22-.26,5.14,5.14,0,0,0-.53-.59l-.15-.15c-.19-.19-.37-.36-.53-.5-.38-.32-.64-.51-.64-.51v-2.54C402.15,315.56,403.27,314.34,404.53,313.62Z" style="fill:#fff;opacity:0.45"></path><path d="M424.88,326.59a7.2,7.2,0,0,1-6.49,0c-1.8-1-1.8-2.68,0-3.71a7.26,7.26,0,0,1,6.49,0C426.67,323.91,426.67,325.57,424.88,326.59Z" style="fill:#e0e0e0"></path><path d="M421.53,313.61a28.49,28.49,0,0,1,13.88,3.26c5.32,3,6.92,7.4,4.79,11.24h0c-1.28,2-3.41,2.27-5.29,2.66h0c-1.07.21-.95,2.06-.95,3.6v8a14.85,14.85,0,0,0,.47,2.2,1,1,0,0,1-.88,1.05.9.9,0,0,1-.82-.65h0a.56.56,0,0,0,.92,0c.46-.55-.06-.95-.06-1.76v-7.08a30.05,30.05,0,0,1,.15-5.1c.37-1.08,2.09-.78,3.93-1.72,2-1,3.19-4.1,1.7-7.49s-7-5.45-10-6.46-9.79-.84-11.83-1.29-2.66-1.73-4.13-2.33-1.34-1.57-2.22-2.14h0a10.42,10.42,0,0,0,2.39,1.32C415.29,311.4,416.68,313.47,421.53,313.61Z" style="fill:#fff;opacity:0.5"></path><path d="M416.56,335.48c-.32-.36-.6-.74-.87-1.1a9,9,0,0,0-1.47-1.69,25,25,0,0,0-5.86-3c-1.28-.49-2.27-2.17-3.07-4.4a7.17,7.17,0,0,0-1.07-1.87,2.75,2.75,0,0,0-.22-.26,5.14,5.14,0,0,0-.53-.59l-.15-.15c-.19-.19-.37-.36-.53-.5-.38-.32-.64-.51-.64-.51v-2.54c0-3.29,1.12-4.51,2.38-5.23.9-.51,1.14-2.61,1.8-4-.2,1.15.17,3.31-.39,4.26s-2.27,1-2.68,2.33-.58,3.89.32,4.89a11.22,11.22,0,0,1,2.75,4.39c.4,1.73,1.41,3,4,3.95a12.25,12.25,0,0,1,6.29,4.39,8.37,8.37,0,0,0,3.77,2.9c.56.38,1.07.94,1.07,3.61v11.91c0,1-1.31,2.09-1.35,3s-1.52,1.5-2.81,1.75-2.63,1.31-1.71,2.11c-1.28-.86-1.17-1.91-.68-2.11a16.25,16.25,0,0,1,1.91-.94c1.07-.43,2.05-.51,2.46-1.68s1.66-2.14,1.66-3.67v-8.25c0-2.72,0-4.48-.89-4.6h0A6.37,6.37,0,0,1,416.56,335.48Z" style="fill:#fff;opacity:0.5"></path><path d="M427.72,334.38l-1,1.1c-.34.36-.66.69-.95,1A6.2,6.2,0,0,1,423,337.8h0a.71.71,0,0,0-.53.43h0c.22-.77.62-1.08,1.72-1.46s1.62-1.4,2.65-2.38a30.72,30.72,0,0,1,3-2.65,2,2,0,0,1,2.77.2h0a.8.8,0,0,0-.42-.24,2.08,2.08,0,0,0-1.05.09,11.53,11.53,0,0,0-2,1.2A11.27,11.27,0,0,0,427.72,334.38Z" style="fill:#fff;opacity:0.5"></path><path d="M414.63,357.89c.63.88,2.41,1.64,5.18,1.64s5.54-.24,6.42-1,.54-1.89-1-2.12-1.45.52-3.82.42-2.54-1.07-2.54-1.07c1.42.88,4.48.39,4.58-.17a6.54,6.54,0,0,0-.72-3h0a9,9,0,0,1,1,1.7c.41,1.17,1.32,1.18,2.47,1.36a3.44,3.44,0,0,1,2.18,1.2c.82,1,.56,3.23-6.89,3.35C416.67,360.26,415,358.89,414.63,357.89Z" style="opacity:0.15"></path><path d="M420.37,316c5.39-.51,14.73,1.54,17.21,6.11s-1.14,6.64-1.14,6.64,2-4-2.46-7.37A27.31,27.31,0,0,0,420.37,316Z" style="opacity:0.05"></path><path d="M414.4,316.23c-6.44.89-8.66,4.14-8.46,6.37,0,0-1.74-1.54-1.74-2.82s1.67-2.35,2.48-3.27.68-3.87,2.21-3.86S410.56,315.75,414.4,316.23Z" style="opacity:0.05"></path><g id="freepik--flame--inject-102"><path d="M421.76,318.45c2.95-.21,5.09-3.46,3-8s-3.33-7-2.57-11.63a28,28,0,0,0-3.43,6.84,25.1,25.1,0,0,0-1.58,6.58C416.9,316.4,419,318.45,421.76,318.45Z" style="fill:#FFAE0E"></path><path d="M421.76,318.45c2.95-.21,5.09-3.46,3-8s-3.33-7-2.57-11.63a28,28,0,0,0-3.43,6.84,25.1,25.1,0,0,0-1.58,6.58C416.9,316.4,419,318.45,421.76,318.45Z" style="fill:#fff;opacity:0.6000000000000001"></path><path d="M421.72,318.17c.94-.08,1.92-1.21,2.38-2.1a6.24,6.24,0,0,0-.34-5.2l-.33-.73a26.29,26.29,0,0,1-2.42-7c-.38.82-.77,1.76-1.15,2.81a23.83,23.83,0,0,0-1.52,6.29,5.71,5.71,0,0,0,.9,4.23A4.28,4.28,0,0,0,421.72,318.17Z" style="fill:#fff;opacity:0.8"></path><path d="M421.86,318a2.91,2.91,0,0,0,1.13-3.09c-.27-1.48-1.69-3.43-1.69-4.1a12.11,12.11,0,0,0-1.35,3.87A3.07,3.07,0,0,0,421.86,318Z" style="fill:#FFAE0E"></path><path d="M421.86,318a2.91,2.91,0,0,0,1.13-3.09c-.27-1.48-1.69-3.43-1.69-4.1a12.11,12.11,0,0,0-1.35,3.87A3.07,3.07,0,0,0,421.86,318Z" style="opacity:0.15"></path><path d="M421.77,324.91a.83.83,0,0,0,.66-.53,4.48,4.48,0,0,0,.22-.71,5.14,5.14,0,0,0,.14-1.46,9.62,9.62,0,0,0-.15-1.43c-.08-.45-.17-.9-.26-1.35-.2-.9-.44-1.76-.58-2.64a13.27,13.27,0,0,1-.13-2.68h-.08a11.84,11.84,0,0,0-.3,2.73,27.12,27.12,0,0,0,.22,2.74c.05.45.1.89.13,1.34a9,9,0,0,1,0,1.27c0,.42-.1.84-.16,1.24-.05.2-.08.41-.13.61a.88.88,0,0,0,.15.72Z" style="fill:#e0e0e0"></path><path d="M421.77,324.91a.83.83,0,0,0,.66-.53,4.48,4.48,0,0,0,.22-.71,5.14,5.14,0,0,0,.14-1.46,9.62,9.62,0,0,0-.15-1.43c-.08-.45-.17-.9-.26-1.35-.2-.9-.44-1.76-.58-2.64a13.27,13.27,0,0,1-.13-2.68h-.08a11.84,11.84,0,0,0-.3,2.73,27.12,27.12,0,0,0,.22,2.74c.05.45.1.89.13,1.34a9,9,0,0,1,0,1.27c0,.42-.1.84-.16,1.24-.05.2-.08.41-.13.61a.88.88,0,0,0,.15.72Z" style="opacity:0.15"></path></g></g></g><g id="freepik--sun--inject-102"><g id="freepik--sun--inject-102"><polygon points="309.61 173.61 285.21 149.21 358.77 100.04 309.61 173.61" style="fill:#FFAE0E"></polygon><polygon points="309.61 173.61 285.21 149.21 358.77 100.04 309.61 173.61" style="fill:#fff;opacity:0.2"></polygon><polygon points="358.77 100.04 297.41 161.41 285.21 149.21 358.77 100.04" style="fill:#fff;opacity:0.4"></polygon><polygon points="239.04 148.61 214.64 173.01 165.47 99.44 239.04 148.61" style="fill:#FFAE0E"></polygon><polygon points="239.04 148.61 214.64 173.01 165.47 99.44 239.04 148.61" style="fill:#fff;opacity:0.2"></polygon><polygon points="165.47 99.44 226.84 160.81 214.64 173.01 165.47 99.44" style="fill:#fff;opacity:0.4"></polygon><polygon points="214.04 219.18 238.44 243.58 164.87 292.74 214.04 219.18" style="fill:#FFAE0E"></polygon><polygon points="214.04 219.18 238.44 243.58 164.87 292.74 214.04 219.18" style="fill:#fff;opacity:0.2"></polygon><polygon points="164.87 292.74 226.24 231.38 238.44 243.58 164.87 292.74" style="fill:#fff;opacity:0.4"></polygon><polygon points="284.61 244.18 309 219.78 358.17 293.35 284.61 244.18" style="fill:#FFAE0E"></polygon><polygon points="284.61 244.18 309 219.78 358.17 293.35 284.61 244.18" style="fill:#fff;opacity:0.2"></polygon><polygon points="358.17 293.35 296.81 231.98 309 219.78 358.17 293.35" style="fill:#fff;opacity:0.4"></polygon><path d="M275.85,103.87c10.41-21.4,4.8-34.24-4.8-45.75s-14.05-22-6.62-37.7c0,0-8.19,10-7.53,21.32.93,15.85,14.78,23.61,14.18,40.66s-13.7,22.58-15,39.11c-1,12.78,5.75,25.26,5.75,25.26h16.89C273.08,137.86,266.58,122.91,275.85,103.87Z" style="fill:#FFAE0E;opacity:0.5"></path><path d="M278.72,147.26H243.21a.48.48,0,0,1-.44-.29c-6.56-14.3-3.86-33.32,6.87-48.45,10.05-14.17,13.11-22.41,6.07-36.76-7.41-15.13-4-31.9,8.41-41.73a.49.49,0,0,1,.75.6c-7.37,15.59-3,25.78,6.56,37.18,9,10.76,15.79,23.81,4.86,46.27-7,14.43-6.09,28.31,2.85,42.42a.5.5,0,0,1,0,.5A.48.48,0,0,1,278.72,147.26Zm-35.19-1h34.31c-8.57-14-9.39-28.33-2.43-42.63,10.68-22,4-34.7-4.74-45.21-9.1-10.9-13.86-21.32-7.57-36.26-10.72,9.68-13.38,25.13-6.5,39.15,7.26,14.8,4.13,23.26-6.16,37.76C240,113.84,237.28,132.32,243.53,146.28Z" style="fill:#FFAE0E"></path><path d="M261.83,147.26a.49.49,0,0,1-.43-.26c-.07-.12-6.82-12.75-5.82-25.52.65-8.17,4.16-13.75,7.57-19.14,3.67-5.83,7.14-11.33,7.44-20,.31-8.89-3.44-15.35-7.07-21.6-3.28-5.63-6.66-11.45-7.11-19-.66-11.38,7.3-21.25,7.64-21.66a.49.49,0,1,1,.76.62c-.08.1-8.06,10-7.41,21,.43,7.34,3.6,12.8,7,18.59,3.7,6.37,7.53,13,7.2,22.12-.31,8.89-4,14.76-7.59,20.44-3.34,5.29-6.79,10.77-7.41,18.69-1,12.48,5.63,24.86,5.69,25a.49.49,0,0,1-.2.67A.46.46,0,0,1,261.83,147.26Z" style="fill:#FFAE0E"></path><path d="M169.11,182.55c-21.4-10.4-34.24-4.8-45.75,4.81s-22,14-37.7,6.61c0,0,10,8.19,21.32,7.53,15.85-.93,23.62-14.78,40.67-14.18s22.57,13.71,39.1,15c12.78,1,25.26-5.76,25.26-5.76V179.68C203.1,185.32,188.15,191.82,169.11,182.55Z" style="fill:#FFAE0E;opacity:0.5"></path><path d="M195.19,219.18a55.09,55.09,0,0,1-31.43-10.42c-14.17-10-22.4-13.11-36.76-6.07-15.13,7.42-31.9,4-41.73-8.41a.49.49,0,0,1,.6-.75c15.59,7.38,25.78,3,37.18-6.55,10.76-9,23.81-15.79,46.27-4.87,14.43,7,28.31,6.09,42.42-2.84a.48.48,0,0,1,.5,0,.49.49,0,0,1,.26.43v35.51a.49.49,0,0,1-.29.45A40.77,40.77,0,0,1,195.19,219.18Zm-54.14-21.33c7.42,0,14.15,3.64,23.28,10.11,14.75,10.46,33.23,13.16,47.19,6.91v-34.3c-14,8.56-28.33,9.38-42.63,2.43-21.95-10.69-34.7-4-45.21,4.73-10.9,9.1-21.32,13.86-36.26,7.57,9.67,10.73,25.13,13.38,39.15,6.51C132.06,199.12,136.68,197.85,141.05,197.85Zm71,17.34h0Z" style="fill:#FFAE0E"></path><path d="M189.36,202.92c-.88,0-1.76,0-2.64-.1-8.17-.64-13.75-4.16-19.14-7.56-5.83-3.67-11.33-7.15-20-7.45-8.89-.3-15.35,3.45-21.6,7.08-5.63,3.27-11.45,6.66-19,7.1-11.37.67-21.25-7.3-21.66-7.64a.49.49,0,1,1,.62-.76c.1.08,10,8.07,21,7.42,7.34-.43,12.8-3.61,18.59-7,6.37-3.7,12.93-7.53,22.12-7.21,8.89.31,14.76,4,20.44,7.6,5.29,3.33,10.77,6.79,18.69,7.41,12.48,1,24.86-5.63,25-5.7a.49.49,0,0,1,.47.87C212.12,197.07,201.18,202.92,189.36,202.92Z" style="fill:#FFAE0E"></path><path d="M247.8,289.29c-10.41,21.4-4.81,34.25,4.8,45.75s14,22,6.61,37.7c0,0,8.19-10,7.53-21.31-.93-15.86-14.78-23.62-14.18-40.67s13.71-22.58,15-39.11c1-12.78-5.76-25.25-5.76-25.25H244.92C250.56,255.3,257.06,270.25,247.8,289.29Z" style="fill:#FFAE0E;opacity:0.5"></path><path d="M259.21,373.24a.5.5,0,0,1-.3-.11.49.49,0,0,1-.14-.6c7.38-15.58,3-25.78-6.55-37.18-9-10.76-15.79-23.81-4.87-46.27,7-14.43,6.09-28.31-2.84-42.42a.49.49,0,0,1,.41-.76h35.51a.51.51,0,0,1,.45.29c6.55,14.3,3.86,33.32-6.87,48.45-10.05,14.17-13.12,22.41-6.08,36.76,7.42,15.13,4,31.9-8.41,41.73A.51.51,0,0,1,259.21,373.24Zm-13.4-126.35c8.56,14,9.38,28.32,2.43,42.62-10.68,22-4,34.71,4.73,45.21,9.1,10.9,13.86,21.32,7.57,36.26,10.73-9.67,13.38-25.13,6.51-39.15-7.26-14.8-4.13-23.25,6.15-37.76,10.46-14.74,13.16-33.23,6.91-47.18Z" style="fill:#FFAE0E"></path><path d="M259.21,373.24a.53.53,0,0,1-.31-.11.5.5,0,0,1-.07-.7c.08-.1,8.06-10,7.42-21-.43-7.33-3.61-12.8-7-18.59-3.7-6.36-7.53-12.95-7.21-22.12.31-8.88,4-14.76,7.6-20.44,3.33-5.29,6.79-10.76,7.41-18.69,1-12.48-5.63-24.86-5.7-25a.49.49,0,0,1,.2-.67.5.5,0,0,1,.67.2c.07.13,6.81,12.75,5.81,25.53-.64,8.17-4.16,13.74-7.56,19.14-3.67,5.82-7.14,11.33-7.45,19.95-.31,8.88,3.45,15.34,7.08,21.59,3.27,5.63,6.66,11.45,7.1,19,.67,11.37-7.3,21.24-7.64,21.66A.49.49,0,0,1,259.21,373.24Z" style="fill:#FFAE0E"></path><path d="M354.54,210.61c21.39,10.41,34.24,4.8,45.74-4.8s22-14.05,37.71-6.62c0,0-10-8.19-21.32-7.53-15.86.93-23.62,14.78-40.67,14.18s-22.57-13.71-39.11-15c-12.78-1-25.25,5.76-25.25,5.76v16.89C320.55,207.84,335.49,201.34,354.54,210.61Z" style="fill:#FFAE0E;opacity:0.5"></path><path d="M375.61,216.68c-6.06,0-13-1.62-21.29-5.63C339.89,204,326,205,311.9,213.9a.5.5,0,0,1-.5,0,.47.47,0,0,1-.25-.43V178a.5.5,0,0,1,.28-.45c14.31-6.55,33.33-3.85,48.45,6.88,14.17,10,22.41,13.11,36.76,6.07,15.13-7.42,31.9-4,41.73,8.42a.5.5,0,0,1,0,.61.48.48,0,0,1-.59.13c-15.59-7.38-25.79-3-37.19,6.55C393.79,211.87,386.06,216.68,375.61,216.68ZM335.56,205.5a43.49,43.49,0,0,1,19.19,4.67c22,10.68,34.71,4,45.21-4.74,10.9-9.1,21.32-13.86,36.26-7.57-9.67-10.73-25.13-13.38-39.14-6.5-14.81,7.25-23.26,4.13-37.76-6.16-14.75-10.46-33.23-13.15-47.19-6.91V212.6C319.85,207.86,327.69,205.5,335.56,205.5Z" style="fill:#FFAE0E"></path><path d="M377.06,206.35c-.36,0-.72,0-1.08,0-8.88-.31-14.76-4-20.44-7.59-5.29-3.34-10.76-6.79-18.69-7.42-12.48-1-24.86,5.64-25,5.7a.5.5,0,0,1-.67-.2.49.49,0,0,1,.2-.66c.13-.07,12.77-6.82,25.53-5.82,8.17.65,13.74,4.16,19.14,7.56,5.82,3.68,11.33,7.15,19.95,7.45,8.88.3,15.35-3.44,21.59-7.07,5.63-3.28,11.45-6.66,19-7.11,11.36-.66,21.24,7.3,21.66,7.64a.49.49,0,0,1,.07.69.5.5,0,0,1-.7.07c-.09-.08-10-8.07-21-7.42-7.33.44-12.8,3.61-18.58,7C392,202.68,385.67,206.35,377.06,206.35Z" style="fill:#FFAE0E"></path><path d="M209.22,188.72a52.69,52.69,0,0,1,10-24.15l-46.18-5ZM173,233.14l46.16-5a52.82,52.82,0,0,1-10-24.16Zm177.58-73.49-46.16,5a53,53,0,0,1,10,24.17ZM225,285.16,254.15,249A52.9,52.9,0,0,1,230,239Zm5-131.4a52.92,52.92,0,0,1,24.17-10L225.08,107.6Zm74.36,74.46,46.18,5-36.16-29.12A53,53,0,0,1,304.41,228.22Zm-35,20.79,29.14,36.17-5-46.16A52.94,52.94,0,0,1,269.43,249Zm24.22-95.2,5-46.18L269.5,143.79A52.84,52.84,0,0,1,293.65,153.81Z" style="fill:#FFAE0E"></path><circle cx="261.82" cy="196.39" r="53.56" transform="translate(-62.18 242.66) rotate(-45)" style="fill:#FFAE0E"></circle><circle cx="261.82" cy="196.39" r="53.56" transform="translate(-62.18 242.66) rotate(-45)" style="fill:#fff;opacity:0.5"></circle><g style="opacity:0.6000000000000001"><path d="M293.85,233.33a42.83,42.83,0,0,1-4.88,4.22,46.47,46.47,0,0,1-5.51,3.42,48.77,48.77,0,0,1-6,2.58,52.22,52.22,0,0,1-6.3,1.69,46,46,0,0,1-13,.56,41,41,0,0,1-12.49-3.24,61,61,0,0,0,12.59,1.94,55.67,55.67,0,0,0,12.57-.91,54.7,54.7,0,0,0,12-3.79c1.92-.89,3.8-1.86,5.63-2.94S292.11,234.58,293.85,233.33Z" style="fill:#fff"></path></g><g style="opacity:0.6000000000000001"><path d="M236.58,154.52a47.64,47.64,0,0,1,14.72-6.3,50,50,0,0,1,16.09-1,49.06,49.06,0,0,1,29,13.44,51.07,51.07,0,0,1,5.35,6.13,49.06,49.06,0,0,1,4.26,6.92,47.65,47.65,0,0,1,4.86,15.43,50.05,50.05,0,0,1-.49,16.11,47.43,47.43,0,0,1-5.77,14.94,49.84,49.84,0,0,0,5-15.09,49.14,49.14,0,0,0,0-15.78,49.34,49.34,0,0,0-27.21-36.43,49.88,49.88,0,0,0-15.09-4.39,48.8,48.8,0,0,0-15.76.57,47.6,47.6,0,0,0-7.66,2.14A53.27,53.27,0,0,0,236.58,154.52Z" style="fill:#fff"></path></g><g style="opacity:0.6000000000000001"><path d="M218.23,218.56A43.62,43.62,0,0,1,212.86,204a45.69,45.69,0,0,1-.71-7.83,50.22,50.22,0,0,1,.61-7.84,46.15,46.15,0,0,1,5.13-14.81,43.92,43.92,0,0,1,9.79-12.08,56.08,56.08,0,0,0-8.62,12.69,51.41,51.41,0,0,0-4.64,14.47,53,53,0,0,0-.27,15.2A56,56,0,0,0,218.23,218.56Z" style="fill:#fff"></path></g><path d="M294.59,188c-5.75,5.52-13.46,5.47-19.39-.12a12.76,12.76,0,0,1,9.64-4.45h0A12.79,12.79,0,0,1,294.59,188Z" style="fill:#fff"></path><path d="M229.09,188c5.76,5.52,13.47,5.47,19.39-.12a12.73,12.73,0,0,0-9.63-4.45h0A12.79,12.79,0,0,0,229.09,188Z" style="fill:#fff"></path><path d="M289.24,186a4.26,4.26,0,1,1-4.26-4.27A4.26,4.26,0,0,1,289.24,186Z" style="fill:#263238"></path><path d="M288.33,184.74a1.22,1.22,0,1,1-1.22-1.22A1.22,1.22,0,0,1,288.33,184.74Z" style="fill:#fff"></path><path d="M295.43,187.87h0c-3-5.24-6.63-8-10.45-8.06h-.07c-3.82,0-7.46,2.75-10.56,8a.33.33,0,0,0-.06.19.36.36,0,0,0,.11.26,15.21,15.21,0,0,0,10.64,4.72,14.55,14.55,0,0,0,10.33-4.59A.36.36,0,0,0,295.43,187.87Zm-20.23,0a12.76,12.76,0,0,1,9.64-4.45h0a12.79,12.79,0,0,1,9.71,4.57C288.84,193.55,281.13,193.5,275.2,187.91Z" style="fill:#FFAE0E"></path><path d="M295.43,187.87h0c-3-5.24-6.63-8-10.45-8.06h-.07c-3.82,0-7.46,2.75-10.56,8a.33.33,0,0,0-.06.19.36.36,0,0,0,.11.26,15.21,15.21,0,0,0,10.64,4.72,14.55,14.55,0,0,0,10.33-4.59A.36.36,0,0,0,295.43,187.87Zm-20.23,0a12.76,12.76,0,0,1,9.64-4.45h0a12.79,12.79,0,0,1,9.71,4.57C288.84,193.55,281.13,193.5,275.2,187.91Z" style="opacity:0.30000000000000004"></path><path d="M296.57,178.43c-3.85-6.12-11.09-6.52-14.67-3.29-3.11,2.81-4.67,2.83-5.67,1.74-.83-.9-.07-3.14,3.35-5.43C284,168.48,294.5,168.3,296.57,178.43Z" style="fill:#FFAE0E"></path><path d="M296.57,178.43c-3.85-6.12-11.09-6.52-14.67-3.29-3.11,2.81-4.67,2.83-5.67,1.74-.83-.9-.07-3.14,3.35-5.43C284,168.48,294.5,168.3,296.57,178.43Z" style="opacity:0.1"></path><circle cx="238.71" cy="185.96" r="4.26" style="fill:#263238"></circle><circle cx="236.58" cy="184.74" r="1.22" style="fill:#fff"></circle><path d="M228.31,188.32a14.57,14.57,0,0,0,10.33,4.59,15.21,15.21,0,0,0,10.64-4.72.38.38,0,0,0,.05-.45h0c-3.11-5.2-6.76-8-10.57-8h-.07c-3.83,0-7.44,2.83-10.45,8.08h0A.38.38,0,0,0,228.31,188.32Zm.79-.29a12.82,12.82,0,0,1,9.71-4.57h.05a12.8,12.8,0,0,1,9.63,4.44C242.56,193.5,234.85,193.55,229.1,188Z" style="fill:#FFAE0E"></path><path d="M228.31,188.32a14.57,14.57,0,0,0,10.33,4.59,15.21,15.21,0,0,0,10.64-4.72.38.38,0,0,0,.05-.45h0c-3.11-5.2-6.76-8-10.57-8h-.07c-3.83,0-7.44,2.83-10.45,8.08h0A.38.38,0,0,0,228.31,188.32Zm.79-.29a12.82,12.82,0,0,1,9.71-4.57h.05a12.8,12.8,0,0,1,9.63,4.44C242.56,193.5,234.85,193.55,229.1,188Z" style="opacity:0.30000000000000004"></path><path d="M227.12,178.43c3.85-6.12,11.09-6.52,14.67-3.29,3.1,2.81,4.66,2.83,5.67,1.74.83-.9.07-3.14-3.35-5.43C239.68,168.48,229.19,168.3,227.12,178.43Z" style="fill:#FFAE0E"></path><path d="M227.12,178.43c3.85-6.12,11.09-6.52,14.67-3.29,3.1,2.81,4.66,2.83,5.67,1.74.83-.9.07-3.14-3.35-5.43C239.68,168.48,229.19,168.3,227.12,178.43Z" style="opacity:0.1"></path><path d="M254.43,199.44a10,10,0,0,0-1.33,1.68,3.73,3.73,0,0,0-.56,1.89,2.67,2.67,0,0,0,.65,1.67,1.71,1.71,0,0,0,.29.27,2,2,0,0,0,.36.2c.28.13.61.24,1,.36a5.26,5.26,0,0,1,2.18,1.21,3.59,3.59,0,0,1,.44.57c.11.17.16.26.26.39a3,3,0,0,0,.62.62,6.78,6.78,0,0,0,7.09,0,3.58,3.58,0,0,0,.61-.62c.1-.13.15-.22.27-.39a3.59,3.59,0,0,1,.44-.57,5.26,5.26,0,0,1,2.18-1.21c.35-.12.68-.23,1-.36a2.43,2.43,0,0,0,.36-.2,1.39,1.39,0,0,0,.28-.27,2.57,2.57,0,0,0,.65-1.67,3.62,3.62,0,0,0-.55-1.89,9.59,9.59,0,0,0-1.34-1.68,7.44,7.44,0,0,1,1.74,1.39,4.23,4.23,0,0,1,1,2.12,3.65,3.65,0,0,1-.58,2.42,2.87,2.87,0,0,1-.44.53,3.1,3.1,0,0,1-.55.39c-.37.21-.72.36-1.05.51a4.65,4.65,0,0,0-1.54,1,1.54,1.54,0,0,0-.21.31c-.08.13-.2.36-.32.53a5.64,5.64,0,0,1-.85,1,8,8,0,0,1-9.27,0,4.89,4.89,0,0,1-.85-1c-.12-.17-.24-.4-.32-.53a2.11,2.11,0,0,0-.21-.31,4.45,4.45,0,0,0-1.55-1c-.32-.15-.67-.3-1-.51a3.1,3.1,0,0,1-.55-.39,2.87,2.87,0,0,1-.44-.53,3.65,3.65,0,0,1-.58-2.42,4.23,4.23,0,0,1,1-2.12A7.6,7.6,0,0,1,254.43,199.44Z" style="fill:#FFAE0E"></path><path d="M254.43,199.44a10,10,0,0,0-1.33,1.68,3.73,3.73,0,0,0-.56,1.89,2.67,2.67,0,0,0,.65,1.67,1.71,1.71,0,0,0,.29.27,2,2,0,0,0,.36.2c.28.13.61.24,1,.36a5.26,5.26,0,0,1,2.18,1.21,3.59,3.59,0,0,1,.44.57c.11.17.16.26.26.39a3,3,0,0,0,.62.62,6.78,6.78,0,0,0,7.09,0,3.58,3.58,0,0,0,.61-.62c.1-.13.15-.22.27-.39a3.59,3.59,0,0,1,.44-.57,5.26,5.26,0,0,1,2.18-1.21c.35-.12.68-.23,1-.36a2.43,2.43,0,0,0,.36-.2,1.39,1.39,0,0,0,.28-.27,2.57,2.57,0,0,0,.65-1.67,3.62,3.62,0,0,0-.55-1.89,9.59,9.59,0,0,0-1.34-1.68,7.44,7.44,0,0,1,1.74,1.39,4.23,4.23,0,0,1,1,2.12,3.65,3.65,0,0,1-.58,2.42,2.87,2.87,0,0,1-.44.53,3.1,3.1,0,0,1-.55.39c-.37.21-.72.36-1.05.51a4.65,4.65,0,0,0-1.54,1,1.54,1.54,0,0,0-.21.31c-.08.13-.2.36-.32.53a5.64,5.64,0,0,1-.85,1,8,8,0,0,1-9.27,0,4.89,4.89,0,0,1-.85-1c-.12-.17-.24-.4-.32-.53a2.11,2.11,0,0,0-.21-.31,4.45,4.45,0,0,0-1.55-1c-.32-.15-.67-.3-1-.51a3.1,3.1,0,0,1-.55-.39,2.87,2.87,0,0,1-.44-.53,3.65,3.65,0,0,1-.58-2.42,4.23,4.23,0,0,1,1-2.12A7.6,7.6,0,0,1,254.43,199.44Z" style="opacity:0.1"></path><path d="M269.26,201.31a2.65,2.65,0,0,1-.43,1.31c-.13.19-.29.35-.41.54a.76.76,0,0,0-.12.63.83.83,0,0,0,1.07.48,1.07,1.07,0,0,0,.73-.66,2.68,2.68,0,0,0,0-2A3.26,3.26,0,0,0,268.8,200,3.08,3.08,0,0,1,269.26,201.31Z" style="fill:#fff;opacity:0.6000000000000001"></path><path d="M263.12,206.37a3,3,0,0,1-1.76.68,15.38,15.38,0,0,1-1.92,0c-.16,0-.35,0-.42.16-.22.51.68,1,1,1.2a4.94,4.94,0,0,0,2.43.4,4.66,4.66,0,0,0,2.32-.75,1.76,1.76,0,0,0,.58-2.52C264.58,204.48,263.7,205.84,263.12,206.37Z" style="fill:#fff;opacity:0.6000000000000001"></path><path d="M261.82,186a142.37,142.37,0,0,1-.35,18.27.75.75,0,0,0,.07.51.62.62,0,0,0,.34.2,2,2,0,0,0,1.9-.55,4.31,4.31,0,0,0,1-1.77,9.9,9.9,0,0,0,.52-3.78,42,42,0,0,0-.62-4.32c-.62-3.26-.67-4.39-1.14-6.93-.51-2.72-.88-3.56-1.21-3.56C261.64,184,261.8,185.44,261.82,186Z" style="fill:#fff;opacity:0.6000000000000001"></path><g style="opacity:0.5"><ellipse cx="296.54" cy="199.77" rx="11" ry="8.51" style="fill:#FFAE0E"></ellipse></g><g style="opacity:0.5"><ellipse cx="227.1" cy="199.77" rx="11" ry="8.51" style="fill:#FFAE0E"></ellipse></g><path d="M276.27,220.72c-3.86-.79-3.32-3.21-7.22-4.1-4.35-1-5.48,3.41-7.21,3.41s-2.85-4.39-7.2-3.41c-3.9.89-3.36,3.31-7.22,4.1-3.14.64-4.35-1-4.35-1a4.6,4.6,0,0,0,3.65,3.67c4.1,1.08,7.4-1.54,9.18-1s3.18,1.42,5.94,1.42,4.17-.91,6-1.42,5.08,2.1,9.18,1a4.6,4.6,0,0,0,3.65-3.67S279.4,221.36,276.27,220.72Z" style="fill:#FFAE0E"></path><path d="M271.59,226.66c-1.83,1.82-4.87,3.28-9.75,3.28s-7.91-1.46-9.74-3.28c1,2.44,4.48,4.86,9.74,4.86h0C267.1,231.52,270.63,229.1,271.59,226.66Z" style="fill:#FFAE0E"></path><path d="M271.59,226.66c-1.83,1.82-4.87,3.28-9.75,3.28s-7.91-1.46-9.74-3.28c1,2.44,4.48,4.86,9.74,4.86h0C267.1,231.52,270.63,229.1,271.59,226.66Z" style="opacity:0.1"></path><path d="M294.2,180.44a9.68,9.68,0,0,0-4.32-3.06,10.61,10.61,0,0,0-5.26-.46,10.09,10.09,0,0,0-4.71,2,19.11,19.11,0,0,1,4.83-.73,13.06,13.06,0,0,1,4.58.74,11.41,11.41,0,0,1,3.92,2.38,20,20,0,0,1,3.09,3.78A10.29,10.29,0,0,0,294.2,180.44Zm-60.44-3.06a9.8,9.8,0,0,0-4.32,3.06,10.27,10.27,0,0,0-2.12,4.68,20.37,20.37,0,0,1,3.08-3.78,11.55,11.55,0,0,1,3.93-2.38,13,13,0,0,1,4.57-.74,19.11,19.11,0,0,1,4.83.73,10,10,0,0,0-4.71-2A10.62,10.62,0,0,0,233.76,177.38Z" style="fill:#fff;opacity:0.6000000000000001"></path><path d="M302.38,231.38A53.48,53.48,0,0,1,283,246a53.64,53.64,0,0,1-47.57-2.12,56.31,56.31,0,0,1-10.06-7.15,55.35,55.35,0,0,1-8.19-9.24,54.16,54.16,0,0,1-9.08-22.79c-.13-1-.27-2.05-.37-3.07s-.18-2.06-.19-3.09c-.11-2.06,0-4.11.12-6.17a54.6,54.6,0,0,1,2.37-12.09,56.57,56.57,0,0,1,5.07-11.21,57.38,57.38,0,0,1,7.46-9.75,58.69,58.69,0,0,1,9.47-7.75A57,57,0,0,1,243,146.23a54.13,54.13,0,0,0-31.71,34.45l-.79,2.91c-.26,1-.39,2-.59,2.95l-.29,1.47-.17,1.5c-.11,1-.26,2-.32,3-.06,2-.2,4-.08,6,0,1,.14,2,.2,3s.25,2,.38,3a52.71,52.71,0,0,0,8.94,22.07,53.33,53.33,0,0,0,7.9,9,53.08,53.08,0,0,0,32.62,13.68,53.25,53.25,0,0,0,23.61-4A54.58,54.58,0,0,0,302.38,231.38Z" style="fill:#FFAE0E"></path><path d="M271.06,219a4.09,4.09,0,0,0-.23-.47,3.44,3.44,0,0,0-1.21-1,3.85,3.85,0,0,0-1.6-.32,3.15,3.15,0,0,0-1.64.49,5.73,5.73,0,0,0-1.27,1.33s0,.16,0,.13c.55-.22,1-.59,1.54-.83a3.33,3.33,0,0,1,3.16.26c.26.16.49.35.75.5s.41.35.62.38c.05,0,.06-.07.05-.1A1.85,1.85,0,0,0,271.06,219Zm-13.75-1.3a3.2,3.2,0,0,0-1.64-.49,3.85,3.85,0,0,0-1.6.32,3.44,3.44,0,0,0-1.21,1,2.92,2.92,0,0,0-.23.47,2.64,2.64,0,0,0-.2.37s0,.11,0,.1c.22,0,.45-.27.63-.38s.49-.34.74-.5a3.56,3.56,0,0,1,1.37-.51,3.42,3.42,0,0,1,1.79.25c.54.24,1,.61,1.55.83.06,0,0-.11,0-.13A5.73,5.73,0,0,0,257.31,217.69Z" style="fill:#fff;opacity:0.4"></path><path d="M269.05,224.43a15.21,15.21,0,0,1-3.19.73c-1.61.13-3.33-.06-4.75.71a1.32,1.32,0,0,0-.79.94c0,.56.5,1,1,1.19a6.72,6.72,0,0,0,2.85.36,13.16,13.16,0,0,0,3.24-.61,9.57,9.57,0,0,0,2.58-1.47,3,3,0,0,0,1.06-1.92C271.05,223.33,270,224.14,269.05,224.43Z" style="fill:#fff;opacity:0.4"></path></g></g><g id="freepik--moon--inject-102"><g id="freepik--moon--inject-102"><path d="M213,243.7a71.59,71.59,0,0,1-8.65-10.44c2-.16,14.84-1.57,16.81-11.58-11.65,1.66-25.83-7-27.76-14.27a72.07,72.07,0,0,1,26.71-71.76,75.83,75.83,0,1,0,66.48,125.52A72.23,72.23,0,0,1,213,243.7Z" style="fill:#455a64"></path><path d="M193.39,147.5a78.54,78.54,0,0,0-19.79,18.9,75.94,75.94,0,0,0-12.06,24.42,73,73,0,0,0-2.44,27,71.53,71.53,0,0,0,24.78,47.08,71.82,71.82,0,0,0,23.65,13.3,70.36,70.36,0,0,0,13.31,3A82.21,82.21,0,0,0,261.25,276a74.91,74.91,0,0,1-26.69,6.61,66.55,66.55,0,0,1-6.92.18l-1.74,0c-.58,0-1.15-.07-1.73-.1-1.15-.08-2.31-.15-3.46-.31a71.64,71.64,0,0,1-60.41-91.85,76.4,76.4,0,0,1,33.09-43Z" style="fill:#37474f"></path><ellipse cx="176.49" cy="237.14" rx="9.32" ry="7.21" transform="translate(-94.93 120.01) rotate(-30)" style="fill:#37474f"></ellipse><path d="M175.17,223.66c1.84,1.64,8.07,2.57,10.77,0,4.25-4.09,3.74-5.82,2.32-8.38s-6.42-2.91-9.51.85A16.49,16.49,0,0,0,175.17,223.66Z" style="fill:#fafafa"></path><path d="M181.07,217.68a4.26,4.26,0,1,0,4.26-4.26A4.27,4.27,0,0,0,181.07,217.68Z" style="fill:#263238"></path><path d="M182,216.47a1.22,1.22,0,1,0,1.22-1.22A1.22,1.22,0,0,0,182,216.47Z" style="fill:#fff"></path><path d="M175.71,223.26c2-6.77,8.71-12.18,13.62-7.08-2.85-7.57-11.9-5.12-14.87,1.31-1.94,4.21-2.32,6.18-7.45,5.66.76,1.59,4.74,3.06,7.28,1.55l0,0c4.64,2.38,10.17,1.52,11.67-1.09C183.65,225.49,178.37,224.79,175.71,223.26Z" style="fill:#263238"></path><path d="M208.33,238.52c-1.29,1.08-4.92-1.55-7.57,2-2.38,3.21-.43,4.85-2.3,8.31-1.11,2-4.43,1.61-4.43,1.61s1.79,1.66,5.16.4c4-1.49,4.61-6,6.29-6.76s3.24-.92,5.33-2.72C209.93,240.42,209.1,239.47,208.33,238.52Z" style="fill:#263238"></path><path d="M205.44,247.9a.27.27,0,0,1,.08.07,2.5,2.5,0,0,0,2.27.26,6.27,6.27,0,0,0,2.53-1.22,1.35,1.35,0,0,0,.39-.4.61.61,0,0,0,.07-.54.63.63,0,0,0-.43-.35,1.56,1.56,0,0,0-.57-.05l-2.23,0a6.41,6.41,0,0,0-1.16.1,1.71,1.71,0,0,0-1.29.91A1.15,1.15,0,0,0,205.44,247.9Z" style="fill:#fff;opacity:0.30000000000000004"></path><path d="M205.58,239.74a2.81,2.81,0,0,0-1-.27,3,3,0,0,0-2.66,1,4.11,4.11,0,0,0-.71,1.77c-.09.34-.15.68-.23,1s-.11.4-.16.59-.1.54-.18.8c0,0,0,0,0,0,.09-.2.22-.36.31-.55s.16-.34.24-.51.31-.58.46-.88a7.75,7.75,0,0,1,.94-1.72,2.59,2.59,0,0,1,1.18-.77,7.51,7.51,0,0,1,.82-.19c.33-.05.66,0,1,0C205.7,240,205.66,239.78,205.58,239.74Z" style="fill:#fff;opacity:0.6000000000000001"></path><path d="M216.06,246.56c-3.9,3.53-8.23,4.18-10.58,3,2.58.13,5.79-.8,9.41-4.07C215.31,245.9,215.72,246.26,216.06,246.56Z" style="fill:#263238"></path><path d="M168.05,215c-.49-7.22,5.13-11.81,9.92-11.31,4.16.44,5.44-.46,5.61-1.93.14-1.21-1.8-2.58-5.91-2.42C172.34,199.57,163.76,205.6,168.05,215Z" style="fill:#263238"></path><path d="M187.1,193.68a68,68,0,0,1,1-13.94,71.94,71.94,0,0,1,3.76-13.5,72.69,72.69,0,0,1,6.37-12.49c.64-1,1.32-1.93,2-2.9s1.4-1.86,2.1-2.79l2.26-2.68c.78-.86,1.59-1.71,2.39-2.55l-2.22,2.69-2.1,2.78c-.66,1-1.35,1.9-2,2.86s-1.26,1.94-1.86,2.93a80.51,80.51,0,0,0-10.05,25.77A85.29,85.29,0,0,0,187.1,193.68Z" style="fill:#fff"></path><path d="M274.36,267.84a69.44,69.44,0,0,1-15.44,1.22,75.31,75.31,0,0,1-15.37-2.16A73.84,73.84,0,0,1,229,261.44,70,70,0,0,1,216.06,253c2.11,1.48,4.22,3,6.45,4.25a72.63,72.63,0,0,0,6.79,3.65,77.45,77.45,0,0,0,14.45,5.22,79.59,79.59,0,0,0,15.2,2.34A84.53,84.53,0,0,0,274.36,267.84Z" style="fill:#fff"></path><path d="M195.76,216.48a43,43,0,0,0,4.84,3.39,29.69,29.69,0,0,0,5.31,2.46,27.1,27.1,0,0,0,5.7,1.31c.48.08,1,.09,1.46.13a12.13,12.13,0,0,0,1.48.06c1,.07,2,0,3,0a26.71,26.71,0,0,1-3,.43c-.5,0-1,.07-1.5.06s-1,0-1.51,0a21,21,0,0,1-5.91-1.16,22.42,22.42,0,0,1-5.38-2.7A24.94,24.94,0,0,1,195.76,216.48Z" style="fill:#fff"></path><path d="M180.4,210a13.44,13.44,0,0,0-5.44,3.44,11.36,11.36,0,0,0-2.7,5.79,8.09,8.09,0,0,1,2.08-6.36A9,9,0,0,1,180.4,210Z" style="fill:#fff"></path></g></g><g id="freepik--Sparkles--inject-102"><g id="freepik--sparkles--inject-102"><path d="M403.37,109.4c0,3.81-.1,7.48-5.6,8.34,5.81-.08,5.37,3.58,5.66,8.18.15-4.6.56-7.89,5.09-8.11C403.83,117,404,114.86,403.37,109.4Z" style="fill:#455a64"></path><path d="M87,113.7c0,2.88-.07,5.66-4.24,6.31,4.4-.06,4.07,2.72,4.28,6.19.12-3.47.43-6,3.86-6.13C87.31,119.48,87.4,117.83,87,113.7Z" style="fill:#455a64"></path><path d="M154.46,36.36c0,4.48-.11,8.79-6.59,9.8,6.84-.09,6.32,4.22,6.66,9.62.18-5.4.66-9.27,6-9.53C155,45.34,155.15,42.78,154.46,36.36Z" style="fill:#455a64"></path><path d="M377.8,295.19c.05,4.45-.11,8.74-6.54,9.74,6.79-.09,6.28,4.2,6.61,9.57.18-5.37.66-9.22,6-9.48C378.34,304.11,378.49,301.57,377.8,295.19Z" style="fill:#455a64"></path><path d="M153.54,322.42c0,2.24-.06,4.4-3.29,4.9,3.42-.05,3.16,2.11,3.32,4.81.1-2.7.33-4.64,3-4.77C153.81,326.91,153.89,325.63,153.54,322.42Z" style="fill:#455a64"></path><path d="M383.94,138.38c.06,5.82-.15,11.42-8.55,12.73,8.88-.12,8.21,5.48,8.64,12.49.24-7,.85-12,7.77-12.38C384.65,150,384.84,146.72,383.94,138.38Z" style="fill:#FFAE0E"></path><path d="M311,74.87c.06,4.88-.12,9.59-7.18,10.69,7.46-.1,6.9,4.6,7.26,10.48.2-5.88.72-10.11,6.53-10.39C311.55,84.66,311.71,81.87,311,74.87Z" style="fill:#FFAE0E"></path><path d="M342.28,34.92c0,2.15,0,4.22-3.16,4.71,3.28-.05,3,2,3.19,4.61.09-2.59.32-4.45,2.88-4.57C342.54,39.23,342.61,38,342.28,34.92Z" style="fill:#FFAE0E"></path><path d="M314.65,330.49c0,2.15,0,4.22-3.16,4.7,3.28,0,3,2,3.19,4.62.09-2.59.32-4.45,2.88-4.57C314.91,334.8,315,333.57,314.65,330.49Z" style="fill:#FFAE0E"></path><path d="M404,275.27c0,3.46-.08,6.8-5.09,7.58,5.29-.07,4.89,3.26,5.15,7.44.14-4.18.51-7.17,4.63-7.37C404.39,282.21,404.5,280.24,404,275.27Z" style="fill:#FFAE0E"></path><path d="M91.06,263.61c0,3.47-.08,6.8-5.09,7.58,5.29-.07,4.89,3.27,5.15,7.44.14-4.17.51-7.17,4.63-7.37C91.49,270.56,91.6,268.58,91.06,263.61Z" style="fill:#FFAE0E"></path><path d="M107.74,127.4c.06,5.88-.15,11.54-8.64,12.85,9-.12,8.29,5.54,8.73,12.62.24-7.08,1.82-12.4,8.8-12.74C109.41,138.94,108.64,135.82,107.74,127.4Z" style="fill:#FFAE0E"></path><path d="M417.31,133.42c0,3-.6,6-4.9,6.64,4.54-.06,4.72,2.68,4.94,6.27.13-3.59,1.11-6.35,4.65-6.52C418.34,139.2,417.77,137.69,417.31,133.42Z" style="fill:#ebebeb"></path><path d="M136.19,211c0,3-.59,6-4.9,6.64,4.55-.06,4.73,2.68,5,6.27.12-3.59,1.11-6.35,4.65-6.52C137.22,216.74,136.65,215.23,136.19,211Z" style="fill:#ebebeb"></path><path d="M417.64,232.08c0,3.19-.63,6.38-5.23,7.1,4.85-.07,5,2.86,5.28,6.7.13-3.84,1.18-6.79,5-7C418.74,238.26,418.13,236.65,417.64,232.08Z" style="fill:#ebebeb"></path><path d="M227,67.36c0,3.19-.64,6.38-5.24,7.1,4.86-.07,5,2.86,5.29,6.7.13-3.84,1.18-6.79,5-7C228.05,73.54,227.44,71.93,227,67.36Z" style="fill:#ebebeb"></path><path d="M105.23,286.45c0,3.18-.64,6.37-5.24,7.09,4.86-.07,5.05,2.87,5.29,6.7.13-3.83,1.18-6.79,5-7C106.33,292.62,105.72,291,105.23,286.45Z" style="fill:#ebebeb"></path><path d="M356.46,40.89c0,4.14-.11,8.13-6.09,9.06,6.32-.08,5.84,3.9,6.15,8.89.17-5,.61-8.57,5.54-8.81C357,49.19,357.1,46.83,356.46,40.89Z" style="fill:#e0e0e0"></path><path d="M139.68,82.4c.06-5.48-.14-10.38-8.06-11.61,8.37.11,7.74-5.55,8.15-12.16.22,6.61,1.23,12.27,7.75,12.59C140.77,72.33,140.52,74.54,139.68,82.4Z" style="fill:#e0e0e0"></path><path d="M290.73,334.05c.06-5.49-.13-10.38-8.05-11.61,8.36.11,7.73-5.55,8.14-12.16.22,6.61,1.23,12.27,7.75,12.58C291.83,324,291.58,326.19,290.73,334.05Z" style="fill:#e0e0e0"></path><path d="M180.28,325.76c.06-5.48-.13-10.38-8.06-11.61,8.37.11,7.74-5.55,8.15-12.15.22,6.6,1.23,12.27,7.75,12.58C181.38,315.7,181.13,317.9,180.28,325.76Z" style="fill:#e0e0e0"></path></g></g></svg>