 <svg version="1.0" xmlns="http://www.w3.org/2000/svg"  width="300.000000pt" height="300.000000pt" viewBox="0 0 300.000000 300.000000"  preserveAspectRatio="xMidYMid meet">  <g transform="translate(0.000000,300.000000) scale(0.100000,-0.100000)" fill="#000000" stroke="none"> <path d="M2605 2601 c-269 -96 -507 -354 -609 -659 -54 -163 -69 -277 -62 -462 6 -177 37 -349 86 -477 94 -246 332 -456 580 -512 30 -7 63 -15 74 -18 43 -12 0 19 -77 55 -191 90 -373 270 -462 457 -48 101 -101 282 -119 407 -48 320 11 612 169 833 98 137 292 296 424 346 121 46 253 33 320 -33 17 -17 34 -28 38 -24 12 11 -73 82 -114 94 -59 18 -189 14 -248 -7z m-638 -1023 c-3 -7 -5 -2 -5 12 0 14 2 19 5 13 2 -7 2 -19 0 -25z m0 -50 c-3 -7 -5 -2 -5 12 0 14 2 19 5 13 2 -7 2 -19 0 -25z m12 -55 c-1 -21 1 -45 4 -53 3 -8 8 -33 12 -55 19 -120 74 -302 118 -390 63 -127 198 -294 290 -359 36 -25 27 -32 -15 -10 -79 40 -203 163 -272 269 -80 121 -150 351 -143 468 1 26 -1 47 -5 47 -5 0 -7 27 -6 60 2 33 7 60 11 60 5 0 8 -17 6 -37z"/> <path d="M375 2562 l-70 -4 95 -24 c128 -32 264 -100 340 -171 33 -31 63 -54 65 -51 7 7 -119 152 -158 182 -75 58 -148 76 -272 68z"/> <path d="M2622 2545 c-149 -58 -324 -205 -431 -361 -161 -239 -204 -586 -115 -939 14 -55 29 -103 33 -108 4 -4 8 17 9 47 5 212 144 590 293 801 123 173 320 345 501 436 32 16 58 33 58 38 0 18 -90 88 -128 99 -63 19 -150 14 -220 -13z m153 5 c4 -6 10 -8 15 -5 22 14 140 -54 140 -81 0 -7 -26 -25 -57 -40 -120 -58 -296 -202 -410 -335 -98 -114 -214 -323 -273 -490 -39 -112 -80 -266 -80 -301 0 -15 -4 -29 -9 -32 -9 -6 -15 13 -27 79 -3 17 -7 41 -10 55 -11 53 -13 318 -3 380 34 209 114 375 250 521 120 127 347 264 403 243 8 -3 17 -1 21 5 8 14 32 14 40 1z"/> <path d="M310 2523 c0 -4 39 -27 88 -50 189 -92 377 -275 461 -450 114 -236 167 -580 127 -821 -48 -286 -177 -496 -411 -670 -70 -52 -173 -105 -234 -122 -104 -28 -218 -4 -285 58 -24 23 -27 24 -18 6 19 -37 71 -73 129 -90 46 -13 70 -14 132 -6 151 20 287 96 432 241 129 130 218 273 277 446 87 258 80 601 -19 900 -86 258 -318 474 -579 540 -36 9 -73 18 -82 21 -10 3 -18 2 -18 -3z m350 -162 c95 -71 142 -120 218 -225 62 -88 126 -269 147 -421 10 -75 17 -393 9 -398 -5 -3 -10 50 -10 116 -2 206 -63 452 -157 632 -51 99 -198 266 -282 321 -14 9 -25 20 -25 24 0 11 56 -17 100 -49z"/> <path d="M882 1813 c-3 -75 -38 -238 -77 -358 -80 -245 -206 -457 -369 -621 -110 -109 -188 -168 -317 -240 -46 -26 -86 -49 -88 -51 -9 -7 65 -75 104 -96 54 -28 159 -28 233 1 199 77 405 272 504 477 108 225 126 516 52 828 -14 59 -29 107 -33 107 -4 0 -8 -21 -9 -47z m53 -237 c31 -229 5 -453 -72 -621 -21 -44 -40 -82 -43 -85 -3 -3 -22 -30 -42 -61 -71 -110 -190 -216 -348 -311 -78 -47 -207 -62 -278 -33 -35 15 -82 52 -82 64 0 6 16 17 135 92 39 24 75 48 82 54 6 5 26 21 45 35 63 46 195 185 261 275 84 113 185 315 232 465 20 63 39 122 42 130 3 8 7 25 9 37 1 13 6 33 10 45 4 13 7 29 5 37 -1 7 1 20 4 30 6 14 8 13 15 -4 4 -11 15 -78 25 -149z"/> <path d="M1376 1784 c-69 -22 -155 -109 -184 -187 -46 -122 -18 -244 77 -337 68 -67 127 -90 227 -90 59 0 81 5 132 30 231 116 237 442 10 565 -43 24 -67 29 -133 32 -53 2 -97 -3 -129 -13z m228 -28 c51 -21 122 -91 148 -144 15 -31 23 -70 25 -116 3 -60 0 -77 -26 -130 -36 -74 -44 -83 -101 -123 -54 -38 -84 -47 -170 -47 -111 0 -205 62 -261 172 -18 38 -21 56 -17 130 4 76 8 93 36 138 32 52 116 118 169 134 39 11 156 3 197 -14z"/> <path d="M2198 674 c6 -11 45 -56 86 -101 102 -109 155 -136 282 -141 106 -5 159 11 75 22 -120 16 -280 91 -388 183 -36 30 -60 47 -55 37z m279 -200 c-3 -3 -12 -4 -19 -1 -8 3 -5 6 6 6 11 1 17 -2 13 -5z"/> </g> </svg> 