<?xml version="1.0" standalone="no"?>
<!DOCTYPE svg PUBLIC "-//W3C//DTD SVG 20010904//EN"
 "http://www.w3.org/TR/2001/REC-SVG-20010904/DTD/svg10.dtd">
<svg version="1.0" xmlns="http://www.w3.org/2000/svg"
 width="1522.000000pt" height="797.000000pt" viewBox="0 0 1522.000000 797.000000"
 preserveAspectRatio="xMidYMid meet">

<g transform="translate(0.000000,797.000000) scale(0.100000,-0.100000)"
fill="#000000" stroke="none">
<path d="M6263 7915 c-68 -19 -154 -63 -223 -115 -70 -52 -141 -159 -176 -265
-48 -143 -45 -394 11 -890 26 -226 29 -237 123 -468 285 -693 345 -1323 181
-1892 -59 -203 -179 -468 -290 -640 -61 -95 -111 -136 -210 -170 -149 -53
-364 24 -669 238 -307 215 -396 264 -565 308 -216 56 -370 24 -505 -107 l-69
-66 -88 12 c-68 10 -108 22 -176 57 -149 74 -249 103 -358 102 -182 -1 -243
-12 -346 -64 -102 -52 -245 -153 -369 -261 -158 -139 -264 -225 -335 -274
-114 -79 -264 -129 -429 -145 -122 -12 -121 -12 -55 -84 32 -34 78 -73 102
-87 49 -29 55 -44 17 -44 -76 0 -262 -66 -411 -145 -69 -37 -203 -128 -203
-139 0 -2 35 5 78 15 42 11 127 22 187 25 97 6 118 4 175 -16 37 -12 79 -35
97 -52 l32 -31 -79 -48 c-95 -56 -165 -107 -203 -147 l-28 -29 56 19 c78 26
244 53 277 45 24 -6 28 -12 28 -45 0 -58 -47 -141 -103 -183 -76 -57 -123 -63
-442 -65 -317 -1 -372 -10 -506 -80 -74 -39 -202 -150 -232 -203 l-18 -31 48
8 c26 4 93 7 148 7 93 0 106 -3 166 -32 36 -18 75 -43 88 -57 l24 -25 -31 -48
c-17 -26 -30 -49 -28 -51 2 -1 24 2 50 9 25 6 52 9 59 6 27 -10 50 -119 45
-213 -8 -149 -74 -274 -195 -368 -174 -137 -371 -189 -712 -189 l-205 0 54
-49 c125 -116 296 -205 448 -234 82 -16 253 -18 322 -4 32 6 67 4 125 -7 57
-11 109 -14 185 -10 143 8 153 13 91 46 -27 14 -71 42 -98 61 l-48 35 111 7
c246 16 419 76 529 183 133 130 151 317 42 441 -80 90 -157 106 -331 68 l-29
-7 31 45 c67 97 172 169 286 197 26 7 131 18 231 26 203 15 251 28 298 84 54
65 59 147 13 226 -51 87 -159 107 -331 61 l-90 -24 60 55 c77 70 248 156 357
177 192 39 359 5 534 -110 83 -54 187 -156 243 -237 35 -51 115 -207 109 -213
-3 -2 -29 22 -59 53 -156 162 -297 225 -455 204 -78 -11 -159 -39 -117 -40 35
-1 125 -38 164 -66 71 -53 99 -142 62 -195 -26 -38 -37 -45 -193 -123 -208
-104 -309 -177 -390 -282 -42 -55 -120 -199 -120 -222 0 -7 34 15 76 50 250
210 528 276 692 163 68 -47 106 -122 99 -195 -8 -79 -48 -151 -120 -216 l-62
-57 55 22 c80 31 198 107 256 165 99 99 168 233 195 378 7 37 14 65 16 64 1
-2 8 -50 13 -106 12 -118 0 -267 -30 -363 l-18 -59 26 5 c35 7 458 73 592 92
119 17 1034 90 1240 99 74 3 270 10 435 15 165 5 512 17 770 26 388 13 710 14
1840 10 1921 -8 3806 -26 4420 -41 105 -3 359 -7 565 -10 206 -3 420 -7 475
-10 55 -2 237 -7 404 -11 297 -6 305 -7 338 -30 29 -19 43 -22 81 -18 78 10
340 101 462 161 99 49 126 68 196 137 51 52 90 102 108 138 28 57 28 57 17
171 -12 132 -31 198 -75 249 -17 20 -41 50 -54 67 -12 16 -53 50 -90 75 -94
62 -354 195 -491 251 -63 26 -124 53 -135 60 -12 7 -66 28 -121 45 -55 18
-137 48 -183 67 -72 30 -93 34 -167 34 -87 0 -204 -23 -323 -62 -35 -12 -71
-19 -80 -16 -9 3 -257 86 -551 186 -294 100 -535 181 -537 181 -1 0 -20 33
-42 73 -35 63 -40 83 -45 157 -15 214 -106 410 -322 691 l-112 145 13 65 c21
97 19 259 -5 351 -35 137 -138 314 -238 410 -124 120 -312 119 -416 -3 -21
-24 -42 -60 -49 -81 -10 -34 -15 -38 -59 -47 -48 -11 -51 -10 -136 39 -111 64
-255 119 -438 170 -80 22 -167 51 -194 64 -89 46 -209 146 -328 274 -185 199
-227 238 -300 274 -58 28 -77 33 -143 33 -60 -1 -87 -6 -133 -27 -113 -53
-224 -187 -325 -394 -27 -56 -54 -115 -60 -133 -6 -17 -15 -31 -19 -31 -10 0
-135 126 -718 725 -220 226 -470 482 -556 570 l-157 160 11 80 c29 223 -51
473 -209 655 -30 34 -54 68 -54 76 0 26 -40 95 -144 248 -108 160 -159 210
-321 314 -100 64 -317 167 -405 191 -86 24 -125 25 -197 6z m66 -716 c3 -126
65 -359 132 -491 30 -59 123 -202 168 -258 l21 -25 0 72 c1 238 126 476 325
617 88 63 89 63 45 0 -52 -75 -81 -166 -87 -280 -9 -149 28 -290 147 -558 185
-419 205 -616 90 -861 -65 -139 -141 -225 -285 -322 -60 -40 -185 -107 -189
-101 -6 8 -85 258 -91 288 -4 19 -41 119 -81 221 -41 102 -74 191 -74 197 0 6
-23 54 -50 105 -46 86 -105 235 -96 244 1 2 29 -30 61 -72 31 -41 61 -73 65
-70 4 3 11 20 14 39 6 30 1 43 -29 84 -111 155 -177 395 -174 635 1 86 3 94 9
52 23 -153 105 -352 197 -475 l48 -64 8 57 c8 55 6 60 -28 117 -61 100 -106
209 -137 329 -25 97 -31 143 -35 277 -6 172 4 358 18 314 4 -14 7 -46 8 -71z
m3308 -2431 c26 -50 69 -114 94 -143 106 -122 191 -245 203 -297 l6 -28 -47 7
c-61 8 -257 106 -357 178 -44 31 -76 48 -76 41 0 -63 91 -244 139 -279 10 -6
32 -24 49 -39 l32 -26 -30 -73 c-49 -118 -61 -123 -139 -53 -96 86 -172 213
-201 334 -22 90 -16 231 15 335 30 101 98 245 152 319 l35 49 39 -117 c21 -65
60 -158 86 -208z m860 -648 c44 -26 67 -73 60 -123 -3 -22 -10 -43 -16 -48 -6
-5 -9 -6 -6 -2 8 10 -37 53 -56 53 -10 0 -19 -10 -22 -25 -5 -28 15 -45 55
-45 l23 0 -25 -20 c-83 -63 -210 -1 -210 105 0 64 63 125 130 125 19 0 49 -9
67 -20z m303 -140 c152 -152 232 -357 200 -510 -7 -33 -16 -60 -20 -60 -4 0
-10 60 -14 133 -6 123 -9 137 -40 204 -52 109 -106 182 -203 273 -80 75 -84
80 -43 59 24 -13 78 -58 120 -99z m-620 -22 c61 -232 346 -560 588 -678 40
-19 72 -39 72 -44 0 -14 -163 1 -226 21 -48 15 -64 27 -121 93 -78 89 -186
202 -271 283 -54 51 -62 64 -72 114 -18 84 -7 253 15 253 2 0 9 -19 15 -42z
m-570 -83 c36 -10 76 -25 90 -35 14 -9 35 -20 47 -24 12 -4 48 -30 81 -59 32
-29 96 -81 143 -117 114 -87 375 -350 483 -485 96 -120 240 -331 301 -439 28
-50 40 -65 49 -56 14 14 12 145 -3 184 -6 16 -10 31 -7 33 2 2 165 -37 363
-88 197 -50 368 -94 381 -96 26 -6 27 0 7 82 -8 33 -15 71 -15 83 0 27 -6 29
246 -114 155 -88 149 -87 124 -23 -12 30 -48 110 -81 179 -57 118 -58 123 -28
95 48 -45 151 -182 197 -261 41 -68 102 -219 102 -250 0 -18 -17 -10 -171 82
-100 60 -111 64 -168 64 -34 0 -61 -3 -61 -7 0 -4 7 -26 16 -49 11 -30 27 -48
56 -64 22 -12 64 -42 93 -66 30 -23 82 -57 117 -75 l63 -32 -59 -52 c-146
-131 -352 -199 -505 -169 -32 7 -32 7 26 30 69 28 119 78 129 129 8 43 0 54
-24 32 -10 -9 -44 -28 -77 -43 -85 -39 -200 -44 -316 -14 -217 56 -468 222
-587 388 l-47 67 -3 -105 -3 -105 58 -55 c81 -76 197 -154 330 -221 61 -32
109 -60 106 -63 -14 -13 -155 -5 -227 14 -112 29 -224 75 -508 214 -139 68
-271 131 -293 141 -22 10 -89 42 -150 70 -60 28 -147 69 -192 90 -46 21 -83
41 -82 44 0 3 32 26 71 51 77 50 182 155 222 222 29 50 56 146 56 201 0 70 -6
63 -184 -215 -37 -57 -71 -98 -100 -118 -53 -35 -165 -80 -264 -105 -70 -17
-72 -17 -138 5 -128 41 -259 123 -331 207 -157 185 -190 269 -170 438 9 85 43
160 126 284 82 122 135 155 296 187 94 18 327 12 415 -11z m-6140 -201 c82
-26 176 -77 371 -201 79 -50 153 -88 199 -103 60 -19 69 -25 53 -33 -10 -6
-55 -13 -100 -15 -79 -4 -91 -2 -285 59 -188 58 -210 63 -295 63 -88 0 -96 -2
-178 -43 -70 -35 -106 -62 -206 -158 -66 -64 -125 -125 -131 -136 -7 -14 25
-1 118 47 257 134 361 166 483 148 61 -9 177 -49 168 -58 -2 -2 -44 -11 -93
-20 -117 -21 -185 -55 -324 -159 -200 -148 -292 -182 -475 -172 -195 11 -420
92 -511 183 -24 24 -44 48 -44 54 0 5 15 10 33 10 58 1 191 36 256 68 77 39
111 65 266 206 316 287 451 338 695 260z m2499 -1576 c0 -7 -8 -35 -18 -63
l-18 -50 -190 -3 -191 -2 -11 -32 c-6 -17 -11 -35 -11 -39 0 -5 74 -9 165 -9
91 0 165 -3 165 -7 0 -5 -9 -30 -19 -58 l-19 -50 -172 -5 -172 -5 -30 -78
c-26 -68 -34 -80 -68 -97 -46 -24 -176 -29 -168 -7 3 6 47 126 98 265 l94 252
283 0 c220 0 283 -3 282 -12z m291 4 c0 -5 -29 -87 -65 -183 -36 -96 -65 -181
-65 -190 0 -26 20 -29 175 -29 l144 0 -21 -60 -22 -60 -196 0 -197 0 -46 36
c-35 28 -47 43 -47 64 0 15 32 112 70 216 39 104 72 195 75 202 5 14 195 18
195 4z m619 -14 c4 -13 14 -52 21 -88 7 -36 15 -67 17 -69 2 -3 45 37 96 87
l93 93 109 -3 108 -3 -179 -168 c-164 -154 -181 -174 -204 -230 -33 -81 -35
-84 -80 -107 -27 -14 -59 -20 -101 -20 -70 0 -68 -10 -24 110 l28 75 -52 158
c-28 86 -51 164 -51 172 0 12 19 15 105 15 100 0 106 -1 114 -22z m1121 19 c0
-2 -11 -30 -24 -63 l-24 -59 -193 -3 c-182 -2 -195 -4 -216 -24 -48 -45 -38
-48 178 -48 l201 0 -6 -26 c-4 -14 -21 -62 -39 -107 l-32 -80 -100 -58 -100
-58 -222 -1 c-123 0 -223 2 -223 5 0 2 9 29 21 60 l20 55 184 0 c114 0 193 4
208 11 21 9 47 46 47 64 0 3 -92 5 -204 5 l-205 0 30 81 c49 133 42 125 179
201 l85 48 218 0 c119 0 217 -1 217 -3z m603 -8 c54 -15 77 -41 77 -87 0 -39
-39 -152 -62 -179 -6 -8 -47 -32 -90 -54 -77 -39 -78 -39 -197 -39 l-120 0 -8
42 -9 43 -45 -120 -45 -120 -98 -3 c-77 -2 -97 0 -94 10 3 7 47 127 98 266
l94 252 230 0 c132 0 247 -5 269 -11z m766 -29 c37 -30 51 -47 51 -66 0 -42
-102 -302 -133 -339 -16 -20 -48 -46 -70 -58 -39 -20 -57 -22 -247 -25 l-205
-3 -47 41 c-27 23 -48 48 -48 56 0 16 95 275 115 313 28 54 93 97 170 114 11
3 97 5 192 6 l171 1 51 -40z m818 13 c-3 -16 -13 -45 -21 -65 l-16 -38 -113 0
-112 0 -65 -177 c-64 -176 -65 -178 -107 -201 -34 -19 -54 -22 -106 -20 l-64
3 72 195 73 195 -109 3 c-60 1 -109 7 -109 11 0 5 10 34 21 65 l22 56 320 0
320 0 -6 -27z m3788 -140 c-48 -25 -49 -26 -27 -36 18 -8 39 -4 100 18 67 24
96 29 215 33 97 3 137 1 137 -7 0 -6 -18 -11 -42 -11 -50 0 -123 -19 -193 -49
-71 -32 -80 -41 -56 -58 18 -12 28 -10 83 12 140 57 340 70 488 32 l55 -15
-88 -1 c-48 -1 -121 -8 -161 -16 -100 -21 -236 -77 -236 -97 0 -12 132 -82
200 -105 74 -26 166 -29 220 -9 19 7 44 17 55 20 11 4 -2 -13 -29 -39 -50 -47
-127 -91 -199 -115 -47 -15 -166 -15 -227 -1 -65 15 -67 14 -36 -18 l28 -29
-38 -11 c-74 -21 -190 -4 -251 35 -27 17 -29 12 -7 -21 15 -22 15 -25 1 -31
-31 -12 -124 17 -212 66 -174 97 -194 105 -265 105 -46 0 -74 -5 -93 -18 -15
-9 -27 -15 -27 -11 0 24 75 139 131 198 86 92 155 130 275 151 49 8 109 22
134 29 102 33 129 32 65 -1z"/>
<path d="M8232 1928 l-20 -53 106 -3 c120 -3 142 7 145 69 l2 34 -107 3 -106
3 -20 -53z"/>
<path d="M8977 1962 c-9 -10 -35 -67 -58 -127 -50 -134 -49 -135 82 -135 77 0
91 3 112 23 28 25 102 219 93 243 -4 11 -28 14 -109 14 -87 0 -106 -3 -120
-18z"/>
<path d="M2148 907 c-46 -24 -105 -58 -133 -75 l-49 -31 -1 -58 c-2 -88 -39
-148 -132 -211 -41 -29 -162 -80 -237 -102 l-59 -16 74 -22 c123 -36 211 -45
379 -39 198 8 364 44 511 112 l54 25 -95 -6 c-86 -6 -227 7 -252 23 -6 3 24
20 66 39 145 62 204 133 192 228 -11 98 -94 176 -188 176 -37 0 -66 -10 -130
-43z"/>
</g>
</svg>
