<?xml version="1.0" encoding="iso-8859-1"?>
<!-- Generator: Adobe Illustrator 19.0.0, SVG Export Plug-In . SVG Version: 6.00 Build 0)  -->
<svg xmlns="http://www.w3.org/2000/svg" xmlns:xlink="http://www.w3.org/1999/xlink" version="1.1" id="Capa_1" x="0px" y="0px" viewBox="0 0 511.999 511.999" style="enable-background:new 0 0 511.999 511.999;" xml:space="preserve">
<polygon style="fill:#CC4444;" points="180.147,38.249 256,130.53 331.852,38.249 "/>
<polygon style="fill:#B53C3C;" points="218.232,38.249 180.147,38.249 256,130.53 275.043,107.363 "/>
<path style="fill:#F95C4B;" d="M431.854,137.185c-15.163,0-27.456-12.291-27.456-27.453V25.012  c0-14.865-13.543-16.856-18.824-17.069h-29.947c-4.608,0-8.983,2.026-11.96,5.542L254.95,121.415l0,0v265.896  c0,8.658,7.018,15.677,15.677,15.677h165.821c8.658,0,15.678-7.018,15.678-15.677V156.346  C452.126,143.818,444.395,137.185,431.854,137.185z"/>
<path style="fill:#F44B34;" d="M79.096,137.185c15.163,0,27.456-12.291,27.456-27.453V25.012c0-14.865,13.542-16.856,18.824-17.069  h29.947c4.608,0,8.983,2.026,11.961,5.542l88.718,107.931l0,0v265.896c0,8.658-7.019,15.677-15.678,15.677H74.502  c-8.658,0-15.678-7.018-15.678-15.677V156.346C58.824,143.818,66.555,137.185,79.096,137.185z"/>
<g>
	<path style="fill:#CC4444;" d="M100.083,131.939c15.163,0,27.456-12.291,27.456-27.453V19.765c0-5.535,1.879-9.284,4.509-11.822   h-6.673c-5.28,0.212-18.824,2.204-18.824,17.069v84.72c0,9.405-4.733,17.704-11.945,22.651   C97.172,131.886,98.737,131.939,100.083,131.939z"/>
	<path style="fill:#CC4444;" d="M79.812,387.311V151.099c0-7.387,2.617-11.938,5.969-14.737c-3.642,0.911-6.247,0.824-8.366,0.824   c-4.852,0.194-18.592,2.235-18.592,19.161v230.965c0,8.658,7.019,15.677,15.678,15.677h20.987   C86.831,402.988,79.812,395.969,79.812,387.311z"/>
</g>
<rect x="58.827" y="193.619" style="fill:#BABABA;" width="197.177" height="82.564"/>
<rect x="58.827" y="193.619" style="fill:#989DA0;" width="20.986" height="82.564"/>
<rect x="256.004" y="193.619" style="fill:#D6D6D6;" width="197.177" height="82.564"/>
<g>
	<path style="fill:#F44B34;" d="M192.249,459.597h-59.374c-5.559,0-6.546,4.321-6.716,5.54   c-1.635,20.852,14.92,38.877,36.043,38.877c19.973,0,36.165-16.192,36.165-36.164C198.367,463.286,197.607,459.597,192.249,459.597   z"/>
	<path style="fill:#F44B34;" d="M378.793,459.597h-59.373c-5.557,0-6.547,4.321-6.715,5.54c-0.071,0.896-0.122,1.798-0.122,2.713   c0,19.973,16.192,36.164,36.164,36.164c19.972,0,36.164-16.192,36.164-36.164C384.912,463.316,384.171,459.597,378.793,459.597z"/>
</g>
<g>
	<path style="fill:#CC4444;" d="M157.533,465.137c0.17-1.218,1.157-5.54,6.716-5.54h-31.374c-5.559,0-6.546,4.321-6.716,5.54   c-0.07,0.896-0.121,1.798-0.121,2.713c0,26.656,27.927,44.127,51.851,32.594C164.589,494.03,156.362,480.083,157.533,465.137z"/>
	<path style="fill:#CC4444;" d="M344.078,465.137c0.168-1.218,1.157-5.54,6.715-5.54h-31.374c-5.557,0-6.547,4.321-6.715,5.54   c-0.071,0.896-0.122,1.798-0.122,2.713c0,19.973,16.192,36.164,36.164,36.164c5.62,0,10.942-1.282,15.687-3.571   C351.141,494.033,342.884,480.046,344.078,465.137z"/>
</g>
<g>
	<rect x="256.004" y="193.619" style="fill:#E3E5E5;" width="197.177" height="27.978"/>
	<rect x="58.827" y="193.619" style="fill:#E3E5E5;" width="197.177" height="27.978"/>
</g>
<rect x="58.827" y="193.619" style="fill:#D6D6D6;" width="20.987" height="27.978"/>
<path d="M434.895,129.437c-0.105-0.004-0.209-0.006-0.314-0.006h-1.679c-10.8,0-19.585-8.785-19.585-19.582v-84.72  c0-14.502-10.354-24.289-26.377-24.933c-0.106-0.004-0.211-0.006-0.316-0.006h-29.947c-6.936,0-13.484,3.035-17.966,8.326  c-0.025,0.029-0.049,0.059-0.074,0.088l-17.994,21.892H191.356C162.752-4.303,172.084,0.189,125.374,0.189  c-0.106,0-0.211,0.002-0.316,0.006C109.034,0.84,98.681,10.626,98.681,25.128v29.094c0,4.346,3.524,7.87,7.87,7.87  s7.87-3.524,7.87-7.87V25.128c0-2.383,0.001-8.696,11.12-9.199h29.779c2.283,0,4.439,0.991,5.923,2.721  c2.658,3.233,76.362,92.899,86.886,105.701v61.514H66.694v-29.404c0-7.435,3.332-11.291,12.4-11.291  c19.479,0,35.326-15.845,35.326-35.323V90.95c0-4.346-3.524-7.87-7.87-7.87s-7.87,3.524-7.87,7.87v18.898  c0,9.558-6.996,19.582-21.265,19.582c-0.105,0-0.21,0.002-0.314,0.006c-12.061,0.482-26.147,7.848-26.147,27.025  c0,10.258,0,218.184,0,230.965c0,12.984,10.563,23.547,23.547,23.547h79.83v40.868h-21.456c-8.842,0-13.66,6.191-14.511,12.329  c-0.022,0.153-0.039,0.307-0.05,0.462c-0.1,1.256-0.146,2.315-0.146,3.332c0,24.28,19.753,44.035,44.034,44.035  c26.151,0,46.55-22.789,43.778-48.564c-0.646-6.004-5.806-11.593-13.731-11.593h-22.176v-40.868h70.25  c6.016,0,11.511-2.271,15.677-5.997c4.167,3.726,9.66,5.997,15.677,5.997h70.25v40.868h-21.456c-8.849,0-13.665,6.195-14.512,12.334  c-0.075,0.543-0.196,2.294-0.196,3.788c0,24.28,19.754,44.035,44.035,44.035c26.2,0,46.547-22.841,43.778-48.564  c-0.668-6.074-5.861-11.593-13.731-11.593h-22.174v-40.868h23.606c4.346,0,7.87-3.524,7.87-7.87c0-4.346-3.524-7.87-7.87-7.87  H271.676c-4.305,0-7.805-3.502-7.805-7.806V284.17h181.434v103.258c0,4.305-3.502,7.806-7.806,7.806H418  c-4.346,0-7.87,3.524-7.87,7.87c0,4.346,3.524,7.87,7.87,7.87h19.498c12.984,0,23.547-10.563,23.547-23.547  c0-4.892,0-225.32,0-230.965C461.044,137.285,446.959,129.919,434.895,129.437z M162.202,496.26  c-15.907,0-28.591-13.18-28.289-28.676h56.58C190.8,482.995,178.186,496.26,162.202,496.26z M349.796,496.26  c-15.924,0-28.593-13.198-28.29-28.676h56.58C378.395,483.055,365.726,496.26,349.796,496.26z M248.129,268.428H66.695v-38.843  h181.433v38.843H248.129z M263.87,201.607h181.434v12.238H263.87V201.607z M350.756,18.651c1.484-1.729,3.639-2.721,5.923-2.721  h29.779c11.119,0.503,11.12,6.816,11.12,9.199v84.72c0,17.976,13.815,35.323,36.837,35.323c10.888,0.504,10.889,8.335,10.889,11.291  v29.404H263.87v-61.515L350.756,18.651z M204.295,46.236h103.408C282.379,77.045,279.041,81.106,256,109.138  C251.307,103.429,209.564,52.646,204.295,46.236z M248.129,201.607v12.238H66.695v-12.238H248.129z M240.322,395.234H74.502  c-4.305,0-7.806-3.502-7.806-7.806V284.17h181.434v103.258C248.129,391.732,244.627,395.234,240.322,395.234z M263.87,268.428  v-38.843h181.434v38.843L263.87,268.428L263.87,268.428z"/>
<g>
</g>
<g>
</g>
<g>
</g>
<g>
</g>
<g>
</g>
<g>
</g>
<g>
</g>
<g>
</g>
<g>
</g>
<g>
</g>
<g>
</g>
<g>
</g>
<g>
</g>
<g>
</g>
<g>
</g>
</svg>
