<svg xmlns="http://www.w3.org/2000/svg" viewBox="0 0 64 64"><defs><style>.cls-1{isolation:isolate;}.cls-2{fill:#ffcc2c;}.cls-3{fill:#dc3527;}.cls-4{fill:#4094c9;}.cls-5{fill:none;stroke:#010101;stroke-linecap:round;stroke-linejoin:round;stroke-width:2px;}.cls-6{fill:#f0e5cd;}.cls-7{fill:#bbbaba;}.cls-8{fill:#586068;}.cls-10,.cls-9{opacity:0.25;}.cls-9{mix-blend-mode:multiply;}.cls-11{fill:#010101;}.cls-12{mix-blend-mode:overlay;}.cls-13{fill:#fff;}</style></defs><title>Icon Color10</title><g class="cls-1"><g id="Color"><g id="Color-2" data-name="Color"><path class="cls-2" d="M37.29,35a6.54,6.54,0,0,1-.74,1c-2,2.24-8.43,3.64-8.43,3.64h-16S7.41,39.5,7.34,35Z"/><path class="cls-3" d="M38.74,26.36v4.27A10.8,10.8,0,0,1,37.29,35h-30v0s1.1-2.37,2.93-2.46a9.35,9.35,0,0,1,2-3.87,6.74,6.74,0,0,1,5.46-2.31h.14a1.29,1.29,0,0,1-.73-1.18,1,1,0,0,1,1-1H22a1,1,0,0,1-1-1,1,1,0,0,1,.9-1H34a1.73,1.73,0,0,1,1.13.41l3,2.55A1.74,1.74,0,0,1,38.74,26.36Z"/><path class="cls-3" d="M50,29.16a4.51,4.51,0,0,0,.4,1.87H39.08a1.76,1.76,0,0,1-.33,0V27.33a1.76,1.76,0,0,1,.33,0H50.41A4.43,4.43,0,0,0,50,29.16Z"/><path class="cls-3" d="M62.24,29.16a1.87,1.87,0,0,1-.54,1.32,1.84,1.84,0,0,1-1.31.54H58.77a4.64,4.64,0,0,0,.39-1.87,4.59,4.59,0,0,0-.39-1.86h1.62A1.88,1.88,0,0,1,62.24,29.16Z"/><path class="cls-4" d="M59.15,29.16A4.67,4.67,0,0,1,58.76,31a4.58,4.58,0,0,1-8.36,0,4.48,4.48,0,0,1-.4-1.87,4.43,4.43,0,0,1,.4-1.86A4.57,4.57,0,0,1,57.85,26a4.49,4.49,0,0,1,1.3,3.19Z"/><path class="cls-5" d="M55.86,29.16a1.28,1.28,0,0,1-2.45.52,1.31,1.31,0,0,1-.11-.52,1.28,1.28,0,0,1,2.2-.89,1.37,1.37,0,0,1,.26.37A1.5,1.5,0,0,1,55.86,29.16Z"/><path class="cls-2" d="M59.72,19l-1.87,7a4.56,4.56,0,0,0-5.76-.64L56.34,19Z"/><line class="cls-5" x1="17.87" y1="26.36" x2="25.77" y2="26.36"/><path class="cls-4" d="M22.32,28.66V35h-15v0s1.1-2.37,2.93-2.46a9.35,9.35,0,0,1,2-3.87Z"/><circle class="cls-6" cx="32.03" cy="29.74" r="3.82"/><line class="cls-5" x1="13.74" y1="39.67" x2="15.99" y2="48.05"/><line class="cls-5" x1="29.02" y1="39.67" x2="31.27" y2="48.05"/><line class="cls-5" x1="22.5" y1="43.86" x2="23.63" y2="48.05"/><path class="cls-5" d="M37.3,45.83l-1,1.12A3.29,3.29,0,0,1,33.84,48H12A3.06,3.06,0,0,1,9.67,47l-1-1.15"/><line class="cls-5" x1="17.24" y1="43.86" x2="27.77" y2="43.86"/><rect class="cls-7" x="27.43" y="18.02" width="2.76" height="4.07"/><path class="cls-8" d="M31.82,14.43h-6a1.14,1.14,0,0,0-1.14,1.14v1.31A1.14,1.14,0,0,0,25.8,18h6A1.14,1.14,0,0,0,33,16.88V15.57A1.14,1.14,0,0,0,31.82,14.43Z"/><path class="cls-2" d="M53.77,14.43h-19l-1.8,1.8h0l1.8,1.8h19a1.8,1.8,0,0,0,1.8-1.8h0A1.79,1.79,0,0,0,53.77,14.43Z"/><path class="cls-2" d="M3.84,14.41h19l1.8,1.8h0L22.86,18h-19A1.8,1.8,0,0,1,2,16.21H2A1.79,1.79,0,0,1,3.84,14.41Z"/></g></g><g id="Shadow" class="cls-9"><g id="Shadow-2" data-name="Shadow" class="cls-10"><path class="cls-11" d="M12.93,29.88A9.47,9.47,0,0,1,14,27.23a7.25,7.25,0,0,0-1.77,1.43,9.32,9.32,0,0,0-1.59,2.61A3.25,3.25,0,0,1,12.93,29.88Z"/><path class="cls-11" d="M30.78,37h-16s-4.56-.17-4.8-4.42C8.35,32.87,7.34,35,7.34,35v0c.08,4.48,4.82,4.65,4.82,4.65h16s6.45-1.41,8.43-3.64a7.66,7.66,0,0,0,.74-1c.08-.12.14-.25.21-.37A30.41,30.41,0,0,1,30.78,37Z"/><path class="cls-11" d="M40.61,29.5a1.76,1.76,0,0,1-.33,0V27.31h-1.2a1.76,1.76,0,0,0-.33,0V31a1.76,1.76,0,0,0,.33,0H50.41A4.35,4.35,0,0,1,50,29.51H40.61Z"/><path class="cls-11" d="M61.7,29.2a1.84,1.84,0,0,1-1.31.54H59.1A4.92,4.92,0,0,1,58.77,31h1.62a1.84,1.84,0,0,0,1.85-1.86,2,2,0,0,0-.12-.64A1.77,1.77,0,0,1,61.7,29.2Z"/><path class="cls-11" d="M59.15,27.88a5.23,5.23,0,0,0-.06-.57h-.33a4.49,4.49,0,0,1,.33,1.22A4.76,4.76,0,0,0,59.15,27.88Z"/><path class="cls-11" d="M55.89,32.43a4.56,4.56,0,0,1-4.18-2.71,4.48,4.48,0,0,1-.4-1.87,4.43,4.43,0,0,1,.4-1.86,3.63,3.63,0,0,1,.36-.64A4.57,4.57,0,0,0,50,29.16a4.57,4.57,0,0,0,8.39,2.53A4.62,4.62,0,0,1,55.89,32.43Z"/><path class="cls-11" d="M56.07,23.1a4.55,4.55,0,0,0-2.49.74L56.84,19h-.5l-4.25,6.37a4.56,4.56,0,0,1,5.76.64l.58-2.19A4.52,4.52,0,0,0,56.07,23.1Z"/><path class="cls-11" d="M30.57,29.74a3.81,3.81,0,0,1,2.63-3.61A3.81,3.81,0,1,0,32,33.56a3.53,3.53,0,0,0,1.18-.21A3.81,3.81,0,0,1,30.57,29.74Z"/><path class="cls-11" d="M27.43,16.88V15.57a1.14,1.14,0,0,1,1.14-1.14H25.79a1.14,1.14,0,0,0-1.14,1.14v1.31A1.14,1.14,0,0,0,25.79,18h2.78A1.14,1.14,0,0,1,27.43,16.88Z"/><polygon class="cls-11" points="38.4 14.43 34.76 14.43 32.96 16.22 34.76 18.02 38.4 18.02 36.6 16.22 38.4 14.43"/><path class="cls-11" d="M5.93,16.2a1.8,1.8,0,0,1,1.8-1.8H3.84a1.8,1.8,0,1,0,0,3.6H7.73A1.81,1.81,0,0,1,5.93,16.2Z"/><path class="cls-11" d="M16.62,28.66H12.27a9.35,9.35,0,0,0-2,3.87C8.44,32.61,7.34,35,7.34,35v0h5.34A7.86,7.86,0,0,1,16.62,28.66Z"/></g></g><g id="Highlight" class="cls-12"><g id="Highlight-2" data-name="Highlight"><path class="cls-13" d="M18.19,26a1,1,0,0,1-1-1,1.14,1.14,0,0,1,.06-.33,1,1,0,0,0-.15.52,1.46,1.46,0,0,0,.3.84Z"/><path class="cls-13" d="M13.87,28.23H14a1.12,1.12,0,0,1-.58-.61,6.77,6.77,0,0,0-.81.68A8.26,8.26,0,0,1,13.87,28.23Z"/><path class="cls-13" d="M38.14,25l-3-2.54A1.73,1.73,0,0,0,34,22.09H22a1,1,0,0,0-.9,1,1,1,0,0,0,.45.85h8.62a1.75,1.75,0,0,1,1.13.41l3,2.54a1.77,1.77,0,0,1,.61,1.32V32.5a10.8,10.8,0,0,1-1.45,4.38,7.06,7.06,0,0,1-.74,1,5.67,5.67,0,0,1-.76.67A11.94,11.94,0,0,0,36.56,36a7.66,7.66,0,0,0,.74-1,10.63,10.63,0,0,0,1.45-4.38V26.36A1.77,1.77,0,0,0,38.14,25Z"/><path class="cls-13" d="M50.41,27.3H39.08a1.76,1.76,0,0,0-.33,0V29h9.78a4.4,4.4,0,0,0-.4,1.86.77.77,0,0,0,0,.15h2.27a4.48,4.48,0,0,1-.4-1.87A4.38,4.38,0,0,1,50.41,27.3Z"/><path class="cls-13" d="M58.76,27.3a4.57,4.57,0,0,0-6.67-2,4.41,4.41,0,0,0-1.3,1.28l.08-.06a4.56,4.56,0,0,1,7.06,3.83,4.67,4.67,0,0,1-.39,1.87,3.85,3.85,0,0,1-.41.71A4.54,4.54,0,0,0,58.76,31a4.64,4.64,0,0,0,.39-1.87A4.54,4.54,0,0,0,58.76,27.3Z"/><path class="cls-13" d="M52.88,24.59l-.3,0-.48.72a4.51,4.51,0,0,1,1.64-.65A4.92,4.92,0,0,0,52.88,24.59Z"/><path class="cls-13" d="M58,19l-1.6,6a4.54,4.54,0,0,1,1.44,1l1.87-7Z"/><path class="cls-13" d="M20.16,28.66v4.2H9.24A5.31,5.31,0,0,0,7.35,35v0h15V28.67H20.16Z"/><path class="cls-13" d="M32,25.93a4,4,0,0,0-1.21.21,3.79,3.79,0,0,1,0,7.2,3.7,3.7,0,0,0,1.21.21,3.81,3.81,0,1,0,0-7.62Z"/><path class="cls-13" d="M31.82,14.43h-6a1.14,1.14,0,0,0-1.14,1.14v.35h5.68a1.14,1.14,0,0,1,1.14,1.14v1h.35A1.14,1.14,0,0,0,33,16.88V15.57A1.15,1.15,0,0,0,31.82,14.43Z"/><path class="cls-13" d="M53.77,14.43h-19l-1.49,1.49h19a1.8,1.8,0,0,1,1.8,1.8A1.26,1.26,0,0,1,54,18a1.8,1.8,0,0,0-.28-3.57Z"/><path class="cls-13" d="M22.85,14.41h-19a1.79,1.79,0,0,0-1.77,1.52l.27,0h19l1.8,1.8,1.49-1.49Z"/></g></g><g id="Line"><g id="Line-2" data-name="Line"><path class="cls-5" d="M38.75,26.37v4.27A10.8,10.8,0,0,1,37.3,35a7.06,7.06,0,0,1-.74,1c-2,2.23-8.43,3.64-8.43,3.64h-16S7.42,39.5,7.35,35v0s1.1-2.37,2.93-2.46a9.35,9.35,0,0,1,2-3.87,6.76,6.76,0,0,1,5.46-2.31h.14a1.3,1.3,0,0,1-.72-1.18,1,1,0,0,1,1-1h3.95a1,1,0,0,1-1-1,1,1,0,0,1,.9-1H34a1.75,1.75,0,0,1,1.13.41l3,2.54A1.76,1.76,0,0,1,38.75,26.37Z"/><path class="cls-5" d="M50,29.16a4.51,4.51,0,0,0,.4,1.87H39.08a1.76,1.76,0,0,1-.33,0V27.33a1.76,1.76,0,0,1,.33,0H50.41A4.43,4.43,0,0,0,50,29.16Z"/><path class="cls-5" d="M62.24,29.16a1.87,1.87,0,0,1-.54,1.32,1.84,1.84,0,0,1-1.31.54H58.77a4.64,4.64,0,0,0,.39-1.87,4.59,4.59,0,0,0-.39-1.86h1.62A1.88,1.88,0,0,1,62.24,29.16Z"/><path class="cls-5" d="M59.15,29.16A4.67,4.67,0,0,1,58.76,31a4.58,4.58,0,0,1-8.36,0,4.48,4.48,0,0,1-.4-1.87,4.43,4.43,0,0,1,.4-1.86A4.57,4.57,0,0,1,57.85,26a4.49,4.49,0,0,1,1.3,3.19Z"/><path class="cls-5" d="M55.86,29.16a1.28,1.28,0,0,1-2.45.52,1.31,1.31,0,0,1-.11-.52,1.28,1.28,0,0,1,2.2-.89,1.37,1.37,0,0,1,.26.37A1.5,1.5,0,0,1,55.86,29.16Z"/><path class="cls-5" d="M59.72,19l-1.87,7a4.56,4.56,0,0,0-5.76-.64L56.34,19Z"/><line class="cls-5" x1="17.87" y1="26.36" x2="25.77" y2="26.36"/><line class="cls-5" x1="37.3" y1="35.01" x2="7.34" y2="35.01"/><path class="cls-5" d="M22.32,28.66V35h-15v0s1.1-2.37,2.93-2.46a9.35,9.35,0,0,1,2-3.87Z"/><circle class="cls-5" cx="32.03" cy="29.74" r="3.82"/><line class="cls-5" x1="13.74" y1="39.67" x2="15.99" y2="48.05"/><line class="cls-5" x1="29.02" y1="39.67" x2="31.27" y2="48.05"/><line class="cls-5" x1="22.5" y1="43.86" x2="23.63" y2="48.05"/><path class="cls-5" d="M37.3,45.83l-1,1.12A3.29,3.29,0,0,1,33.84,48H12A3.06,3.06,0,0,1,9.67,47l-1-1.15"/><line class="cls-5" x1="17.24" y1="43.86" x2="27.77" y2="43.86"/><rect class="cls-5" x="27.43" y="18.02" width="2.76" height="4.07"/><path class="cls-5" d="M31.82,14.43h-6a1.14,1.14,0,0,0-1.14,1.14v1.31A1.14,1.14,0,0,0,25.8,18h6A1.14,1.14,0,0,0,33,16.88V15.57A1.14,1.14,0,0,0,31.82,14.43Z"/><path class="cls-5" d="M53.77,14.43h-19l-1.8,1.8h0l1.8,1.8h19a1.8,1.8,0,0,0,1.8-1.8h0A1.79,1.79,0,0,0,53.77,14.43Z"/><path class="cls-5" d="M3.84,14.41h19l1.8,1.8h0L22.86,18h-19A1.8,1.8,0,0,1,2,16.21H2A1.79,1.79,0,0,1,3.84,14.41Z"/></g></g></g></svg>