<?xml version="1.0" standalone="no"?>
<!DOCTYPE svg PUBLIC "-//W3C//DTD SVG 20010904//EN"
 "http://www.w3.org/TR/2001/REC-SVG-20010904/DTD/svg10.dtd">
<svg version="1.0" xmlns="http://www.w3.org/2000/svg"
 width="150.000000pt" height="117.000000pt" viewBox="0 0 150.000000 117.000000"
 preserveAspectRatio="xMidYMid meet">

<g transform="translate(0.000000,117.000000) scale(0.100000,-0.100000)"
fill="#000000" stroke="none">
<path d="M1230 1108 c-81 -31 -194 -147 -246 -253 l-39 -79 0 -166 c0 -190 10
-232 79 -334 23 -33 45 -70 49 -80 4 -10 10 -16 14 -13 7 8 103 -43 103 -55 0
-10 -57 17 -84 41 -14 12 -18 12 -15 2 15 -44 142 -96 178 -73 20 14 6 29 -51
58 -105 53 -195 182 -235 334 -24 94 -22 237 7 319 66 194 258 339 384 291 34
-12 34 3 1 18 -37 17 -82 14 -145 -10z"/>
<path d="M277 1061 c103 -50 118 -71 18 -25 -93 43 -118 40 -46 -5 160 -98
241 -260 241 -482 0 -147 -33 -242 -115 -336 -61 -69 -65 -47 -5 31 27 37 50
72 50 79 0 7 -12 -4 -27 -23 -49 -64 -121 -129 -174 -155 -83 -43 -80 -18 10
79 98 105 132 155 177 251 19 41 39 77 44 80 12 8 13 142 1 149 -5 3 -14 -16
-20 -42 -21 -79 -59 -174 -98 -242 -50 -86 -182 -218 -250 -249 -29 -14 -53
-28 -53 -32 0 -12 79 -39 114 -39 20 0 63 15 100 34 36 19 66 31 66 27 0 -28
-115 -81 -175 -81 -20 0 -47 7 -60 16 -14 9 -25 12 -25 7 0 -5 12 -16 26 -23
72 -39 225 18 313 116 104 117 139 244 127 457 -8 131 -23 180 -87 274 -27 40
-49 76 -49 81 0 31 -104 92 -157 92 -20 0 -7 -10 54 -39z"/>
<path d="M1243 1066 c-29 -14 -73 -44 -99 -68 -45 -41 -124 -150 -124 -171 0
-6 17 16 38 49 60 92 173 184 227 184 28 0 15 -22 -68 -110 -48 -51 -105 -126
-137 -180 -30 -51 -60 -95 -67 -97 -9 -4 -13 -31 -13 -92 0 -104 13 -135 30
-70 66 258 162 400 343 508 43 26 47 43 12 59 -40 18 -85 14 -142 -12z"/>
<path d="M662 723 c-47 -23 -75 -67 -80 -128 -4 -47 -1 -55 28 -89 62 -70 128
-85 191 -42 68 46 87 129 46 200 -39 68 -116 93 -185 59z m117 -69 c42 -35 43
-84 2 -125 -40 -40 -83 -39 -122 2 -35 37 -36 51 -8 95 37 61 79 70 128 28z"/>
</g>
</svg>
